<svg xmlns="http://www.w3.org/2000/svg" width="351.48" height="289.48" viewBox="0 0 87.87 72.37">
  <defs>
    <style>
      .cls-1 {
        fill: #fff;
        fill-rule: evenodd;
      }
    </style>
  </defs>
  <path class="cls-1" d="M1440.41,2467.14c0,3.14.04,6.29-.02,9.43a11.441,11.441,0,0,0,2.49,7.31,22.3,22.3,0,0,1,1.41,1.94,1.789,1.789,0,0,1-.37,2.39c-1.42,1.13-2.8,2.32-4.19,3.49-0.99.84-1.96,1.68-2.95,2.53a2.34,2.34,0,0,1-2.04.67,2.671,2.671,0,0,1-1.15-.64,22.967,22.967,0,0,1-4.78-5.48c-0.29-.44-0.28-0.43-0.68-0.06a27.261,27.261,0,0,1-5.77,4.43,17.42,17.42,0,0,1-5.8,1.85,32.139,32.139,0,0,1-3.24.26,16.078,16.078,0,0,1-10.39-2.84,12.022,12.022,0,0,1-3.32-3.77,14.2,14.2,0,0,1-1.55-4.01,20.489,20.489,0,0,1-.39-6,16.454,16.454,0,0,1,1.35-5.49,15.682,15.682,0,0,1,4.46-5.84,20.076,20.076,0,0,1,7.15-3.66,43.757,43.757,0,0,1,6.79-1.4c1.97-.27,3.95-0.47,5.92-0.68,0.9-.1,1.79-0.18,2.69-0.25a0.4,0.4,0,0,0,.44-0.47c-0.04-1.54.09-3.09-.08-4.63a5.685,5.685,0,0,0-5.13-5.39,9.048,9.048,0,0,0-5.26.65,6.723,6.723,0,0,0-3.96,4.86,2.968,2.968,0,0,1-.51,1.18,1.7,1.7,0,0,1-1.62.66c-1.44-.18-2.89-0.3-4.33-0.45-1.23-.13-2.47-0.26-3.7-0.42-0.29-.03-0.57-0.03-0.86-0.06a1.841,1.841,0,0,1-1.77-2.29,18.574,18.574,0,0,1,2.6-6.27,16.026,16.026,0,0,1,4.94-4.69,22.344,22.344,0,0,1,5.98-2.52,32.978,32.978,0,0,1,10.74-.96,25.737,25.737,0,0,1,7.85,1.79,14.936,14.936,0,0,1,5.75,3.98,12.6,12.6,0,0,1,2.83,6,34.737,34.737,0,0,1,.47,6.6C1440.4,2461.64,1440.41,2464.39,1440.41,2467.14Zm-13.94,5.52c0-1.31-.01-2.18.01-3.06a0.408,0.408,0,0,0-.5-0.5,29.541,29.541,0,0,0-4.6.3,17.806,17.806,0,0,0-4.43,1.25,7.675,7.675,0,0,0-4.74,5.97,10.9,10.9,0,0,0,.12,4.44,5.851,5.851,0,0,0,2.03,3.27,5.993,5.993,0,0,0,5.38.9,7.442,7.442,0,0,0,3.94-2.64,11.813,11.813,0,0,0,2.41-5.09A20.8,20.8,0,0,0,1426.47,2472.66Zm-7,40.14c-2.34-.1-4.52-0.15-6.7-0.36-1.89-.18-3.77-0.45-5.64-0.77-1.18-.21-2.35-0.49-3.52-0.77a62.508,62.508,0,0,1-6.47-1.93,65.975,65.975,0,0,1-6.73-2.82c-1.74-.85-3.43-1.8-5.09-2.8-1.2-.71-2.37-1.48-3.51-2.3-1.36-.98-2.71-1.97-4-3.03-0.58-.49-1.14-1-1.7-1.51a1.108,1.108,0,0,1-.36-0.59,0.713,0.713,0,0,1,.73-0.95,1.836,1.836,0,0,1,.93.28c1.11,0.58,2.21,1.19,3.33,1.76,2.06,1.06,4.18,2,6.32,2.88,2.16,0.89,4.35,1.66,6.57,2.36,1.72,0.55,3.46,1.03,5.22,1.47,2.4,0.59,4.82,1.1,7.26,1.49q3.525,0.57,7.09.87c1.79,0.14,3.58.17,5.37,0.29a41.475,41.475,0,0,0,4.86-.02c2-.09,3.99-0.23,5.98-0.44a84,84,0,0,0,9.61-1.56q2.85-.645,5.65-1.47a83.9,83.9,0,0,0,8.08-2.82,3.415,3.415,0,0,1,2.01-.4,1.136,1.136,0,0,1,1,.77,1.476,1.476,0,0,1-.34,1.47,9.979,9.979,0,0,1-1.86,1.36c-1.33.82-2.66,1.63-4.05,2.33a61.774,61.774,0,0,1-5.69,2.56c-2.18.83-4.38,1.6-6.63,2.21a74.956,74.956,0,0,1-7.4,1.59c-2.15.34-4.31,0.53-6.48,0.71C1421.98,2512.77,1420.64,2512.63,1419.47,2512.8Zm35.33-15.96a51.574,51.574,0,0,0-5.4.38c-0.55.06-1.11,0.12-1.67,0.17a0.678,0.678,0,0,1-.73-0.36,0.7,0.7,0,0,1,.19-0.79,4.678,4.678,0,0,1,1.58-1.06,20.379,20.379,0,0,1,12.94-1.37,2.627,2.627,0,0,1,1.48.68,1.387,1.387,0,0,1,.31.71,9.546,9.546,0,0,1-.12,3.24,20.076,20.076,0,0,1-2.86,7.42,12.72,12.72,0,0,1-2.77,3.13,1.173,1.173,0,0,1-.3.19,0.851,0.851,0,0,1-.92-0.06,0.754,0.754,0,0,1-.1-0.89c0.5-1.19.98-2.39,1.42-3.61a24.317,24.317,0,0,0,1.37-5.03,4.971,4.971,0,0,0,.03-1.09,1.371,1.371,0,0,0-1.07-1.26A10.148,10.148,0,0,0,1454.8,2496.84Z" transform="translate(-1375.72 -2440.44)"/>
</svg>
