<svg xmlns="http://www.w3.org/2000/svg" xmlns:xlink="http://www.w3.org/1999/xlink" width="413.166" height="307.293" viewBox="0 0 413.166 307.293">
  <defs>
    <linearGradient id="linear-gradient" x1="0.5" y1="1.198" x2="0.5" y2="-0.168" gradientUnits="objectBoundingBox">
      <stop offset="0" stop-color="gray" stop-opacity="0.251"/>
      <stop offset="0.535" stop-color="gray" stop-opacity="0.122"/>
      <stop offset="1" stop-color="gray" stop-opacity="0.102"/>
    </linearGradient>
    <linearGradient id="linear-gradient-2" x1="0.5" y1="1" x2="0.5" y2="0" xlink:href="#linear-gradient"/>
  </defs>
  <g id="bitcoinSvg-3" transform="translate(6.915 6.911)">
    <rect id="Rectangle_32" data-name="Rectangle 32" width="326.296" height="199.284" rx="27.5" transform="translate(-6.915 89.911) rotate(-17.261)" fill="url(#linear-gradient)"/>
    <rect id="Rectangle_33" data-name="Rectangle 33" width="319.639" height="192.23" rx="27.5" transform="translate(-2.049 90.569) rotate(-17.261)" fill="#fff"/>
    <rect id="Rectangle_34" data-name="Rectangle 34" width="319.639" height="27.568" transform="translate(5.468 114.761) rotate(-17.261)" fill="#fb921e"/>
    <rect id="Rectangle_35" data-name="Rectangle 35" width="81.214" height="11.921" transform="translate(68.571 232.472) rotate(-17.261)" fill="#bdbdbd"/>
    <rect id="Rectangle_36" data-name="Rectangle 36" width="140.82" height="11.921" transform="translate(62.602 213.26) rotate(-17.261)" fill="#e0e0e0"/>
    <rect id="Rectangle_37" data-name="Rectangle 37" width="328.136" height="199.48" rx="27.5" transform="translate(78.115 100.902)" fill="url(#linear-gradient-2)"/>
    <rect id="Rectangle_38" data-name="Rectangle 38" width="319.639" height="192.23" rx="27.5" transform="translate(81.841 102.936)" fill="#fff"/>
    <rect id="Rectangle_39" data-name="Rectangle 39" width="9.313" height="26.45" transform="translate(157.853 196.255)" fill="#e0e0e0"/>
    <rect id="Rectangle_40" data-name="Rectangle 40" width="9.313" height="26.45" transform="translate(169.774 196.255)" fill="#e0e0e0"/>
    <rect id="Rectangle_41" data-name="Rectangle 41" width="9.313" height="26.45" transform="translate(181.695 196.255)" fill="#e0e0e0"/>
    <rect id="Rectangle_42" data-name="Rectangle 42" width="9.313" height="26.45" transform="translate(202.558 196.255)" fill="#e0e0e0"/>
    <rect id="Rectangle_43" data-name="Rectangle 43" width="9.313" height="26.45" transform="translate(214.479 196.255)" fill="#e0e0e0"/>
    <rect id="Rectangle_44" data-name="Rectangle 44" width="9.313" height="26.45" transform="translate(226.4 196.255)" fill="#e0e0e0"/>
    <rect id="Rectangle_45" data-name="Rectangle 45" width="9.313" height="26.45" transform="translate(247.263 196.255)" fill="#e0e0e0"/>
    <rect id="Rectangle_46" data-name="Rectangle 46" width="9.313" height="26.45" transform="translate(259.184 196.255)" fill="#e0e0e0"/>
    <rect id="Rectangle_47" data-name="Rectangle 47" width="9.313" height="26.45" transform="translate(271.105 196.255)" fill="#e0e0e0"/>
    <rect id="Rectangle_48" data-name="Rectangle 48" width="9.313" height="26.45" transform="translate(291.967 196.255)" fill="#e0e0e0"/>
    <rect id="Rectangle_49" data-name="Rectangle 49" width="9.313" height="26.45" transform="translate(303.888 196.255)" fill="#e0e0e0"/>
    <rect id="Rectangle_50" data-name="Rectangle 50" width="9.313" height="26.45" transform="translate(315.81 196.255)" fill="#e0e0e0"/>
    <rect id="Rectangle_51" data-name="Rectangle 51" width="55.53" height="30.452" transform="translate(102.177 153.298)" fill="#fb921e"/>
    <rect id="Rectangle_52" data-name="Rectangle 52" width="34.035" height="34.035" transform="translate(318.029 253.163)" fill="#304d71" opacity="0.1"/>
    <rect id="Rectangle_53" data-name="Rectangle 53" width="34.035" height="34.035" transform="translate(335.047 253.163)" fill="#304d71" opacity="0.1"/>
  </g>
</svg>
