<svg xmlns="http://www.w3.org/2000/svg" xmlns:xlink="http://www.w3.org/1999/xlink" width="624" height="396" viewBox="0 0 624 396">
  <defs>
    <filter id="Rectangle_90" x="0" y="0" width="624" height="396" filterUnits="userSpaceOnUse">
      <feOffset dx="7" dy="8" input="SourceAlpha"/>
      <feGaussianBlur stdDeviation="15" result="blur"/>
      <feFlood flood-opacity="0.161"/>
      <feComposite operator="in" in2="blur"/>
      <feComposite in="SourceGraphic"/>
    </filter>
    <linearGradient id="linear-gradient" x1="0.5" x2="0.5" y2="1" gradientUnits="objectBoundingBox">
      <stop offset="0" stop-color="#54d8ff"/>
      <stop offset="1" stop-color="#fff" stop-opacity="0"/>
    </linearGradient>
    <linearGradient id="linear-gradient-2" x1="0.5" x2="0.5" y2="1" gradientUnits="objectBoundingBox">
      <stop offset="0" stop-color="#a7a7ff"/>
      <stop offset="1" stop-color="#fff" stop-opacity="0"/>
    </linearGradient>
    <filter id="Selectbox.BG" x="453" y="94" width="121" height="44" filterUnits="userSpaceOnUse">
      <feOffset dx="5" dy="5" input="SourceAlpha"/>
      <feGaussianBlur stdDeviation="3" result="blur-2"/>
      <feFlood flood-opacity="0.051"/>
      <feComposite operator="in" in2="blur-2"/>
      <feComposite in="SourceGraphic"/>
    </filter>
  </defs>
  <g id="coinRate" transform="translate(-41 -1105.334)">
    <g id="Group_22" data-name="Group 22" transform="translate(79 1142)">
      <g transform="matrix(1, 0, 0, 1, -38, -36.67)" filter="url(#Rectangle_90)">
        <rect id="Rectangle_90-2" data-name="Rectangle 90" width="534" height="306" rx="47" transform="translate(38 37)" fill="#eee"/>
      </g>
      <path id="bitcoin" d="M36,22A14,14,0,1,1,22,8,14,14,0,0,1,36,22Zm-8-1.994c.279-1.863-1.14-2.864-3.079-3.532l.629-2.523-1.536-.383L23.4,16.024c-.4-.1-.819-.2-1.231-.29l.617-2.473-1.535-.383-.63,2.523c-.334-.076-.662-.151-.981-.231l0-.008-2.119-.529-.409,1.641s1.14.261,1.116.277a.817.817,0,0,1,.716.893l-.717,2.875a1.273,1.273,0,0,1,.16.051l-.162-.04-1,4.027a.559.559,0,0,1-.7.365c.015.022-1.117-.279-1.117-.279L14.644,26.2l2,.5c.372.093.736.191,1.1.283L17.1,29.535l1.534.383.63-2.525q.61.165,1.224.318l-.627,2.513,1.536.383.636-2.548c2.62.5,4.589.3,5.419-2.073a2.7,2.7,0,0,0-1.412-3.725A2.45,2.45,0,0,0,28,20.006Zm-3.51,4.921c-.475,1.908-3.687.876-4.728.618l.844-3.381C21.65,22.423,24.99,22.938,24.494,24.927Zm.475-4.949c-.433,1.735-3.107.854-3.974.637l.765-3.067C22.627,17.765,25.42,18.168,24.969,19.978Z" transform="translate(14 17.661)" fill="#fd961a"/>
      <text id="Bitcoin_Price_BTC_" data-name="Bitcoin Price (BTC)" transform="translate(167 45.334)" fill="#707070" font-size="14" font-family="Montserrat-Medium, Montserrat" font-weight="500"><tspan x="-65.87" y="0">Bitcoin Price (BTC)</tspan></text>
      <text id="Current_Sell_Rate_N360" data-name="Current Sell Rate N360" transform="translate(137 275.334)" fill="#707070" font-size="20" font-family="Montserrat-Medium, Montserrat" font-weight="500"><tspan x="-115.33" y="0">Current Sell Rate </tspan><tspan y="0" fill="#304d71" font-family="Montserrat-Bold, Montserrat" font-weight="700">N360</tspan></text>
    </g>
    <g id="Statistics" transform="translate(86 1202.966)">
      <rect id="Statistics.BG" width="527" height="188" transform="translate(0 5.368)" fill="#eee"/>
      <path id="Chart_Grid" data-name="Chart Grid" d="M0,117V0H.451V116.557H101.108V89.966H.586v-.443H101.108V62.932H.586v-.443H101.108V35.9H.586v-.443H101.108V8.864H.586V8.42H101.108V0h.451V8.42H196.8V0h.451V8.42h96.143V0h.451V8.42h94.789V0h.451V8.42H491.415v.443H389.086V35.455H491.415V35.9H389.086V62.488H491.415v.443H389.086V89.523H491.415v.443H389.086v26.591H491.549V0H492V117Zm388.635-.443V89.966H293.846v26.591Zm-95.241,0V89.966H197.252v26.591Zm-96.594,0V89.966H101.56v26.591ZM388.635,89.523V62.932H293.846V89.523Zm-95.241,0V62.932H197.252V89.523Zm-96.594,0V62.932H101.56V89.523ZM388.635,62.488V35.9H293.846V62.488Zm-95.241,0V35.9H197.252V62.488Zm-96.594,0V35.9H101.56V62.488ZM388.635,35.455V8.864H293.846V35.455Zm-95.241,0V8.864H197.252V35.455Zm-96.594,0V8.864H101.56V35.455Z" transform="translate(26 44.368)" fill="#eaf0f4"/>
      <g id="Total_Views_Graph" data-name="Total Views Graph" transform="translate(59.103 77.081)">
        <path id="Filled.Graph" d="M330,414.712v-60.29s51.241,59.941,93.334,62.2c46.965-.508,47.35-31.118,88.619-47.875,34.55-13.157,60.913,22.734,89.813,23.609s48.844-24.6,88.272-26.368c51.083,2.665,92.074,36.7,95.255,38.529V429.4L330,429.44Z" transform="translate(-327.777 -352.458)" opacity="0.7" fill="url(#linear-gradient)"/>
        <path id="Line.Graph" d="M312.953,279.164s52.833,61.046,94.124,61.617,55.411-35.968,88.565-48.287,61.915,23.5,89.595,23.946,54.182-26.907,88.193-26.164,72.9,21.437,94.393,37.761" transform="translate(-310.306 -276.87)" fill="none" stroke="#54d8ff" stroke-width="2"/>
        <g id="Jun.Ellipse" transform="translate(455.213 49.305)" fill="#fff" stroke="#55d8fe" stroke-width="2">
          <circle cx="2.219" cy="2.219" r="2.219" stroke="none"/>
          <circle cx="2.219" cy="2.219" r="1.219" fill="none"/>
        </g>
        <g id="May.Ellipse" transform="translate(359.907 11.105)" fill="#fff" stroke="#55d8fe" stroke-width="2">
          <circle cx="2.219" cy="2.219" r="2.219" stroke="none"/>
          <circle cx="2.219" cy="2.219" r="1.219" fill="none"/>
        </g>
        <g id="Apr.Ellipse" transform="translate(271.707 37.312)" fill="#fff" stroke="#55d8fe" stroke-width="2">
          <circle cx="2.219" cy="2.219" r="2.219" stroke="none"/>
          <circle cx="2.219" cy="2.219" r="1.219" fill="none"/>
        </g>
        <g id="Mar.Ellipse" transform="translate(182.671 13.326)" fill="#fff" stroke="#55d8fe" stroke-width="2">
          <circle cx="2.219" cy="2.219" r="2.219" stroke="none"/>
          <circle cx="2.219" cy="2.219" r="1.219" fill="none"/>
        </g>
        <g id="Feb.Ellipse" transform="translate(93.635 61.743)" fill="#fff" stroke="#55d8fe" stroke-width="2">
          <circle cx="2.219" cy="2.219" r="2.219" stroke="none"/>
          <circle cx="2.219" cy="2.219" r="1.219" fill="none"/>
        </g>
        <g id="Jan.Ellipse" fill="#fff" stroke="#55d8fe" stroke-width="2">
          <circle cx="2.219" cy="2.219" r="2.219" stroke="none"/>
          <circle cx="2.219" cy="2.219" r="1.219" fill="none"/>
        </g>
      </g>
      <g id="Products_Sold_Graph" data-name="Products Sold Graph" transform="translate(59.103 58.31)">
        <path id="Filled.Graph-2" data-name="Filled.Graph" d="M330,385.174V345.692s50.333,25.9,90.548,27.523c43.486-1.576,51.016-12.659,84.888-27.523,28.945-12.389,57.812-15.79,85.518-14.914s51.721,14.259,84.448,15.631c57.735-5.526,87.192-33.463,91.093-45.131v98.581L330,399.9Z" transform="translate(-308.74 -298.933)" opacity="0.7" fill="url(#linear-gradient-2)"/>
        <path id="Line.Graph-2" data-name="Line.Graph" d="M313,290.219s52.186,26.514,93.447,27.085,57.11-13.682,88.714-27.05,61.648-15.649,89.309-15.2,54.55,14.457,88.537,15.2,88.97-24.214,95.084-45.015" transform="translate(-310.334 -243.357)" fill="none" stroke="#a3a0fb" stroke-width="2"/>
        <g id="Jun.Ellipse-2" data-name="Jun.Ellipse" transform="translate(455.213)" fill="#fff" stroke="#a4a1fb" stroke-width="2">
          <circle cx="2.219" cy="2.219" r="2.219" stroke="none"/>
          <circle cx="2.219" cy="2.219" r="1.219" fill="none"/>
        </g>
        <g id="May.Ellipse-2" data-name="May.Ellipse" transform="translate(359.907 44.863)" fill="#fff" stroke="#a4a1fb" stroke-width="2">
          <circle cx="2.219" cy="2.219" r="2.219" stroke="none"/>
          <circle cx="2.219" cy="2.219" r="1.219" fill="none"/>
        </g>
        <g id="Apr.Ellipse-2" data-name="Apr.Ellipse" transform="translate(271.707 29.761)" fill="#fff" stroke="#a4a1fb" stroke-width="2">
          <circle cx="2.219" cy="2.219" r="2.219" stroke="none"/>
          <circle cx="2.219" cy="2.219" r="1.219" fill="none"/>
        </g>
        <g id="Mar.Ellipse-2" data-name="Mar.Ellipse" transform="translate(182.671 44.863)" fill="#fff" stroke="#a4a1fb" stroke-width="2">
          <circle cx="2.219" cy="2.219" r="2.219" stroke="none"/>
          <circle cx="2.219" cy="2.219" r="1.219" fill="none"/>
        </g>
        <g id="Feb.Ellipse-2" data-name="Feb.Ellipse" transform="translate(94.052 71.959)" fill="#fff" stroke="#a4a1fb" stroke-width="2">
          <circle cx="2.219" cy="2.219" r="2.219" stroke="none"/>
          <circle cx="2.219" cy="2.219" r="1.219" fill="none"/>
        </g>
        <g id="Jan.Ellipse-2" data-name="Jan.Ellipse" transform="translate(0 44.419)" fill="#fff" stroke="#a4a1fb" stroke-width="2">
          <circle cx="2.219" cy="2.219" r="2.219" stroke="none"/>
          <circle cx="2.219" cy="2.219" r="1.219" fill="none"/>
        </g>
      </g>
      <g id="Months" transform="translate(26 161)">
        <text id="Jan" transform="translate(0 5.368)" fill="#43425d" font-size="5" font-family="SegoeUI, Segoe UI" opacity="0.5"><tspan x="0" y="0">Jan</tspan></text>
        <text id="Feb" transform="translate(98 5.368)" fill="#43425d" font-size="5" font-family="SegoeUI, Segoe UI" opacity="0.5"><tspan x="0" y="0">Feb</tspan></text>
        <text id="Mar" transform="translate(193 4.368)" fill="#43425d" font-size="4" font-family="SegoeUI, Segoe UI" opacity="0.5"><tspan x="0" y="0">Mar</tspan></text>
        <text id="Apr" transform="translate(292 5.368)" fill="#43425d" font-size="5" font-family="SegoeUI, Segoe UI" opacity="0.5"><tspan x="0" y="0">Apr</tspan></text>
        <text id="May" transform="translate(386 5.368)" fill="#43425d" font-size="5" font-family="SegoeUI, Segoe UI" opacity="0.5"><tspan x="0" y="0">May</tspan></text>
        <text id="Jun" transform="translate(485 5.368)" fill="#43425d" font-size="5" font-family="SegoeUI, Segoe UI" opacity="0.5"><tspan x="0" y="0">Jun</tspan></text>
      </g>
      <g id="Y-Axis-Info" transform="translate(9 40)">
        <text id="_5k" data-name="$5k" transform="translate(0 121.368)" fill="#43425d" font-size="20" font-family="SegoeUI, Segoe UI" opacity="0.5"><tspan x="0" y="0">$5k</tspan></text>
        <text id="_10k" data-name="$10k" transform="translate(0 92.368)" fill="#43425d" font-size="20" font-family="SegoeUI, Segoe UI" opacity="0.5"><tspan x="0" y="0">$10k</tspan></text>
        <text id="_15k" data-name="$15k" transform="translate(0 66.368)" fill="#43425d" font-size="20" font-family="SegoeUI, Segoe UI" opacity="0.5"><tspan x="0" y="0">$15k</tspan></text>
        <text id="_20k" data-name="$20k" transform="translate(0 38.368)" fill="#43425d" font-size="20" font-family="SegoeUI, Segoe UI" opacity="0.5"><tspan x="0" y="0">$20k</tspan></text>
        <text id="_25k" data-name="$25k" transform="translate(0 11.368)" fill="#43425d" font-size="20" font-family="SegoeUI, Segoe UI" opacity="0.5"><tspan x="0" y="0">$25k</tspan></text>
      </g>
      <g id="Selectbox.Filter" transform="translate(412)">
        <g transform="matrix(1, 0, 0, 1, -457, -97.63)" filter="url(#Selectbox.BG)">
          <g id="Selectbox.BG-2" data-name="Selectbox.BG" transform="translate(457 98)" fill="#eee">
            <path d="M 99 25.5 L 4 25.5 C 2.070093393325806 25.5 0.5 23.92990684509277 0.5 22 L 0.5 4 C 0.5 2.070093393325806 2.070093393325806 0.5 4 0.5 L 99 0.5 C 100.9299087524414 0.5 102.5 2.070093393325806 102.5 4 L 102.5 22 C 102.5 23.92990684509277 100.9299087524414 25.5 99 25.5 Z" stroke="none"/>
            <path d="M 4 1 C 2.345802307128906 1 1 2.345800399780273 1 4 L 1 22 C 1 23.65419960021973 2.345802307128906 25 4 25 L 99 25 C 100.6541976928711 25 102 23.65419960021973 102 22 L 102 4 C 102 2.345800399780273 100.6541976928711 1 99 1 L 4 1 M 4 0 L 99 0 C 101.2091293334961 0 103 1.790857315063477 103 4 L 103 22 C 103 24.20914268493652 101.2091293334961 26 99 26 L 4 26 C 1.790855407714844 26 0 24.20914268493652 0 22 L 0 4 C 0 1.790857315063477 1.790855407714844 0 4 0 Z" stroke="none" fill="#d7dae2"/>
          </g>
        </g>
        <text id="Last_6_months" data-name="Last 6 months" transform="translate(2 15.368)" fill="#707070" font-size="11" font-family="Montserrat-Regular, Montserrat"><tspan x="0" y="0">Last 6 months</tspan></text>
        <g id="small-down" transform="translate(86.73 10.585)">
          <path id="Path_26" data-name="Path 26" d="M7,10.2,2.6,5.752,3.74,4.6,7,7.892,10.253,4.6l1.14,1.152Z" transform="translate(-2.6 -4.6)" fill="#a4afb7"/>
        </g>
      </g>
      <g id="Total_views_label" data-name="Total views label" transform="translate(153 177)">
        <text id="Total_views" data-name="Total views" transform="translate(11 8.368)" fill="#4d4f5c" font-size="15" font-family="SegoeUI, Segoe UI" opacity="0.5"><tspan x="0" y="0">Total views</tspan></text>
        <rect id="Label" width="8" height="4" rx="2" transform="translate(0 2.368)" fill="#54d8ff"/>
      </g>
      <g id="Products_sold_label" data-name="Products sold label" transform="translate(59 181)">
        <text id="Bitcoin-2" data-name="Bitcoin" transform="translate(12 5.368)" fill="#4d4f5c" font-size="15" font-family="SegoeUI, Segoe UI" opacity="0.5"><tspan x="0" y="0">Bitcoin</tspan></text>
        <rect id="Label-2" data-name="Label" width="8" height="4" rx="2" transform="translate(0 2.368)" fill="#a3a1fb"/>
      </g>
      <text id="_8_139.71_" data-name="$8,139.71
" transform="translate(9 22.368)" fill="#4d4f5c" font-size="20" font-family="SegoeUI, Segoe UI"><tspan x="0" y="0">$8,139.71</tspan><tspan font-family="Source Sans Pro"><tspan x="0" y="6"></tspan></tspan></text>
    </g>
    <text id="_3_086.14_60.84_" data-name="+$3,086.14 (60.84%)" transform="translate(182 1203.334)" fill="#3ed533" font-size="20" font-family="SegoeUI, Segoe UI"><tspan x="0" y="22">+$3,086.14 (60.84%)</tspan></text>
  </g>
</svg>
