<svg xmlns="http://www.w3.org/2000/svg" width="743.351" height="510.679" viewBox="0 0 743.351 510.679">
  <g id="coinSteps" transform="translate(-0.001)">
    <rect id="Rectangle_2" data-name="Rectangle 2" width="1.516" height="75.951" transform="translate(237.672 78.871)" fill="#3f3d56"/>
    <rect id="Rectangle_3" data-name="Rectangle 3" width="1.516" height="66.829" transform="translate(237.672 172.649)" fill="#3f3d56"/>
    <rect id="Rectangle_4" data-name="Rectangle 4" width="117.511" height="1.42" transform="translate(235.397 247.874)" fill="#3f3d56"/>
    <rect id="Rectangle_5" data-name="Rectangle 5" width="1.516" height="60.335" transform="translate(185.36 264.712)" fill="#3f3d56"/>
    <rect id="Rectangle_6" data-name="Rectangle 6" width="178.162" height="1.42" transform="translate(199.007 334.121)" fill="#3f3d56"/>
    <path id="Path_88" data-name="Path 88" d="M623.247,551.052" transform="translate(-233.947 -227.079)" fill="none" stroke="#3f3d56" stroke-miterlimit="10" stroke-width="2"/>
    <path id="Path_89" data-name="Path 89" d="M623.247,469.052" transform="translate(-233.947 -200.772)" fill="none" stroke="#3f3d56" stroke-miterlimit="10" stroke-width="2"/>
    <rect id="Rectangle_7" data-name="Rectangle 7" width="1.516" height="71.692" transform="translate(524.248 34.781)" fill="#3f3d56"/>
    <rect id="Rectangle_8" data-name="Rectangle 8" width="111.472" height="1.42" transform="translate(401.404 112.732)" fill="#3f3d56"/>
    <rect id="Rectangle_9" data-name="Rectangle 9" width="1.516" height="95.826" transform="translate(388.541 122.392)" fill="#3f3d56"/>
    <path id="Path_90" data-name="Path 90" d="M420.135,321.186c-7.118,0-12.888-5.4-12.888-12.067s5.77-12.067,12.888-12.067,12.888,5.4,12.888,12.067S427.25,321.178,420.135,321.186Zm0-22.714c-6.281,0-11.372,4.767-11.372,10.647s5.091,10.647,11.372,10.647,11.372-4.767,11.372-10.647S426.413,298.478,420.135,298.472Z" transform="translate(-181.705 -145.917)" fill="#3f3d56"/>
    <path id="Path_91" data-name="Path 91" d="M352.135,574.186c-7.118,0-12.888-5.4-12.888-12.067s5.77-12.067,12.888-12.067,12.888,5.4,12.888,12.067-5.774,12.06-12.888,12.067Zm0-22.714c-6.281,0-11.372,4.767-11.372,10.647s5.091,10.647,11.372,10.647,11.372-4.767,11.372-10.647S358.413,551.478,352.135,551.472Z" transform="translate(-165.259 -227.449)" fill="#3f3d56"/>
    <ellipse id="Ellipse_5" data-name="Ellipse 5" cx="12.13" cy="11.357" rx="12.13" ry="11.357" transform="translate(227.058 237.24)" fill="#304d71"/>
    <rect id="Rectangle_10" data-name="Rectangle 10" width="125.851" height="1.42" transform="translate(552.299 162.307)" fill="#3f3d56"/>
    <rect id="Rectangle_11" data-name="Rectangle 11" width="1.516" height="66.829" transform="translate(539.411 172.649)" fill="#3f3d56"/>
    <rect id="Rectangle_12" data-name="Rectangle 12" width="100.832" height="1.42" transform="translate(426.448 247.874)" fill="#3f3d56"/>
    <rect id="Rectangle_13" data-name="Rectangle 13" width="104.623" height="1.42" transform="translate(603.853 253.986)" fill="#3f3d56"/>
    <rect id="Rectangle_14" data-name="Rectangle 14" width="1.516" height="60.335" transform="translate(591.722 264.712)" fill="#3f3d56"/>
    <rect id="Rectangle_15" data-name="Rectangle 15" width="178.162" height="1.42" transform="translate(401.43 334.121)" fill="#3f3d56"/>
    <rect id="Rectangle_16" data-name="Rectangle 16" width="1.516" height="44.009" transform="translate(388.541 280.721)" fill="#3f3d56"/>
    <ellipse id="Ellipse_6" data-name="Ellipse 6" cx="12.13" cy="11.357" rx="12.13" ry="11.357" transform="translate(528.039 151.833)" fill="#304d71"/>
    <path id="Path_92" data-name="Path 92" d="M798.135,247.186c-7.118,0-12.888-5.4-12.888-12.067s5.77-12.067,12.888-12.067,12.888,5.4,12.888,12.067S805.25,247.178,798.135,247.186Zm0-22.714c-6.281,0-11.372,4.767-11.372,10.647s5.091,10.647,11.372,10.647,11.372-4.767,11.372-10.647S804.413,224.478,798.135,224.472Z" transform="translate(-273.129 -122.069)" fill="#3f3d56"/>
    <path id="Path_93" data-name="Path 93" d="M619.135,247.186c-7.118,0-12.888-5.4-12.888-12.067s5.77-12.067,12.888-12.067,12.888,5.4,12.888,12.067S626.25,247.179,619.135,247.186Zm0-22.714c-6.281,0-11.372,4.767-11.372,10.647s5.092,10.647,11.372,10.647,11.372-4.767,11.372-10.647S625.413,224.478,619.135,224.472Z" transform="translate(-229.836 -122.069)" fill="#3f3d56"/>
    <path id="Path_94" data-name="Path 94" d="M886.135,457.186c-7.118,0-12.889-5.4-12.889-12.067s5.771-12.067,12.889-12.067,12.888,5.4,12.888,12.067S893.25,457.179,886.135,457.186Zm0-22.714c-6.281,0-11.372,4.767-11.372,10.647s5.091,10.647,11.372,10.647,11.372-4.767,11.372-10.647S892.413,434.478,886.135,434.472Z" transform="translate(-294.413 -189.744)" fill="#3f3d56"/>
    <ellipse id="Ellipse_7" data-name="Ellipse 7" cx="12.13" cy="11.357" rx="12.13" ry="11.357" transform="translate(579.592 323.324)" fill="#304d71"/>
    <path id="Path_95" data-name="Path 95" d="M619.135,574.186c-7.118,0-12.888-5.4-12.888-12.067s5.77-12.067,12.888-12.067,12.888,5.4,12.888,12.067-5.774,12.06-12.888,12.067Zm0-22.714c-6.281,0-11.372,4.767-11.372,10.647s5.092,10.647,11.372,10.647,11.372-4.767,11.372-10.647S625.413,551.478,619.135,551.472Z" transform="translate(-229.836 -227.449)" fill="#3f3d56"/>
    <path id="Path_96" data-name="Path 96" d="M817.135,447.186c-7.118,0-12.888-5.4-12.888-12.067s5.77-12.067,12.888-12.067,12.889,5.4,12.889,12.067S824.25,447.179,817.135,447.186Zm0-22.714c-6.281,0-11.372,4.767-11.372,10.647s5.091,10.647,11.372,10.647,11.372-4.767,11.372-10.647-5.094-10.641-11.372-10.647Z" transform="translate(-277.725 -186.521)" fill="#3f3d56"/>
    <path id="Path_97" data-name="Path 97" d="M351.41,416.052c-8.374,0-15.163,6.356-15.163,14.2s6.789,14.2,15.163,14.2,15.163-6.356,15.163-14.2C366.548,422.417,359.774,416.075,351.41,416.052Zm0,4.259a4.268,4.268,0,1,1-4.549,4.259A4.411,4.411,0,0,1,351.41,420.311Zm0,20.5a11.267,11.267,0,0,1-9.1-4.546c.073-2.839,6.065-4.4,9.1-4.4s9.025,1.563,9.1,4.4a11.286,11.286,0,0,1-9.1,4.546Z" transform="translate(-164.533 -184.358)" fill="#3f3d56"/>
    <path id="Path_98" data-name="Path 98" d="M420.41,143.052c-8.374,0-15.163,6.356-15.163,14.2s6.789,14.2,15.163,14.2,15.163-6.356,15.163-14.2C435.548,149.417,428.774,143.075,420.41,143.052Zm0,4.259a4.268,4.268,0,1,1-4.549,4.259A4.411,4.411,0,0,1,420.41,147.311Zm0,20.5a11.267,11.267,0,0,1-9.1-4.546c.073-2.839,6.065-4.4,9.1-4.4s9.025,1.563,9.1,4.4a11.286,11.286,0,0,1-9.1,4.546Z" transform="translate(-181.222 -94.075)" fill="#3f3d56"/>
    <path id="Path_99" data-name="Path 99" d="M797.41,74.052c-8.374,0-15.163,6.356-15.163,14.2s6.789,14.2,15.163,14.2,15.163-6.356,15.163-14.2C812.548,80.418,805.774,74.075,797.41,74.052Zm0,4.259a4.268,4.268,0,1,1-4.549,4.259A4.411,4.411,0,0,1,797.41,78.311Zm0,20.5a11.268,11.268,0,0,1-9.1-4.546c.073-2.839,6.065-4.4,9.1-4.4s9.025,1.563,9.1,4.4a11.286,11.286,0,0,1-9.1,4.546Z" transform="translate(-272.404 -74.052)" fill="#3f3d56"/>
    <path id="Path_100" data-name="Path 100" d="M1027.413,293.052c-8.374,0-15.163,6.356-15.163,14.2s6.789,14.2,15.163,14.2,15.163-6.356,15.163-14.2C1042.551,299.418,1035.777,293.075,1027.413,293.052Zm0,4.259a4.268,4.268,0,1,1-4.549,4.259A4.411,4.411,0,0,1,1027.413,297.311Zm0,20.5a11.268,11.268,0,0,1-9.1-4.546c.073-2.839,6.065-4.4,9.1-4.4s9.025,1.563,9.1,4.4A11.287,11.287,0,0,1,1027.413,317.814Z" transform="translate(-328.032 -144.687)" fill="#3f3d56"/>
    <path id="Path_101" data-name="Path 101" d="M1065.413,428.052c-8.374,0-15.163,6.356-15.163,14.2s6.789,14.2,15.163,14.2,15.163-6.356,15.163-14.2C1080.551,434.417,1073.776,428.075,1065.413,428.052Zm0,4.259a4.268,4.268,0,1,1-4.549,4.259A4.411,4.411,0,0,1,1065.413,432.311Zm0,20.5a11.268,11.268,0,0,1-9.1-4.546c.073-2.839,6.065-4.4,9.1-4.4s9.025,1.563,9.1,4.4A11.286,11.286,0,0,1,1065.413,452.814Z" transform="translate(-337.223 -188.228)" fill="#3f3d56"/>
    <path id="Path_102" data-name="Path 102" d="M624.029,427.719l-1.554,5.831c1.761.411,7.189,2.088,8.069-1.212C631.461,428.9,625.791,428.13,624.029,427.719Z" transform="translate(-233.761 -187.648)" fill="#304d71"/>
    <path id="Path_103" data-name="Path 103" d="M620.9,440.08l-1.713,6.43c2.114.492,8.637,2.452,9.6-1.175C629.792,441.553,623.011,440.574,620.9,440.08Z" transform="translate(-232.965 -191.636)" fill="#304d71"/>
    <path id="Path_104" data-name="Path 104" d="M622.523,402.938c-15.232-3.556-30.659,5.123-34.457,19.384s5.471,28.7,20.7,32.261,30.659-5.122,34.458-19.383S637.757,406.492,622.523,402.938Zm5.657,22.031a4.78,4.78,0,0,1-3.983,4.288c2.8,1.364,4.223,3.456,2.866,7.083-1.683,4.5-5.684,4.884-11,3.942l-1.291,4.844-3.12-.728,1.274-4.779q-1.246-.289-2.486-.6l-1.278,4.8-3.116-.728,1.291-4.852c-.729-.175-1.469-.361-2.224-.537l-4.059-.948,1.548-3.343s2.3.573,2.268.53a1.2,1.2,0,0,0,.869-.069,1.083,1.083,0,0,0,.56-.626l2.04-7.657.329.077a2.788,2.788,0,0,0-.324-.1L609.8,420.1a1.582,1.582,0,0,0-1.453-1.7c.049-.031-2.265-.527-2.265-.527l.83-3.12,4.3,1.006,0,.015c.647.151,1.313.293,1.993.438l1.278-4.8,3.117.728-1.252,4.7c.837.179,1.679.359,2.5.55l1.244-4.671,3.119.728-1.277,4.8C625.866,419.522,628.746,421.426,628.18,424.969Z" transform="translate(-225.233 -180.42)" fill="#304d71"/>
    <path id="Path_105" data-name="Path 105" d="M224.99,801.948c-2.157,18.367-115.408,16.825-115.236,0C111.911,783.581,225.162,785.123,224.99,801.948Z" transform="translate(-109.753 -304.473)" fill="#e6e6e6"/>
    <path id="Path_106" data-name="Path 106" d="M103.754,663.177l4.591,9.313,8.416-.716,5.356-16.477L113.7,651Z" transform="translate(-25.094 -211.938)" fill="#ffb8b8"/>
    <path id="Path_107" data-name="Path 107" d="M65.584,698.1l-.181,6.49,13.007.716v-7.88Z" transform="translate(-15.818 -225.41)" fill="#ffb8b8"/>
    <path id="Path_108" data-name="Path 108" d="M69.994,527.808l3.061,57.31L65.4,647.443l22.954,2.866,14.538-78.8,4.591-53.729Z" transform="translate(-15.818 -173.28)" fill="#2f2e41"/>
    <path id="Path_109" data-name="Path 109" d="M133.074,564.685s-9.182,56.594,9.947,75.22,45.144,51.58,45.144,51.58l18.364-21.491-46.674-46.565,9.182-31.521,37.492-16.477-6.121-39.4-55.091-.716Z" transform="translate(-114.861 -230.932)" fill="#2f2e41"/>
    <ellipse id="Ellipse_8" data-name="Ellipse 8" cx="16.833" cy="15.76" rx="16.833" ry="15.76" transform="translate(46.524 185.26)" fill="#ffb8b8"/>
    <path id="Path_110" data-name="Path 110" d="M172.509,374.843s-.765,22.208-4.591,25.073,13.773,15.044,13.773,15.044l11.477-17.193V382.007Z" transform="translate(-123.689 -171.298)" fill="#ffb8b8"/>
    <path id="Path_111" data-name="Path 111" d="M67.407,337.81l-9.289-13.133-5.249,6.686-7.651,20.059,6.121,78.085,35.962.716,4.591-89.548L80.415,327.781Z" transform="translate(-10.936 -106.611)" fill="#d0cde1"/>
    <path id="Path_112" data-name="Path 112" d="M233.27,424l6.121-.716s1.53.716,2.3,5.731,9.947,49.431,9.947,49.431l-12.242,54.445L225.619,515.7l8.417-30.088-8.417-30.088Z" transform="translate(-137.776 -188.855)" fill="#2f2e41"/>
    <path id="Path_113" data-name="Path 113" d="M17.889,349.234H13.3L1.821,407.261l10.712,45.133,10.712-16.477-3.061-17.909,1.531-15.76,5.356-9.314Z" transform="translate(-0.44 -114.601)" fill="#2f2e41"/>
    <path id="Path_114" data-name="Path 114" d="M221.125,743.384s-4.591-1.433-4.591,1.433,3.061,11.462,3.061,11.462-4.591,26.506,2.3,25.073,12.242-13.611,13.008-17.193,4.591-22.208,4.591-22.208,6.121-13.611,2.3-14.328-14.538-3.582-14.538-3.582S233.368,741.951,221.125,743.384Z" transform="translate(-135.579 -285.697)" fill="#2f2e41"/>
    <path id="Path_115" data-name="Path 115" d="M187.6,781.084s-12.242-7.164-14.538-1.433A56.944,56.944,0,0,0,170,792.546s-3.061,9.313,9.182,7.88,10.712-1.433,11.477-5.731S187.6,781.084,187.6,781.084Z" transform="translate(-124.242 -301.189)" fill="#2f2e41"/>
    <path id="Path_116" data-name="Path 116" d="M176.774,359.812l3.061-.716s2.3-12.178,7.651-10.746,19.129,2.866,19.129-2.866-13.007-10.746-20.659-10.029-20.659,2.866-19.894,13.611,5.7,21.2,5.7,21.2l.4-6.371Z" transform="translate(-123.364 -158.451)" fill="#2f2e41"/>
    <path id="Path_117" data-name="Path 117" d="M87.493,347.676l-13.007-8.6L87.493,329.05l4.516,5.073Z" transform="translate(-18.015 -105.927)" fill="#d0cde1"/>
    <path id="Path_118" data-name="Path 118" d="M58.371,345.788l11.477-7.88-9.182-12.895L55.31,331.46Z" transform="translate(-13.377 -104.671)" fill="#d0cde1"/>
    <path id="Path_119" data-name="Path 119" d="M213.623,416.99l-24.485-9.313-5.739-3.94-17.216,71.28L154.707,442.78l3.443-41.192-31.754,15.4L137.109,465.7l1.53,18.626-4.591,15.044s-16.068,10.746-10.712,22.208,11.477,12.179,11.477,12.179,26.015-22.924,27.545-28.655,3.826-15.76,3.826-15.76,13.008,45.849,28.31,45.132,15.3-15.76,15.3-15.76l-3.826-15.76-6.121-16.477,3.061-27.223Z" transform="translate(-112.774 -182.456)" fill="#2f2e41"/>
  </g>
</svg>
