<svg xmlns="http://www.w3.org/2000/svg" width="204.752" height="333.88" viewBox="0 0 51.188 83.47">
  <defs>
    <style>
      .cls-1 {
        fill: #fff;
        fill-rule: evenodd;
      }
    </style>
  </defs>
  <path class="cls-1" d="M664.437,2490.15a1.533,1.533,0,0,0,1.812.04q11.862-7.065,23.762-14.08c1.106-.66,1.105-0.66.452-1.74q-12.254-20.37-24.509-40.72c-0.548-.91-0.591-0.92-1.143,0q-7.265,12.06-14.528,24.13-5.265,8.73-10.543,17.47v0.35c0.236,0.11.482,0.2,0.705,0.33Q652.447,2483.04,664.437,2490.15Zm25.581-9.4q-11.922,7.05-23.837,14.11a1.37,1.37,0,0,1-1.592.06q-9.242-5.52-18.514-10.96c-2.1-1.24-4.13-2.6-6.335-3.65v0.18c1.432,1.75,2.671,3.65,3.981,5.49q10.464,14.73,20.9,29.49a10.979,10.979,0,0,1,.571.97h0.349c0.131-.23.247-0.46,0.4-0.67q11.944-16.86,23.891-33.71c0.36-.5.7-1.03,1.111-1.64A1.479,1.479,0,0,0,690.018,2480.75Z" transform="translate(-639.75 -2432.97)"/>
</svg>
