<svg xmlns="http://www.w3.org/2000/svg" xmlns:xlink="http://www.w3.org/1999/xlink" width="351.744" height="363.544" viewBox="0 0 351.744 363.544">
  <defs>
    <linearGradient id="linear-gradient" x1="0.5" y1="1" x2="0.5" gradientUnits="objectBoundingBox">
      <stop offset="0" stop-color="gray" stop-opacity="0.251"/>
      <stop offset="0.54" stop-color="gray" stop-opacity="0.122"/>
      <stop offset="1" stop-color="gray" stop-opacity="0.102"/>
    </linearGradient>
    <linearGradient id="linear-gradient-2" x1="0.5" y1="1" x2="0.5" y2="0" xlink:href="#linear-gradient"/>
  </defs>
  <g id="ethereum" transform="translate(-0.03 -0.029)">
    <path id="Path_622" data-name="Path 622" d="M555.433,725.411c-3.294,1.7-6.746,3.165-10.151,4.627-12.581,5.312-25.351,10.67-38.866,12.493-25.365,3.419-51.562-5.839-76.5-.079-20.89,4.821-38.167,19.595-58.576,26.174a95.168,95.168,0,0,1-29.325,4.257h-1.3q-1.851-.023-3.674-.093a199.5,199.5,0,0,1-30.144-3.785c-31.264-6.015-63.083-17.041-86.985-37.339C289.508,718.934,432.872,699.413,555.433,725.411Z" transform="translate(-219.88 -409.31)" fill="#252223" opacity="0.1"/>
    <path id="Path_623" data-name="Path 623" d="M740.012,599.714s-11.414-38.755,2.142-67.266a61.2,61.2,0,0,0,4.951-38.4A102.951,102.951,0,0,0,741.668,476" transform="translate(-496.923 -282.187)" fill="none" stroke="#535461" stroke-miterlimit="10" stroke-width="2"/>
    <path id="Path_624" data-name="Path 624" d="M747.02,426.839c0,4.752-8.6,18.508-8.6,18.508s-8.6-13.774-8.6-18.508a8.6,8.6,0,1,1,17.2,0Z" transform="translate(-493.858 -251.043)" fill="#6c63ff"/>
    <path id="Path_625" data-name="Path 625" d="M777.686,478.709C775.1,482.7,760.4,489.582,760.4,489.582s.268-16.236,2.85-20.224a8.6,8.6,0,0,1,14.436,9.346Z" transform="translate(-510.292 -276.605)" fill="#6c63ff"/>
    <path id="Path_626" data-name="Path 626" d="M772.709,572.183c-4.243,2.138-20.409.662-20.409.662s8.426-13.881,12.668-16.018a8.6,8.6,0,1,1,7.746,15.358Z" transform="translate(-505.939 -325.12)" fill="#6c63ff"/>
    <path id="Path_627" data-name="Path 627" d="M755.607,646.361c-3.817,2.822-20.007,4.1-20.007,4.1s5.959-15.1,9.777-17.929a8.6,8.6,0,1,1,10.23,13.83Z" transform="translate(-496.966 -365.387)" fill="#6c63ff"/>
    <path id="Path_628" data-name="Path 628" d="M718.494,502.436c3.405,3.308,19.262,6.751,19.262,6.751s-3.887-15.764-7.292-19.077a8.6,8.6,0,0,0-11.984,12.335Z" transform="translate(-486.445 -288.538)" fill="#6c63ff"/>
    <path id="Path_629" data-name="Path 629" d="M696.411,586.473c4.243,2.138,20.409.662,20.409.662s-8.426-13.881-12.668-16.018a8.6,8.6,0,1,0-7.746,15.358Z" transform="translate(-473.365 -332.798)" fill="#6c63ff"/>
    <path id="Path_630" data-name="Path 630" d="M690.411,673.521c3.817,2.822,20.007,4.1,20.007,4.1s-5.959-15.1-9.777-17.929a8.6,8.6,0,1,0-10.23,13.83Z" transform="translate(-470.812 -379.98)" fill="#6c63ff"/>
    <path id="Path_631" data-name="Path 631" d="M747.02,426.839c0,4.752-8.6,18.508-8.6,18.508s-8.6-13.774-8.6-18.508a8.6,8.6,0,1,1,17.2,0Z" transform="translate(-493.858 -251.043)" opacity="0.25"/>
    <path id="Path_632" data-name="Path 632" d="M777.686,478.709C775.1,482.7,760.4,489.582,760.4,489.582s.268-16.236,2.85-20.224a8.6,8.6,0,0,1,14.436,9.346Z" transform="translate(-510.292 -276.605)" opacity="0.25"/>
    <path id="Path_633" data-name="Path 633" d="M772.709,572.183c-4.243,2.138-20.409.662-20.409.662s8.426-13.881,12.668-16.018a8.6,8.6,0,1,1,7.746,15.358Z" transform="translate(-505.939 -325.12)" opacity="0.25"/>
    <path id="Path_634" data-name="Path 634" d="M755.607,646.361c-3.817,2.822-20.007,4.1-20.007,4.1s5.959-15.1,9.777-17.929a8.6,8.6,0,1,1,10.23,13.83Z" transform="translate(-496.966 -365.387)" opacity="0.25"/>
    <path id="Path_635" data-name="Path 635" d="M718.494,502.436c3.405,3.308,19.262,6.751,19.262,6.751s-3.887-15.764-7.292-19.077a8.6,8.6,0,0,0-11.984,12.335Z" transform="translate(-486.445 -288.538)" opacity="0.25"/>
    <path id="Path_636" data-name="Path 636" d="M696.411,586.473c4.243,2.138,20.409.662,20.409.662s-8.426-13.881-12.668-16.018a8.6,8.6,0,1,0-7.746,15.358Z" transform="translate(-473.365 -332.798)" opacity="0.25"/>
    <path id="Path_637" data-name="Path 637" d="M690.411,673.521c3.817,2.822,20.007,4.1,20.007,4.1s-5.959-15.1-9.777-17.929a8.6,8.6,0,1,0-10.23,13.83Z" transform="translate(-470.812 -379.98)" opacity="0.25"/>
    <path id="Path_638" data-name="Path 638" d="M311.062,629.068s-11.415-38.75,2.142-67.279a61.2,61.2,0,0,0,4.951-38.4,102.946,102.946,0,0,0-5.437-18.045" transform="translate(-266.443 -297.952)" fill="none" stroke="#535461" stroke-miterlimit="10" stroke-width="2"/>
    <path id="Path_639" data-name="Path 639" d="M318.11,456.21c0,4.752-8.6,18.508-8.6,18.508s-8.6-13.774-8.6-18.508a8.6,8.6,0,1,1,17.2,0Z" transform="translate(-263.4 -266.826)" fill="#6c63ff"/>
    <path id="Path_640" data-name="Path 640" d="M348.736,507.659c-2.582,3.988-17.286,10.873-17.286,10.873s.268-16.236,2.85-20.224a8.6,8.6,0,1,1,14.436,9.346Z" transform="translate(-279.812 -291.965)" fill="#6c63ff"/>
    <path id="Path_641" data-name="Path 641" d="M343.769,601.553c-4.243,2.138-20.409.662-20.409.662s8.426-13.881,12.668-16.018a8.6,8.6,0,1,1,7.746,15.358Z" transform="translate(-275.465 -340.901)" fill="#6c63ff"/>
    <path id="Path_642" data-name="Path 642" d="M326.667,675.731c-3.817,2.822-20.007,4.1-20.007,4.1s5.959-15.1,9.777-17.929a8.6,8.6,0,1,1,10.23,13.83Z" transform="translate(-266.492 -381.168)" fill="#6c63ff"/>
    <path id="Path_643" data-name="Path 643" d="M289.566,531.79c3.405,3.308,19.28,6.737,19.28,6.737s-3.887-15.764-7.292-19.077a8.6,8.6,0,0,0-11.984,12.335Z" transform="translate(-255.986 -304.303)" fill="#6c63ff"/>
    <path id="Path_644" data-name="Path 644" d="M267.729,615.956c4.243,2.138,20.409.662,20.409.662s-8.426-13.881-12.668-16.018a8.6,8.6,0,0,0-7.741,15.357Z" transform="translate(-243.135 -348.692)" fill="#6c63ff"/>
    <path id="Path_645" data-name="Path 645" d="M261.461,702.88c3.817,2.822,20.007,4.1,20.007,4.1s-5.959-15.1-9.777-17.938a8.6,8.6,0,1,0-10.23,13.83Z" transform="translate(-240.332 -395.75)" fill="#6c63ff"/>
    <path id="Path_646" data-name="Path 646" d="M318.11,456.21c0,4.752-8.6,18.508-8.6,18.508s-8.6-13.774-8.6-18.508a8.6,8.6,0,1,1,17.2,0Z" transform="translate(-263.4 -266.826)" opacity="0.25"/>
    <path id="Path_647" data-name="Path 647" d="M348.736,507.659c-2.582,3.988-17.286,10.873-17.286,10.873s.268-16.236,2.85-20.224a8.6,8.6,0,1,1,14.436,9.346Z" transform="translate(-279.812 -291.965)" opacity="0.25"/>
    <path id="Path_648" data-name="Path 648" d="M343.769,601.553c-4.243,2.138-20.409.662-20.409.662s8.426-13.881,12.668-16.018a8.6,8.6,0,1,1,7.746,15.358Z" transform="translate(-275.465 -340.901)" opacity="0.25"/>
    <path id="Path_649" data-name="Path 649" d="M326.667,675.731c-3.817,2.822-20.007,4.1-20.007,4.1s5.959-15.1,9.777-17.929a8.6,8.6,0,1,1,10.23,13.83Z" transform="translate(-266.492 -381.168)" opacity="0.25"/>
    <path id="Path_650" data-name="Path 650" d="M289.566,531.79c3.405,3.308,19.28,6.737,19.28,6.737s-3.887-15.764-7.292-19.077a8.6,8.6,0,0,0-11.984,12.335Z" transform="translate(-255.986 -304.303)" opacity="0.25"/>
    <path id="Path_651" data-name="Path 651" d="M267.729,615.956c4.243,2.138,20.409.662,20.409.662s-8.426-13.881-12.668-16.018a8.6,8.6,0,0,0-7.741,15.357Z" transform="translate(-243.135 -348.692)" opacity="0.25"/>
    <path id="Path_652" data-name="Path 652" d="M261.461,702.88c3.817,2.822,20.007,4.1,20.007,4.1s-5.959-15.1-9.777-17.938a8.6,8.6,0,1,0-10.23,13.83Z" transform="translate(-240.332 -395.75)" opacity="0.25"/>
    <path id="Path_653" data-name="Path 653" d="M615.113,640.089s-6.181-20.983,1.157-36.423a33.137,33.137,0,0,0,2.679-20.789,55.735,55.735,0,0,0-2.943-9.758" transform="translate(-430.919 -334.371)" fill="none" stroke="#535461" stroke-miterlimit="10" stroke-width="2"/>
    <path id="Path_654" data-name="Path 654" d="M618.929,546.592c0,2.573-4.655,10.026-4.655,10.026s-4.655-7.445-4.655-10.026a4.657,4.657,0,0,1,9.314,0Z" transform="translate(-429.276 -317.615)" fill="#6c63ff"/>
    <path id="Path_655" data-name="Path 655" d="M635.51,574.464c-1.388,2.156-9.36,5.885-9.36,5.885s.143-8.791,1.541-10.947a4.655,4.655,0,0,1,7.815,5.062Z" transform="translate(-438.158 -331.232)" fill="#6c63ff"/>
    <path id="Path_656" data-name="Path 656" d="M632.819,625.175c-2.313,1.157-11.049.356-11.049.356s4.562-7.514,6.857-8.671a4.662,4.662,0,1,1,4.192,8.328Z" transform="translate(-435.804 -357.606)" fill="#6c63ff"/>
    <path id="Path_657" data-name="Path 657" d="M623.562,665.32c-2.068,1.527-10.832,2.221-10.832,2.221s3.239-8.176,5.293-9.716a4.66,4.66,0,0,1,5.552,7.486Z" transform="translate(-430.947 -379.391)" fill="#6c63ff"/>
    <path id="Path_658" data-name="Path 658" d="M603.462,587.428c1.851,1.791,10.438,3.646,10.438,3.646s-2.11-8.555-3.961-10.327a4.655,4.655,0,0,0-6.478,6.681Z" transform="translate(-425.255 -337.811)" fill="#6c63ff"/>
    <path id="Path_659" data-name="Path 659" d="M591.509,632.915c2.313,1.157,11.049.356,11.049.356S598,625.758,595.7,624.6a4.662,4.662,0,0,0-4.192,8.328Z" transform="translate(-418.165 -361.764)" fill="#6c63ff"/>
    <path id="Path_660" data-name="Path 660" d="M588.246,680.03c2.068,1.527,10.831,2.221,10.831,2.221s-3.239-8.176-5.293-9.716a4.66,4.66,0,1,0-5.552,7.486Z" transform="translate(-416.771 -387.295)" fill="#6c63ff"/>
    <path id="Path_661" data-name="Path 661" d="M618.929,546.592c0,2.573-4.655,10.026-4.655,10.026s-4.655-7.445-4.655-10.026a4.657,4.657,0,0,1,9.314,0Z" transform="translate(-429.276 -317.615)" fill="#fff" opacity="0.5"/>
    <path id="Path_662" data-name="Path 662" d="M635.51,574.464c-1.388,2.156-9.36,5.885-9.36,5.885s.143-8.791,1.541-10.947a4.655,4.655,0,0,1,7.815,5.062Z" transform="translate(-438.158 -331.232)" fill="#fff" opacity="0.5"/>
    <path id="Path_663" data-name="Path 663" d="M632.819,625.175c-2.313,1.157-11.049.356-11.049.356s4.562-7.514,6.857-8.671a4.662,4.662,0,1,1,4.192,8.328Z" transform="translate(-435.804 -357.606)" fill="#fff" opacity="0.5"/>
    <path id="Path_664" data-name="Path 664" d="M623.562,665.32c-2.068,1.527-10.832,2.221-10.832,2.221s3.239-8.176,5.293-9.716a4.66,4.66,0,0,1,5.552,7.486Z" transform="translate(-430.947 -379.391)" fill="#fff" opacity="0.5"/>
    <path id="Path_665" data-name="Path 665" d="M603.462,587.428c1.851,1.791,10.438,3.646,10.438,3.646s-2.11-8.555-3.961-10.327a4.655,4.655,0,0,0-6.478,6.681Z" transform="translate(-425.255 -337.811)" fill="#fff" opacity="0.5"/>
    <path id="Path_666" data-name="Path 666" d="M591.509,632.915c2.313,1.157,11.049.356,11.049.356S598,625.758,595.7,624.6a4.662,4.662,0,0,0-4.192,8.328Z" transform="translate(-418.165 -361.764)" fill="#fff" opacity="0.5"/>
    <path id="Path_667" data-name="Path 667" d="M588.246,680.03c2.068,1.527,10.831,2.221,10.831,2.221s-3.239-8.176-5.293-9.716a4.66,4.66,0,1,0-5.552,7.486Z" transform="translate(-416.771 -387.295)" fill="#fff" opacity="0.5"/>
    <path id="Path_668" data-name="Path 668" d="M306.01,101.75v51.909l24.023-30.889" transform="translate(-164.407 -54.656)" fill="none" stroke="#535461" stroke-miterlimit="10" stroke-width="2"/>
    <line id="Line_12" data-name="Line 12" x2="24.453" y2="35.608" transform="translate(117.15 63.395)" fill="none" stroke="#535461" stroke-miterlimit="10" stroke-width="2"/>
    <g id="Group_58" data-name="Group 58" transform="translate(96.829 0.029)" opacity="0.7">
      <path id="Path_669" data-name="Path 669" d="M518.081,98.141a19.331,19.331,0,0,0-25.3-18.373,23.223,23.223,0,0,0,.245-3.28A19.322,19.322,0,0,0,454.434,75.1,19.331,19.331,0,0,0,429.12,93.473c0,9.716,7.139,23.481,16.449,25.911l1.448.828-.787,2.693h4.655l-1-2.688,1.439-.824c7.19-1.888,13.089-10.549,15.4-18.859a14.117,14.117,0,0,0,4.123,1.874l1.448.828-.787,2.693h4.655l-1.013-2.7,1.439-.824a13.48,13.48,0,0,0,3.072-1.245c1.245,9.323,7.866,20.7,16.236,22.9l1.448.828-.787,2.693h4.655l-1.013-2.7,1.439-.824C510.96,121.623,518.081,107.835,518.081,98.141Z" transform="translate(-429.12 -57.179)" fill="url(#linear-gradient)"/>
    </g>
    <path id="Path_670" data-name="Path 670" d="M252.642,136.832h-4.5l.787-2.7h2.7Z" transform="translate(-133.312 -72.054)" fill="#6c63ff"/>
    <path id="Path_671" data-name="Path 671" d="M469.574,113.827c0,10.327-8.37,25.448-18.7,25.448s-18.7-15.13-18.7-25.448a18.7,18.7,0,1,1,37.392,0Z" transform="translate(-333.935 -77.542)" fill="#6c63ff"/>
    <path id="Path_672" data-name="Path 672" d="M469.574,113.827c0,10.327-8.37,25.448-18.7,25.448s-18.7-15.13-18.7-25.448a18.7,18.7,0,1,1,37.392,0Z" transform="translate(-333.935 -77.542)" fill="#fff" opacity="0.2"/>
    <path id="Path_673" data-name="Path 673" d="M250.71,133.332h-2.7l-1.578-.9h5.858Z" transform="translate(-132.394 -71.141)" fill="#535461"/>
    <path id="Path_674" data-name="Path 674" d="M447.539,104.13s-7.866,4.28-9.009,12.84" transform="translate(-337.347 -82.377)" fill="#fff" opacity="0.1"/>
    <path id="Path_675" data-name="Path 675" d="M305.482,101.312h-4.5l.787-2.7h2.7Z" transform="translate(-161.704 -52.969)" fill="#6c63ff"/>
    <path id="Path_676" data-name="Path 676" d="M305.482,101.312h-4.5l.787-2.7h2.7Z" transform="translate(-161.704 -52.969)" opacity="0.07"/>
    <path id="Path_677" data-name="Path 677" d="M522.464,78.287c0,10.327-8.37,25.448-18.7,25.448s-18.7-15.13-18.7-25.448a18.7,18.7,0,1,1,37.392,0Z" transform="translate(-362.354 -58.445)" fill="#6c63ff"/>
    <path id="Path_678" data-name="Path 678" d="M303.55,97.808h-2.7l-1.578-.9h5.858Z" transform="translate(-160.785 -52.055)" fill="#535461"/>
    <path id="Path_679" data-name="Path 679" d="M500.409,68.61s-7.866,4.28-9.009,12.84" transform="translate(-365.755 -63.292)" fill="#fff" opacity="0.1"/>
    <path id="Path_680" data-name="Path 680" d="M357.877,146.6H353.37l.791-2.7h2.7Z" transform="translate(-189.854 -77.304)" fill="#6c63ff"/>
    <path id="Path_681" data-name="Path 681" d="M574.855,123.587c0,10.327-8.37,25.448-18.7,25.448s-18.7-15.13-18.7-25.448a18.7,18.7,0,1,1,37.392,0Z" transform="translate(-390.503 -82.786)" fill="#6c63ff"/>
    <path id="Path_682" data-name="Path 682" d="M574.855,123.587c0,10.327-8.37,25.448-18.7,25.448s-18.7-15.13-18.7-25.448a18.7,18.7,0,1,1,37.392,0Z" transform="translate(-390.503 -82.786)" fill="#fff" opacity="0.2"/>
    <path id="Path_683" data-name="Path 683" d="M355.95,143.1h-2.7l-1.578-.9h5.858Z" transform="translate(-188.94 -76.39)" fill="#535461"/>
    <path id="Path_684" data-name="Path 684" d="M552.809,113.9s-7.866,4.28-9.009,12.84" transform="translate(-393.91 -87.627)" fill="#fff" opacity="0.1"/>
    <path id="Path_685" data-name="Path 685" d="M577.7,140.03l-6.431,3.928-6.436-3.928L571.266,129Zm-6.431,5.191-6.436-3.928,6.436,9.374,6.436-9.374Z" transform="translate(-405.21 -95.74)" opacity="0.2"/>
    <path id="Path_686" data-name="Path 686" d="M524.853,91.81l-6.431,3.928L512,91.81l6.436-11.04ZM518.422,97,512,93.068l6.436,9.374,6.436-9.374L518.436,97Z" transform="translate(-376.823 -69.826)" opacity="0.2"/>
    <path id="Path_687" data-name="Path 687" d="M470.137,130.75l-6.431,3.928-6.436-3.928,6.436-11.04Zm-6.431,5.191-6.436-3.928,6.436,9.374,6.436-9.374Z" transform="translate(-347.416 -90.749)" opacity="0.2"/>
    <path id="Path_688" data-name="Path 688" d="M478.64,506.457c-3.239-.74-5.9-4.627-5.9-4.627l-.264.042,3.193-42.387s3.387-6.158,0-15.093c-.676-1.777-1.309-3.641-1.9-5.487l.514-.213-.1-.574.1-.042s-9.851-53.986-9.943-71.559a11.13,11.13,0,0,1,.569-4.368c1.555-2.966,4.34-7.232,4.224-12.557.1-5.2-2.5-11.452-11.845-18.508.745-5.922,2.582-18.392,5.774-26.836a41.964,41.964,0,0,0,0-13.881l-1.851-23.407s.31-10.781-6.478-10.781.31,12.03.31,12.03l-.615,30.491s-.2,1.578-.551,4.058a12,12,0,0,0-6.2-3.725,7.4,7.4,0,0,0-.463-3.28c-.139.088-.282.167-.426.245-.056-.185-.12-.37-.19-.551a9.253,9.253,0,0,1-4.807,1.388c-1.555,0-3.081-.375-4.627-.49a13.529,13.529,0,0,0-7.537,1.68c-.319-.032-.643-.074-.967-.12-6.061-.925-10.276,6.8-16.347,9.962-4.257,2.216-5.978,7.4-6.644,12.15s-.745,9.8-3.239,13.922c-1.693,2.813-5.483,4.437-6.2,7.639-1.388,6.246.153,4.706,1.693,13.02.509,2.748,1.171,3.845,1.818,6.566.7,2.933-.074,6.015-.18,9.013-.268,7.9,4.812,15.523,11.868,18.919a18.744,18.744,0,0,0,5.677,1.92,16.148,16.148,0,0,1-4.187,9.471,7.028,7.028,0,0,0,.713.2l-.1.106c4.072,1.333,8.569-.208,12.159-2.549a28.231,28.231,0,0,0,2.994-2.258,26.986,26.986,0,0,0-1.351,4.035l-.028.028-.74-.18s.213.12.6.315c-2.045,1.9-22.112,20.418-29.825,23.958-1.7.037-7.25,9.943,7.2,13.46,11.4,2.776,13.881-1.231,19.711,5.853a14.181,14.181,0,0,0,6.117,4.141c-1.666,5.312-4.3,11.979-7.352,13.418-5.238,2.466-13.881,15.4-14.806,20.021l-7.736,16.486h-.143l-1.569,1.68a2.818,2.818,0,0,0,1.013,4.539c4.47,1.781,11.743,4.252,15.033,3.021,4.928-1.851-2.776-3.7-2.776-3.7-3.081-1.231-4.627-5.238-4.627-5.238l24.791-28.182s9.716-3.766,11.7-11.7c.125-.5,1.587-4.4,3.271-8.823,1.573-.116,3.068-.268,4.428-.416a27.588,27.588,0,0,0,7.459-2.263c1.605,5.427,2.984,11.313,2.4,13.964-1.231,5.552-2.776,12.627,0,21.867l4.775,20.483h.435l-.49.074-1.272,1.883a2.836,2.836,0,0,0,1.73,4.358c4.7,1.064,12.229,2.364,15.269.639C486.547,507.087,478.64,506.457,478.64,506.457Zm-40.6-151.16a55.468,55.468,0,0,1,.1-6.7,81.435,81.435,0,0,0,2.11,12.03,22.148,22.148,0,0,1,2.128,9.064,18.045,18.045,0,0,1-4.59,11.877l-.028.028c2.286-8.5.671-17.5.282-26.3Z" transform="translate(-313.893 -164.076)" fill="url(#linear-gradient-2)"/>
    <path id="Path_689" data-name="Path 689" d="M441.738,424.425c-2.656,4.493-2.175,12.705,1.513,27.724,0,0,4.215,11.442-4.215,21.075S428.8,491.269,428.8,491.269s-26.466,16.4-29.806,23.782c4.969-10.989-11.345,4.743,7.528,9.332,11.137,2.711,13.548-1.2,19.266,5.719s18.665,6.015,26.794,5.117,21.978-10.535,21.978-10.535-15.352-64.726-12.03-71.05c3.132-5.983,14.4-17.351-7.671-32.074A9.287,9.287,0,0,0,441.738,424.425Z" transform="translate(-315.112 -252.09)" fill="#f0898b"/>
    <path id="Path_690" data-name="Path 690" d="M441.64,424.425c-2.656,4.493-2.175,12.705,1.513,27.724,0,0,4.215,11.442-4.215,21.075S428.7,491.269,428.7,491.269s-26.637,16.324-29.806,23.782c4.669-10.989-11.345,4.743,7.528,9.332,11.137,2.711,13.548-1.2,19.266,5.719s18.665,6.015,26.794,5.117,21.978-10.535,21.978-10.535-15.352-64.726-12.03-71.05c3.132-5.983,14.4-17.351-7.671-32.074A9.287,9.287,0,0,0,441.64,424.425Z" transform="translate(-315.014 -252.09)" opacity="0.1"/>
    <path id="Path_691" data-name="Path 691" d="M439.817,645.868s-3.914,17.462-9.032,19.868-13.548,15.051-14.45,19.567L408.66,701.71h6.94l24.217-27.539s9.5-3.7,11.442-11.442c.3-1.2,8.43-22.278,8.43-22.278Z" transform="translate(-321.298 -370.548)" fill="#fdb797"/>
    <path id="Path_692" data-name="Path 692" d="M524.76,628.221s7.227,19.266,6.015,24.689-2.711,12.345,0,21.376l4.669,20.021,6.015-.3,3.16-42s3.313-6.015,0-14.75A167.833,167.833,0,0,1,538.9,617.69Z" transform="translate(-383.679 -358.319)" fill="#fdb797"/>
    <path id="Path_693" data-name="Path 693" d="M517.512,338.879s1.8-18.364,6.015-29.506a40.9,40.9,0,0,0,0-13.548l-1.8-22.88s.3-10.535-6.32-10.535.3,11.743.3,11.743l-.6,29.806s-3.914,30.408-6.621,33.721Z" transform="translate(-374.932 -167.423)" fill="#fdb797"/>
    <path id="Path_694" data-name="Path 694" d="M517.512,338.879s1.8-18.364,6.015-29.506a40.9,40.9,0,0,0,0-13.548l-1.8-22.88s.3-10.535-6.32-10.535.3,11.743.3,11.743l-.6,29.806s-3.914,30.408-6.621,33.721Z" transform="translate(-374.932 -167.423)" opacity="0.05"/>
    <path id="Path_695" data-name="Path 695" d="M509.382,380.83s-1.2,14.45,2.411,19.266c0,0-8.43-4.516-15.653-.6,0,0,4.516-12.345,3.012-17.763Z" transform="translate(-368.302 -231.051)" fill="#fdb797"/>
    <path id="Path_696" data-name="Path 696" d="M443.228,417.916c-2.656,4.493-3.984,12.705-.3,27.724,0,0,6.015,11.442-2.411,21.075s-10.235,18.045-10.235,18.045-22.278,20.775-29.806,23.782c0,0-3.614,6.621,7.528,9.332s13.548-1.2,19.266,5.719,18.665,6.015,26.794,5.117,22.126-6.774,22.126-6.774S463.7,453.46,467.01,447.126c3.132-5.983,11.387-17.351-10.679-32.074A9.273,9.273,0,0,0,443.228,417.916Z" transform="translate(-316.602 -248.594)" opacity="0.1"/>
    <path id="Path_697" data-name="Path 697" d="M443.228,416.615c-2.656,4.493-3.984,12.705-.3,27.724,0,0,6.015,11.442-2.411,21.075s-10.235,18.045-10.235,18.045-22.278,20.775-29.806,23.782c0,0-3.614,6.621,7.528,9.332s13.548-1.2,19.266,5.719,18.665,6.015,26.794,5.117,22.126-6.774,22.126-6.774-12.493-68.478-9.184-74.812c3.132-5.983,11.387-17.351-10.679-32.074A9.269,9.269,0,0,0,443.228,416.615Z" transform="translate(-316.602 -247.894)" fill="#f0898b"/>
    <circle id="Ellipse_2723" data-name="Ellipse 2723" cx="10.235" cy="10.235" r="10.235" transform="translate(125.428 165.741)" fill="#fdb797"/>
    <path id="Path_698" data-name="Path 698" d="M502.8,441.82l-2.105,31.611,6.94,33.721s-6.32,22.278,0,20.169,6.621-20.469,6.621-20.469l-4.229-35.211s5.117-26.494,4.215-31.925S502.8,441.82,502.8,441.82Z" transform="translate(-370.746 -261.634)" opacity="0.1"/>
    <path id="Path_699" data-name="Path 699" d="M502.8,440.507l-2.105,31.611,6.94,33.721s-6.334,22.278-.018,20.15,6.64-20.451,6.64-20.451l-4.215-35.224s5.117-26.494,4.215-31.926S502.8,440.507,502.8,440.507Z" transform="translate(-370.746 -260.922)" fill="#fdb797"/>
    <path id="Path_700" data-name="Path 700" d="M501.929,391.318c4.261,0,8.139-1.217,10.179-4.627.028-2.66.19-4.571.19-4.571l-10.235.925c.648,2.313.292,4.312-.463,7.676C501.817,390.717,501.739,391.318,501.929,391.318Z" transform="translate(-371.235 -231.745)" opacity="0.03"/>
    <circle id="Ellipse_2724" data-name="Ellipse 2724" cx="11.743" cy="11.743" r="11.743" transform="translate(119.103 136.536)" fill="#fdb797"/>
    <path id="Path_701" data-name="Path 701" d="M530.29,475.51s.925,4.516,6.774,4.969" transform="translate(-386.651 -281.924)" opacity="0.03"/>
    <path id="Path_702" data-name="Path 702" d="M429.052,522.33c-5.719-6.94-8.129-3.012-19.266-5.719s-7.546-9.332-7.546-9.332c7.528-3.012,29.806-23.782,29.806-23.782s1.8-8.43,10.235-18.045,2.411-21.075,2.411-21.075c-3.7-15.014-2.364-23.232.3-27.724a9.05,9.05,0,0,1,6.973-4.391,9.124,9.124,0,0,0-8.791,4.391c-2.656,4.493-3.984,12.705-.3,27.724,0,0,6.015,11.442-2.411,21.075S430.227,483.5,430.227,483.5s-22.278,20.775-29.806,23.782c0,0-3.614,6.621,7.528,9.332s13.548-1.2,19.266,5.719c3.956,4.789,11.364,5.834,18.248,5.723C439.152,527.952,432.661,526.7,429.052,522.33Z" transform="translate(-316.57 -247.912)" opacity="0.03"/>
    <path id="Path_703" data-name="Path 703" d="M451.8,374.224a9.465,9.465,0,0,0-1.8-2.087c-1.985-2.253-1.643-5.631-1.758-8.634a23.522,23.522,0,0,0-1.892-8.328,7.069,7.069,0,0,0,1.911-1.388A7.5,7.5,0,0,0,449.8,346a9.046,9.046,0,0,1-4.7,1.36c-1.518,0-3.012-.366-4.53-.463a13.228,13.228,0,0,0-7.371,1.642c-.315-.032-.629-.069-.925-.12-5.927-.9-10.045,6.649-15.977,9.74-4.164,2.17-5.844,7.232-6.478,11.877s-.731,9.587-3.146,13.608c-1.656,2.748-5.363,4.335-6.057,7.468-1.356,6.107.148,4.6,1.652,12.729.5,2.688,1.143,3.762,1.777,6.417.685,2.869-.074,5.862-.176,8.791-.329,9.679,7.56,18.947,17.17,20.164a15.782,15.782,0,0,1-4.113,9.467c3.979,1.3,8.379-.2,11.886-2.494A28.478,28.478,0,0,0,440.5,430.209c2.364-8.393.736-17.314.361-26.026s1-18.4,7.625-24.06C450.331,378.532,452.793,376.45,451.8,374.224Z" transform="translate(-316.691 -212.337)" opacity="0.1"/>
    <path id="Path_704" data-name="Path 704" d="M450.5,373.583a9.464,9.464,0,0,0-1.8-2.087c-1.985-2.253-1.643-5.631-1.758-8.634a23.522,23.522,0,0,0-1.892-8.328,7.069,7.069,0,0,0,1.911-1.388,7.5,7.5,0,0,0,1.541-7.8,9.045,9.045,0,0,1-4.7,1.36c-1.518,0-3.012-.366-4.53-.463a13.228,13.228,0,0,0-7.371,1.643c-.315-.032-.629-.069-.925-.12-5.927-.9-10.045,6.649-15.977,9.74-4.164,2.17-5.844,7.232-6.478,11.877s-.731,9.587-3.146,13.608c-1.656,2.748-5.363,4.335-6.057,7.468-1.356,6.107.148,4.6,1.652,12.729.5,2.688,1.143,3.762,1.777,6.418.685,2.869-.074,5.862-.176,8.791-.329,9.679,7.56,18.947,17.17,20.164a15.782,15.782,0,0,1-4.113,9.467c3.979,1.3,8.379-.2,11.886-2.494a28.478,28.478,0,0,0,11.729-15.967c2.364-8.393.736-17.314.361-26.026s1-18.4,7.625-24.06C449.031,377.882,451.493,375.8,450.5,373.583Z" transform="translate(-315.992 -211.988)" fill="#252223"/>
    <path id="Path_705" data-name="Path 705" d="M412.915,772.511s1.5,3.914,4.516,5.117c0,0,7.528,1.8,2.711,3.614-3.239,1.208-10.323-1.212-14.7-2.952a2.776,2.776,0,0,1-.99-4.437l1.532-1.643Z" transform="translate(-318.649 -441.344)" fill="#333"/>
    <path id="Path_706" data-name="Path 706" d="M552.118,781.32s2.6,3.808,5.765,4.53c0,0,7.718.615,3.239,3.146-2.98,1.684-10.346.416-14.936-.625a2.776,2.776,0,0,1-1.689-4.261l1.245-1.851Z" transform="translate(-394.03 -446.239)" fill="#333"/>
    <path id="Path_707" data-name="Path 707" d="M463.92,566a31.355,31.355,0,0,0,14.751,3.614" transform="translate(-350.989 -330.545)" opacity="0.03"/>
    <path id="Path_708" data-name="Path 708" d="M211.83,262.3h-1.92l.333-1.157H211.4Z" transform="translate(-112.771 -140.298)" fill="#6c63ff" opacity="0.3"/>
    <path id="Path_709" data-name="Path 709" d="M430.474,285.253c0,4.4-3.572,10.873-7.977,10.873s-7.977-6.478-7.977-10.859a7.977,7.977,0,1,1,15.953,0Z" transform="translate(-324.446 -175.418)" fill="#6c63ff" opacity="0.3"/>
    <path id="Path_710" data-name="Path 710" d="M211.008,260.8h-1.157l-.671-.384h2.5Z" transform="translate(-112.379 -139.911)" fill="#535461"/>
    <path id="Path_711" data-name="Path 711" d="M421.055,281.11a8.006,8.006,0,0,0-3.845,5.478" transform="translate(-325.892 -177.471)" fill="#fff" opacity="0.1"/>
    <path id="Path_712" data-name="Path 712" d="M431.677,292.25l-2.744,1.675-2.744-1.675,2.744-4.71Zm-2.744,2.216-2.744-1.675,2.744,4,2.744-4Z" transform="translate(-330.717 -180.926)" opacity="0.2"/>
    <path id="Path_713" data-name="Path 713" d="M430.66,317.93a5.09,5.09,0,0,0-1.259,4.192c.421,2.517,2.517,5.034,2.1,7.967s-1.68,4.627-1.68,5.871" transform="translate(-332.41 -197.255)" fill="none" stroke="#535461" stroke-miterlimit="10" stroke-width="0.75"/>
    <path id="Path_714" data-name="Path 714" d="M659.985,316.887H658.06l.338-1.157h1.152Z" transform="translate(-353.567 -169.63)" fill="#6c63ff" opacity="0.3"/>
    <path id="Path_715" data-name="Path 715" d="M878.624,339.827c0,4.4-3.572,10.859-7.977,10.859s-7.977-6.478-7.977-10.859a7.977,7.977,0,0,1,15.953,0Z" transform="translate(-565.242 -204.734)" fill="#6c63ff" opacity="0.3"/>
    <path id="Path_716" data-name="Path 716" d="M659.163,315.394h-1.152l-.671-.384h2.5Z" transform="translate(-353.18 -169.243)" fill="#535461"/>
    <path id="Path_717" data-name="Path 717" d="M869.215,335.7a8.006,8.006,0,0,0-3.845,5.478" transform="translate(-566.693 -206.803)" fill="#fff" opacity="0.1"/>
    <path id="Path_718" data-name="Path 718" d="M879.838,346.84l-2.744,1.675-2.744-1.675,2.744-4.71Zm-2.744,2.216-2.744-1.675,2.744,4,2.744-4Z" transform="translate(-571.518 -210.258)" opacity="0.2"/>
    <path id="Path_719" data-name="Path 719" d="M878.82,372.52a5.09,5.09,0,0,0-1.259,4.192c.421,2.517,2.517,5.034,2.1,7.967s-1.68,4.627-1.68,5.872" transform="translate(-573.212 -226.586)" fill="none" stroke="#535461" stroke-miterlimit="10" stroke-width="0.75"/>
    <path id="Path_720" data-name="Path 720" d="M737.513,286.787l-1.883-.4.569-1.06,1.129.241Z" transform="translate(-395.246 -153.296)" fill="#6c63ff" opacity="0.3"/>
    <path id="Path_721" data-name="Path 721" d="M961.381,311.819c-.925,4.312-5.742,9.888-10.054,8.976s-6.478-7.967-5.552-12.275a7.976,7.976,0,1,1,15.608,3.3Z" transform="translate(-609.782 -188.798)" fill="#6c63ff" opacity="0.3"/>
    <path id="Path_722" data-name="Path 722" d="M737.3,285.074l-1.129-.236-.578-.518,2.443.518Z" transform="translate(-395.225 -152.753)" fill="#535461"/>
    <path id="Path_723" data-name="Path 723" d="M953.875,305.07a8.007,8.007,0,0,0-4.9,4.562" transform="translate(-611.618 -190.345)" fill="#fff" opacity="0.1"/>
    <path id="Path_724" data-name="Path 724" d="M962.013,317.913l-3.031,1.073-2.341-2.207,3.66-4.039Zm-3.142,1.6-2.341-2.207,1.851,4.483,3.516-3.345-3.035,1.073Z" transform="translate(-615.674 -194.466)" opacity="0.2"/>
    <path id="Path_725" data-name="Path 725" d="M953.173,342.47a5.089,5.089,0,0,0-2.1,3.84c-.111,2.549,1.42,5.446.4,8.231s-2.6,4.164-2.855,5.395" transform="translate(-611.424 -210.44)" fill="none" stroke="#535461" stroke-miterlimit="10" stroke-width="0.75"/>
  </g>
</svg>
