<svg width="150" height="50" viewBox="0 0 150 50" fill="none" xmlns="http://www.w3.org/2000/svg">
<path d="M137.932 0.000162499H12.1818C11.7234 0.000162499 11.2706 0.0001625 10.8134 0.00266249C10.4307 0.00516248 10.0511 0.012425 9.66471 0.0185374C8.82535 0.0284147 7.98797 0.102257 7.15984 0.239424C6.33287 0.379577 5.53181 0.643805 4.78375 1.02317C4.0366 1.40575 3.35391 1.90287 2.76044 2.49649C2.16386 3.08845 1.66656 3.77267 1.28767 4.52285C0.907737 5.27153 0.644288 6.07382 0.506425 6.90199C0.367252 7.72912 0.292362 8.56579 0.282426 9.40448C0.270826 9.78773 0.269601 10.1723 0.263489 10.5556V39.4483C0.269601 39.8364 0.270826 40.2124 0.282426 40.6007C0.292365 41.4393 0.367255 42.2759 0.506425 43.103C0.643907 43.9317 0.907372 44.7344 1.28767 45.4834C1.66639 46.2311 2.16376 46.9126 2.76044 47.5013C3.35166 48.0975 4.03479 48.595 4.78375 48.9746C5.53181 49.355 6.33278 49.6208 7.15984 49.7631C7.98811 49.8992 8.82541 49.9731 9.66471 49.9841C10.0511 49.9926 10.4307 49.9975 10.8134 49.9975C11.2705 50 11.7235 50 12.1818 50H137.932C138.381 50 138.837 50 139.286 49.9975C139.667 49.9975 140.058 49.9926 140.439 49.9841C141.277 49.9737 142.112 49.8998 142.939 49.7631C143.769 49.6198 144.572 49.3541 145.324 48.9746C146.072 48.5948 146.755 48.0973 147.346 47.5013C147.941 46.9103 148.439 46.2293 148.823 45.4834C149.2 44.7339 149.461 43.9312 149.596 43.103C149.736 42.2758 149.813 41.4394 149.828 40.6007C149.833 40.2124 149.833 39.8364 149.833 39.4483C149.843 38.9942 149.843 38.5425 149.843 38.081V11.9203C149.843 11.4625 149.843 11.0084 149.833 10.5556C149.833 10.1723 149.833 9.78773 149.828 9.40443C149.813 8.56566 149.736 7.72918 149.596 6.90194C149.461 6.07424 149.2 5.27202 148.823 4.5228C148.051 3.01915 146.827 1.79519 145.324 1.02306C144.572 0.64462 143.769 0.380462 142.939 0.239312C142.112 0.101541 141.277 0.0276721 140.439 0.0183624C140.058 0.0122625 139.667 0.00493748 139.286 0.00249999C138.837 0 138.381 0 137.932 0V0.000162499Z" fill="black"/>
<path d="M10.8195 48.9062C10.4387 48.9062 10.067 48.9013 9.68915 48.8928C8.90638 48.8826 8.12544 48.8145 7.35273 48.689C6.63223 48.5649 5.93424 48.334 5.28182 48.0041C4.63537 47.6769 4.04576 47.2478 3.53557 46.7333C3.018 46.2249 2.5871 45.6353 2.25994 44.9877C1.92918 44.336 1.70027 43.6374 1.58119 42.9162C1.4526 42.1414 1.38302 41.3579 1.37307 40.5725C1.36514 40.3089 1.35477 39.4311 1.35477 39.4311V10.5555C1.35477 10.5555 1.36582 9.69126 1.37313 9.43734C1.38266 8.6532 1.45183 7.87092 1.58004 7.09727C1.69934 6.37417 1.92842 5.67354 2.25936 5.01965C2.58532 4.37254 3.01383 3.78244 3.52828 3.27222C4.04216 2.75714 4.63366 2.32587 5.2812 1.99413C5.93213 1.66524 6.62879 1.43604 7.34785 1.31421C8.12309 1.18742 8.90674 1.11887 9.69223 1.10913L10.8201 1.09387H139.28L140.422 1.10975C141.2 1.119 141.977 1.18693 142.745 1.31298C143.471 1.43634 144.175 1.66714 144.833 1.99779C146.131 2.66635 147.186 3.72407 147.852 5.0227C148.178 5.67208 148.403 6.36699 148.521 7.08384C148.651 7.86384 148.723 8.65227 148.738 9.44285C148.742 9.79684 148.742 10.1771 148.742 10.5555C148.752 11.0243 148.752 11.4704 148.752 11.9202V38.081C148.752 38.5351 148.752 38.9782 148.742 39.425C148.742 39.8315 148.742 40.2039 148.737 40.5871C148.723 41.3636 148.651 42.1379 148.523 42.904C148.407 43.6303 148.179 44.3344 147.848 44.9915C147.519 45.632 147.091 46.2166 146.579 46.7236C146.068 47.2408 145.478 47.6724 144.83 48.0017C144.173 48.3342 143.47 48.5659 142.745 48.689C141.972 48.8152 141.191 48.8833 140.408 48.8928C140.042 48.9013 139.659 48.9062 139.287 48.9062L137.932 48.9087L10.8195 48.9062Z" fill="white"/>
<path d="M31.5093 24.8618C31.5233 23.7769 31.8115 22.7131 32.347 21.7695C32.8826 20.8258 33.6482 20.033 34.5725 19.4647C33.9853 18.6261 33.2107 17.936 32.3101 17.4491C31.4095 16.9622 30.4078 16.692 29.3845 16.66C27.2017 16.4309 25.0856 17.9662 23.9733 17.9662C22.8395 17.9662 21.1269 16.6828 19.2827 16.7207C18.0899 16.7593 16.9273 17.1061 15.9084 17.7275C14.8895 18.349 14.0489 19.2237 13.4685 20.2666C10.9547 24.6191 12.8298 31.0158 15.2379 34.534C16.4428 36.2568 17.8509 38.1812 19.6934 38.113C21.4964 38.0382 22.1698 36.9633 24.3461 36.9633C26.5023 36.9633 27.134 38.113 29.0139 38.0696C30.9486 38.0382 32.1676 36.3391 33.3302 34.6C34.1959 33.3725 34.862 32.0158 35.3039 30.5802C34.1799 30.1048 33.2207 29.309 32.5459 28.2922C31.8711 27.2753 31.5106 26.0823 31.5093 24.8618Z" fill="black"/>
<path d="M27.9586 14.3462C29.0135 13.0798 29.5332 11.4522 29.4073 9.80884C27.7957 9.97811 26.307 10.7484 25.2379 11.9661C24.7152 12.561 24.3148 13.2531 24.0597 14.0028C23.8046 14.7526 23.6998 15.5452 23.7512 16.3355C24.5573 16.3438 25.3548 16.169 26.0836 15.8245C26.8123 15.4799 27.4534 14.9744 27.9586 14.3462Z" fill="black"/>
<path d="M53.1406 33.9247H47.2238L45.8029 38.1202H43.2968L48.9011 22.5978H51.5048L57.1091 38.1202H54.5602L53.1406 33.9247ZM47.8366 31.9886H52.5266L50.2146 25.1796H50.1498L47.8366 31.9886Z" fill="black"/>
<path d="M69.2123 32.4623C69.2123 35.9791 67.33 38.2386 64.4894 38.2386C63.7698 38.2763 63.0542 38.1105 62.4245 37.7603C61.7947 37.4102 61.2763 36.8897 60.9286 36.2586H60.8749V41.8641H58.5519V26.8031H60.8004V28.6854H60.8431C61.2068 28.0574 61.734 27.5396 62.3685 27.1873C63.0031 26.835 63.7212 26.6613 64.4466 26.6847C67.319 26.6847 69.2123 28.9552 69.2123 32.4623ZM66.8246 32.4623C66.8246 30.171 65.6405 28.6647 63.8339 28.6647C62.059 28.6647 60.8651 30.2028 60.8651 32.4623C60.8651 34.7426 62.059 36.2696 63.8339 36.2696C65.6405 36.2696 66.8245 34.7743 66.8245 32.4623H66.8246Z" fill="black"/>
<path d="M81.6689 32.4623C81.6689 35.9791 79.786 38.2386 76.9454 38.2386C76.2259 38.2763 75.5102 38.1105 74.8805 37.7603C74.2508 37.4102 73.7323 36.8897 73.3846 36.2586H73.3309V41.8641H71.0079V26.8031H73.2564V28.6854H73.2992C73.6628 28.0574 74.19 27.5396 74.8245 27.1873C75.4591 26.835 76.1773 26.6613 76.9027 26.6847C79.775 26.6847 81.6689 28.9552 81.6689 32.4623ZM79.2806 32.4623C79.2806 30.171 78.0965 28.6647 76.2899 28.6647C74.515 28.6647 73.3212 30.2028 73.3212 32.4623C73.3212 34.7426 74.515 36.2696 76.2899 36.2696C78.0965 36.2696 79.2806 34.7743 79.2806 32.4623Z" fill="black"/>
<path d="M89.9001 33.7953C90.0722 35.3346 91.5676 36.3453 93.611 36.3453C95.569 36.3453 96.9777 35.3346 96.9777 33.9466C96.9777 32.7418 96.1281 32.0204 94.1164 31.526L92.1047 31.0414C89.2543 30.3529 87.9311 29.0199 87.9311 26.8568C87.9311 24.1786 90.2651 22.339 93.5781 22.339C96.8593 22.339 99.1078 24.1786 99.1835 26.8568H96.8385C96.6981 25.3077 95.4176 24.3727 93.5463 24.3727C91.675 24.3727 90.3944 25.3187 90.3944 26.6957C90.3944 27.7931 91.2123 28.4388 93.213 28.9332L94.9232 29.3531C98.108 30.1063 99.4301 31.3856 99.4301 33.6561C99.4301 36.5601 97.118 38.3789 93.4388 38.3789C89.9964 38.3789 87.6722 36.6028 87.5221 33.7952L89.9001 33.7953Z" fill="black"/>
<path d="M104.446 24.1249V26.8031H106.598V28.6427H104.446V34.8817C104.446 35.8509 104.877 36.3026 105.823 36.3026C106.078 36.2981 106.333 36.2802 106.587 36.2488V38.0774C106.162 38.1569 105.729 38.1929 105.297 38.1849C103.006 38.1849 102.112 37.3243 102.112 35.1294V28.6427H100.466V26.8031H102.112V24.1249H104.446Z" fill="black"/>
<path d="M107.843 32.4624C107.843 28.9016 109.94 26.6641 113.211 26.6641C116.492 26.6641 118.579 28.9016 118.579 32.4624C118.579 36.0329 116.503 38.2607 113.211 38.2607C109.92 38.2607 107.843 36.0329 107.843 32.4624ZM116.212 32.4624C116.212 30.0198 115.093 28.5781 113.211 28.5781C111.328 28.5781 110.209 30.0308 110.209 32.4624C110.209 34.9148 111.328 36.3454 113.211 36.3454C115.093 36.3454 116.212 34.9148 116.212 32.4624H116.212Z" fill="black"/>
<path d="M120.494 26.8031H122.71V28.7294H122.764C122.914 28.1278 123.266 27.5961 123.762 27.2238C124.258 26.8514 124.866 26.661 125.486 26.6847C125.754 26.6838 126.021 26.7128 126.282 26.7714V28.9442C125.944 28.841 125.591 28.7935 125.238 28.8038C124.901 28.7902 124.564 28.8497 124.252 28.9783C123.94 29.1069 123.659 29.3015 123.429 29.5489C123.199 29.7963 123.025 30.0905 122.92 30.4113C122.814 30.7321 122.779 31.072 122.817 31.4076V38.1202H120.494L120.494 26.8031Z" fill="black"/>
<path d="M136.992 34.7962C136.68 36.8507 134.679 38.2606 132.119 38.2606C128.827 38.2606 126.784 36.0548 126.784 32.516C126.784 28.9662 128.838 26.6639 132.022 26.6639C135.153 26.6639 137.122 28.8148 137.122 32.2462V33.0421H129.128V33.1825C129.092 33.599 129.144 34.0186 129.281 34.4133C129.419 34.8081 129.639 35.1691 129.927 35.4723C130.215 35.7755 130.564 36.0139 130.952 36.1718C131.339 36.3297 131.755 36.4034 132.173 36.388C132.722 36.4395 133.273 36.3123 133.744 36.0255C134.215 35.7387 134.58 35.3076 134.786 34.7962L136.992 34.7962ZM129.139 31.4186H134.797C134.818 31.0441 134.761 30.6693 134.631 30.3178C134.5 29.9663 134.298 29.6456 134.037 29.3759C133.776 29.1062 133.463 28.8933 133.116 28.7505C132.769 28.6077 132.397 28.5382 132.022 28.5463C131.643 28.544 131.268 28.6167 130.918 28.7601C130.568 28.9035 130.25 29.1149 129.982 29.3819C129.714 29.649 129.502 29.9664 129.357 30.316C129.212 30.6655 129.138 31.0403 129.139 31.4186V31.4186Z" fill="black"/>
<path d="M47.5461 10.9139C48.0331 10.8789 48.5218 10.9525 48.9769 11.1293C49.4321 11.3061 49.8423 11.5817 50.178 11.9362C50.5138 12.2907 50.7666 12.7153 50.9184 13.1794C51.0701 13.6435 51.117 14.1355 51.0556 14.6199C51.0556 17.0027 49.7677 18.3724 47.5461 18.3724H44.852V10.9139H47.5461ZM46.0104 17.3176H47.4167C47.7647 17.3384 48.1129 17.2813 48.4361 17.1506C48.7593 17.0198 49.0492 16.8186 49.2848 16.5617C49.5205 16.3047 49.6958 15.9984 49.7981 15.6652C49.9005 15.3319 49.9272 14.98 49.8764 14.6351C49.9235 14.2916 49.8941 13.9418 49.7902 13.611C49.6863 13.2802 49.5105 12.9764 49.2754 12.7215C49.0403 12.4666 48.7518 12.2668 48.4304 12.1366C48.1091 12.0063 47.7629 11.9487 47.4167 11.9679H46.0104V17.3176Z" fill="black"/>
<path d="M52.3641 15.5556C52.3288 15.1857 52.3711 14.8125 52.4884 14.4599C52.6057 14.1073 52.7954 13.7831 53.0453 13.5082C53.2952 13.2332 53.5999 13.0135 53.9397 12.8631C54.2795 12.7128 54.647 12.6351 55.0186 12.6351C55.3901 12.6351 55.7576 12.7128 56.0974 12.8631C56.4373 13.0135 56.7419 13.2332 56.9918 13.5082C57.2417 13.7831 57.4314 14.1073 57.5487 14.4599C57.666 14.8125 57.7084 15.1857 57.673 15.5556C57.709 15.9259 57.6672 16.2996 57.5502 16.6528C57.4332 17.0059 57.2437 17.3307 56.9937 17.6062C56.7437 17.8817 56.4388 18.1019 56.0987 18.2525C55.7585 18.4032 55.3906 18.4811 55.0186 18.4811C54.6465 18.4811 54.2786 18.4032 53.9385 18.2525C53.5983 18.1019 53.2934 17.8817 53.0435 17.6062C52.7935 17.3307 52.6039 17.0059 52.4869 16.6528C52.3699 16.2996 52.3281 15.9259 52.3641 15.5556ZM56.5304 15.5556C56.5304 14.3355 55.9823 13.622 55.0204 13.622C54.0548 13.622 53.5116 14.3355 53.5116 15.5556C53.5116 16.7855 54.0549 17.4935 55.0204 17.4935C55.9823 17.4935 56.5304 16.7806 56.5304 15.5556H56.5304Z" fill="black"/>
<path d="M64.7299 18.3723H63.5775L62.4142 14.2268H62.3263L61.1679 18.3723H60.0265L58.475 12.7437H59.6017L60.61 17.0386H60.693L61.8502 12.7437H62.9159L64.0731 17.0386H64.161L65.1644 12.7437H66.2753L64.7299 18.3723Z" fill="black"/>
<path d="M67.5802 12.7437H68.6495V13.6379H68.7325C68.8734 13.3167 69.1109 13.0475 69.412 12.8677C69.713 12.688 70.0627 12.6066 70.4122 12.6351C70.6861 12.6145 70.9611 12.6558 71.2168 12.7559C71.4726 12.856 71.7025 13.0124 71.8896 13.2134C72.0767 13.4145 72.2162 13.6551 72.2977 13.9173C72.3792 14.1796 72.4007 14.4569 72.3605 14.7286V18.3723H71.2496V15.0075C71.2496 14.103 70.8566 13.6531 70.035 13.6531C69.8491 13.6445 69.6635 13.6761 69.4909 13.7459C69.3183 13.8157 69.1629 13.922 69.0352 14.0574C68.9076 14.1929 68.8107 14.3544 68.7513 14.5308C68.6919 14.7072 68.6713 14.8944 68.691 15.0795V18.3724H67.5802L67.5802 12.7437Z" fill="black"/>
<path d="M74.1305 10.5464H75.2413V18.3723H74.1305V10.5464Z" fill="black"/>
<path d="M76.7855 15.5556C76.7501 15.1857 76.7925 14.8124 76.9098 14.4598C77.0271 14.1072 77.2168 13.783 77.4668 13.5081C77.7167 13.2331 78.0214 13.0134 78.3612 12.863C78.7011 12.7127 79.0686 12.635 79.4402 12.635C79.8118 12.635 80.1793 12.7127 80.5191 12.863C80.859 13.0134 81.1636 13.2331 81.4136 13.5081C81.6635 13.783 81.8533 14.1072 81.9706 14.4598C82.0879 14.8124 82.1303 15.1857 82.0949 15.5556C82.1309 15.9259 82.0891 16.2996 81.972 16.6528C81.855 17.0059 81.6654 17.3307 81.4154 17.6062C81.1654 17.8817 80.8605 18.1018 80.5203 18.2525C80.1802 18.4032 79.8122 18.481 79.4402 18.481C79.0682 18.481 78.7002 18.4032 78.3601 18.2525C78.0199 18.1018 77.715 17.8817 77.465 17.6062C77.215 17.3307 77.0254 17.0059 76.9083 16.6528C76.7913 16.2996 76.7495 15.9259 76.7855 15.5556ZM80.9517 15.5556C80.9517 14.3355 80.4036 13.622 79.4417 13.622C78.4761 13.622 77.933 14.3355 77.933 15.5556C77.933 16.7854 78.4762 17.4934 79.4417 17.4934C80.4036 17.4934 80.9517 16.7805 80.9517 15.5556H80.9517Z" fill="black"/>
<path d="M83.2643 16.7805C83.2643 15.7673 84.0187 15.1832 85.3578 15.1002L86.8825 15.0123V14.5265C86.8825 13.932 86.4894 13.5963 85.7302 13.5963C85.11 13.5963 84.6804 13.824 84.5571 14.2219H83.4816C83.5952 13.2551 84.5046 12.635 85.7814 12.635C87.1926 12.635 87.9884 13.3375 87.9884 14.5265V18.3723H86.9191V17.5813H86.8312C86.6528 17.865 86.4023 18.0963 86.1053 18.2516C85.8083 18.4069 85.4754 18.4805 85.1406 18.465C84.9043 18.4896 84.6654 18.4644 84.4395 18.391C84.2135 18.3177 84.0055 18.1977 83.8287 18.039C83.6519 17.8803 83.5104 17.6863 83.4132 17.4696C83.316 17.2528 83.2653 17.0181 83.2643 16.7805ZM86.8825 16.2995V15.829L85.508 15.9168C84.7328 15.9687 84.3813 16.2324 84.3813 16.7286C84.3813 17.2352 84.8207 17.53 85.425 17.53C85.6021 17.5479 85.7809 17.53 85.9509 17.4774C86.1209 17.4248 86.2786 17.3385 86.4146 17.2237C86.5506 17.1089 86.6621 16.968 86.7425 16.8092C86.8228 16.6504 86.8705 16.4771 86.8825 16.2995Z" fill="black"/>
<path d="M89.4484 15.5555C89.4484 13.777 90.3627 12.6503 91.7848 12.6503C92.1366 12.6341 92.4857 12.7183 92.7914 12.8932C93.097 13.0681 93.3466 13.3263 93.5109 13.6378H93.5939V10.5464H94.7047V18.3723H93.6403V17.483H93.5524C93.3754 17.7924 93.1171 18.0474 92.8056 18.2205C92.494 18.3936 92.141 18.4782 91.7848 18.465C90.3529 18.4651 89.4484 17.3384 89.4484 15.5555ZM90.5959 15.5555C90.5959 16.7494 91.1586 17.4678 92.0998 17.4678C93.036 17.4678 93.6147 16.739 93.6147 15.5604C93.6147 14.3873 93.03 13.6482 92.0998 13.6482C91.1647 13.6482 90.5959 14.3715 90.5959 15.5555H90.5959Z" fill="black"/>
<path d="M99.3007 15.5556C99.2653 15.1857 99.3076 14.8125 99.4249 14.4599C99.5422 14.1073 99.7319 13.7831 99.9818 13.5082C100.232 13.2332 100.536 13.0135 100.876 12.8631C101.216 12.7128 101.583 12.6351 101.955 12.6351C102.327 12.6351 102.694 12.7128 103.034 12.8631C103.374 13.0135 103.678 13.2332 103.928 13.5082C104.178 13.7831 104.368 14.1073 104.485 14.4599C104.603 14.8125 104.645 15.1857 104.609 15.5556C104.646 15.9259 104.604 16.2996 104.487 16.6528C104.37 17.0059 104.18 17.3307 103.93 17.6062C103.68 17.8817 103.375 18.1019 103.035 18.2525C102.695 18.4032 102.327 18.4811 101.955 18.4811C101.583 18.4811 101.215 18.4032 100.875 18.2525C100.535 18.1019 100.23 17.8817 99.98 17.6062C99.73 17.3307 99.5404 17.0059 99.4234 16.6528C99.3064 16.2996 99.2646 15.9259 99.3007 15.5556ZM103.467 15.5556C103.467 14.3355 102.919 13.622 101.957 13.622C100.991 13.622 100.448 14.3355 100.448 15.5556C100.448 16.7855 100.991 17.4935 101.957 17.4935C102.919 17.4935 103.467 16.7806 103.467 15.5556Z" fill="black"/>
<path d="M106.1 12.7437H107.169V13.6379H107.252C107.393 13.3167 107.631 13.0475 107.932 12.8677C108.233 12.688 108.582 12.6066 108.932 12.6351C109.206 12.6145 109.481 12.6558 109.737 12.7559C109.992 12.856 110.222 13.0124 110.409 13.2134C110.597 13.4145 110.736 13.6551 110.817 13.9173C110.899 14.1796 110.92 14.4569 110.88 14.7286V18.3723H109.769V15.0075C109.769 14.103 109.376 13.6531 108.555 13.6531C108.369 13.6445 108.183 13.6761 108.011 13.7459C107.838 13.8157 107.683 13.922 107.555 14.0574C107.427 14.1929 107.33 14.3544 107.271 14.5308C107.212 14.7072 107.191 14.8944 107.211 15.0795V18.3724H106.1V12.7437Z" fill="black"/>
<path d="M117.157 11.3423V12.7693H118.377V13.705H117.157V16.5992C117.157 17.1888 117.4 17.447 117.953 17.447C118.095 17.4465 118.236 17.438 118.377 17.4214V18.3466C118.177 18.3823 117.975 18.4013 117.772 18.4034C116.537 18.4034 116.045 17.9688 116.045 16.8836V13.7049H115.151V12.7692H116.045V11.3423H117.157Z" fill="black"/>
<path d="M119.894 10.5464H120.995V13.6482H121.083C121.23 13.324 121.475 13.0533 121.782 12.8729C122.089 12.6924 122.444 12.6111 122.799 12.6399C123.072 12.6251 123.344 12.6706 123.597 12.7731C123.85 12.8757 124.077 13.0327 124.262 13.2332C124.447 13.4336 124.586 13.6724 124.668 13.9326C124.75 14.1927 124.774 14.4678 124.738 14.7383V18.3723H123.626V15.0123C123.626 14.1133 123.207 13.6579 122.422 13.6579C122.231 13.6423 122.039 13.6685 121.859 13.7348C121.68 13.8012 121.517 13.9059 121.382 14.0419C121.247 14.1778 121.143 14.3416 121.078 14.5217C121.013 14.7019 120.988 14.8941 121.005 15.0849V18.3723H119.894L119.894 10.5464Z" fill="black"/>
<path d="M131.215 16.8525C131.064 17.3669 130.737 17.8119 130.291 18.1096C129.845 18.4073 129.309 18.5387 128.776 18.4809C128.405 18.4907 128.036 18.4197 127.696 18.2728C127.355 18.1258 127.05 17.9066 126.803 17.6301C126.556 17.3537 126.371 17.0268 126.263 16.672C126.155 16.3172 126.125 15.9431 126.176 15.5756C126.126 15.207 126.157 14.8321 126.265 14.4763C126.373 14.1204 126.556 13.792 126.802 13.5131C127.048 13.2343 127.351 13.0116 127.691 12.8601C128.031 12.7086 128.399 12.6318 128.771 12.635C130.337 12.635 131.282 13.705 131.282 15.4725V15.8601H127.307V15.9223C127.29 16.1289 127.316 16.3368 127.383 16.5327C127.451 16.7287 127.559 16.9083 127.7 17.0601C127.841 17.2119 128.012 17.3326 128.203 17.4143C128.393 17.4961 128.599 17.5371 128.806 17.5348C129.072 17.5667 129.341 17.5189 129.58 17.3974C129.818 17.2759 130.015 17.0862 130.145 16.8525L131.215 16.8525ZM127.307 15.0385H130.15C130.164 14.8496 130.138 14.6599 130.075 14.4815C130.011 14.3031 129.911 14.14 129.78 14.0027C129.65 13.8653 129.492 13.7568 129.317 13.6841C129.142 13.6114 128.954 13.5761 128.765 13.5804C128.573 13.578 128.382 13.6141 128.204 13.6865C128.026 13.7589 127.864 13.8663 127.728 14.0022C127.593 14.138 127.485 14.2998 127.413 14.4777C127.341 14.6557 127.305 14.8464 127.307 15.0385H127.307Z" fill="black"/>
</svg>
