<svg xmlns="http://www.w3.org/2000/svg" xmlns:xlink="http://www.w3.org/1999/xlink" width="1920" height="588" viewBox="0 0 1920 588">
  <defs>
    <clipPath id="clip-path">
      <rect id="Rectangle_215" data-name="Rectangle 215" width="1920" height="588" transform="translate(0 3674)" fill="#707070" stroke="#707070" stroke-width="1"/>
    </clipPath>
  </defs>
  <g id="Mask_Group_2" data-name="Mask Group 2" transform="translate(0 -3674)" clip-path="url(#clip-path)">
    <g id="worldSvg" transform="translate(564.198 3674)">
      <path id="Path_565" data-name="Path 565" d="M737.144,151.688C647.3,26.664,457.507-24.051,270.85,30.57,172.171,59.447,77.025,117.306,29.873,229.339-54.416,429.61,122.559,493.572,238.282,513.957c55.957,9.857,108.66,26.415,156.819,48.959,86.644,40.558,240.009,76.5,355.654-92.447C834.577,348.018,797,234.966,737.144,151.688Z" transform="translate(-7.87 -8.753)" fill="#f2f2f2"/>
      <path id="Path_566" data-name="Path 566" d="M216.253,176.423a23.134,23.134,0,0,0-1.512-5.789,2.62,2.62,0,0,0-1.332-1.641,2.745,2.745,0,0,0-1.322-.015l-6.787,1.038a2.6,2.6,0,0,0-1.548.6c-.884.93-.014,2.426-.041,3.709a3.486,3.486,0,0,1-2.7,3,10.211,10.211,0,0,1-4.292-.053l-9.49-1.475a15.646,15.646,0,0,0,7.179-4.791c1.249-1.479,1.913-4.241.108-4.942a4.431,4.431,0,0,0-1.648-.132c-4.3.033-7.683-3.556-11.708-5.068a12.945,12.945,0,0,0-14.569,4.343l5.055.244a2.244,2.244,0,0,1,1.347.359c1.108.91-.27,2.659-.113,4.084.2,1.852,2.662,2.247,4.515,2.434s4.2,1.693,3.313,3.329c-9.316,3.209-18.8-6.272-28.579-5.105-2.476.3-4.814,1.268-7.232,1.88-14.768,3.737-30.036-6.233-45.122-4.122a57.3,57.3,0,0,0-9.85,2.6c-2.053.674-4.2,1.4-5.687,2.966s-2.06,4.238-.646,5.872a33.051,33.051,0,0,1-11.583-1.1,6.489,6.489,0,0,1,3.336,5.719,68.723,68.723,0,0,0-17.6,5.368,29.652,29.652,0,0,0,3.644,4.854l-7.7,4.947a4.394,4.394,0,0,1,2.434,6.418c2.7-1.2,4.369-4.3,7.254-4.934,1.89-.412,3.813.361,5.605,1.087s3.763,1.43,5.619.885,3.225-2.951,2.045-4.485a96.021,96.021,0,0,1,24.39-3.811,3.059,3.059,0,0,1,1.847.351c1.075.746.792,2.357.734,3.665s.961,3.026,2.13,2.436c-1.375,1.192-.2,3.436,1.119,4.69s2.909,2.983,2.1,4.614c-.211.426-.568.766-.771,1.2-.6,1.268.352,2.745,1.473,3.587s2.494,1.43,3.273,2.6.425,3.206-.967,3.369l-3.958-5.025a10.3,10.3,0,0,0-2.673,5.066,10.63,10.63,0,0,1,1.314,14.541c-1.8,2.109-4.349,3.391-6.577,5.036s-4.29,3.988-4.285,6.758c.01,4.786-.381,9.232,1.412,13.668A210.553,210.553,0,0,0,108.633,285.1c1.131,2.023,2.592,4.239,4.883,4.588q-4.343-10.572-7.819-21.474c1.509.006,3.254.126,4.138,1.349.733,1.013.575,2.389.8,3.618a11.208,11.208,0,0,0,1.429,3.36l13.825,24.627c1.146,2.042,2.461,4.233,4.651,5.06,1.4.529,3.021.429,4.31,1.19,1.01.6,1.691,1.655,2.721,2.217,2.912,1.589,6.962-1.458,9.684.439a27.243,27.243,0,0,1,1.99,2.025c2.514,2.177,6.637.721,9.539,2.345,1.87,1.047,2.839,3.14,3.837,5.036,2.5,4.751,6.542,9.406,11.9,9.784,1.682.119,3.4-.2,5.044.174s3.263,1.809,3,3.475c-.452,2.855.958,5.982.579,8.848-.69,5.22-8.1,7.515-8.731,12.742a29.573,29.573,0,0,1-.194,3.446c-.334,1.373-1.365,2.491-1.732,3.856-.694,2.586,1.159,5.16,3.194,6.9s4.464,3.24,5.577,5.676c1.176,2.575.6,5.576.981,8.381.835,6.123,6.123,10.661,11.566,13.588,1.658.892,3.439,1.755,4.512,3.3,1.4,2.019,1.261,4.681,1.729,7.093,1.146,5.908,6.119,10.776,6.26,16.793.1,4.276-2.277,8.156-3.7,12.191a28.43,28.43,0,0,0,2.322,23.578,37.76,37.76,0,0,1,3.084,5.429c1.341,3.47.906,7.414,2.142,10.923,1.635,4.639,6.126,8.47,5.7,13.369,2.039,4.235,6.542,6.315,11.07,7.576l8.115,2.259a10.427,10.427,0,0,0,4.76.555c1.582-.313,3.092-1.627,3.051-3.239-3.979-.9-8.086-1.852-11.367-4.277s-5.527-6.743-4.283-10.628c.577-1.8,1.8-3.882.638-5.37-.668-.852-1.891-1.075-2.644-1.852-1.176-1.213-.772-3.25.073-4.713s2.067-2.769,2.408-4.424a4.616,4.616,0,0,0-2.164-4.8,11.474,11.474,0,0,0,4.017-2.577,3.916,3.916,0,0,0,.713-4.437c2.467.313,5.381.466,7-1.421,1.293-1.507,1.2-3.761.694-5.68s-1.375-3.783-1.4-5.769a105.14,105.14,0,0,0,17.057-.578,11.06,11.06,0,0,0-5.186-6.495c2.564-.434,4.9-3.5,5.709-5.974a15.37,15.37,0,0,0,.1-7.714,4.139,4.139,0,0,1-.077-2.021,3.938,3.938,0,0,1,2.029-1.962l12.725-7.308a7.413,7.413,0,0,0,2.035-1.5c1.333-1.566,1.136-3.93.453-5.87s-1.776-3.764-2.039-5.8c-.786-6.1,5.744-10.478,7.948-16.22a24.439,24.439,0,0,0,1.209-7.111c.18-2.586.193-5.591-1.793-7.257-1.9-1.6-4.878-1.241-6.87-2.727-1.826-1.362-2.456-4.009-4.451-5.109-1.812-1-4.084-.364-6.1-.834-3.548-.828-5.781-4.917-9.4-5.3-2.044-.214-4.358.786-6.034-.4-1.477-1.049-1.536-3.158-1.817-4.947A13.816,13.816,0,0,0,230.88,333.9c-2.108-.338-4.4-.21-6.2-1.368-1.816-1.173-2.648-3.369-4.075-4.994-2.3-2.618-5.919-3.548-9.311-4.346l-13.8-3.243c-2.449-.576-5.606-.881-6.92,1.264a9.914,9.914,0,0,0-.819,2.574,7.973,7.973,0,0,1-7.5,5.644,8.867,8.867,0,0,0-5.229-4.046,32.582,32.582,0,0,1-4.23-1.007,5.943,5.943,0,0,1-2.578-8.243,7.4,7.4,0,0,0-1.264-8.9c-2.346-2.106-5.74-2.615-8.886-2.4-.824-1.8.554-3.826,2.038-5.133s3.287-2.591,3.61-4.542c.509-3.069-3.407-5.4-6.38-4.485s-4.871,3.8-6.125,6.649a19.577,19.577,0,0,1-2.467,4.73,4.847,4.847,0,0,1-4.693,1.921c-2.448-.626-3.394-3.534-3.935-6a39.036,39.036,0,0,1-1.306-10.055,13.149,13.149,0,0,1,3.791-9.157c4.07-3.736,10.312-3.37,15.8-2.774a4.014,4.014,0,0,1,.411-5.3,6.028,6.028,0,0,1,5.464-1.342,7.529,7.529,0,0,1,4.233,2.531c1.561,1.9,2,4.472,3.184,6.632s3.832,4,6,2.843c1.875-1,2.173-3.6,1.706-5.675s-1.458-4.09-1.289-6.209c.323-4.043,4.514-6.477,8.212-8.142s7.934-3.9,8.52-7.918a7.22,7.22,0,0,1,.439-2.3,4.514,4.514,0,0,1,1.656-1.557c10.794-7.133,21.768-14.354,34.1-18.252.642-.2.717.023,1.371-.136.915-.529.309-1.993-.569-2.582s-2.051-1.042-2.274-2.076c-.164-.76.284-1.506.4-2.274a2.84,2.84,0,0,0-3.728-2.877c-.991-1.312.97-2.837,2.556-3.274a69.4,69.4,0,0,1,14.58-2.382,2.626,2.626,0,0,1,1.659.282,1.984,1.984,0,0,1,.135,2.708,15.937,15.937,0,0,1-2.231,2.026,6.09,6.09,0,0,0-1.58,6.126c2.574,1.309,5.373,2.657,8.223,2.2s5.381-3.664,4.041-6.223c-1.248-2.382-5-2.92-5.641-5.531-.755-3.057,3.573-5.776,2.6-8.77-.427-1.312-1.734-2.083-2.737-3.03a8.222,8.222,0,0,1-1.8-9.117,10.373,10.373,0,0,1-9.1-2.847c-2.176-2.2-3.912-5.661-7-5.562-2.836.09-5.278,3.4-7.93,2.389-.652-.248-1.34-.754-1.972-.458a1.63,1.63,0,0,0-.736,1.221c-.674,3.222.485,6.892-1.27,9.676-1.911,3.029-6.33,3.449-8.646,6.181-1.257,1.483-1.745,3.481-2.9,5.044s-3.609,2.557-5,1.195a6.886,6.886,0,0,0-1.871-8.373,18.374,18.374,0,0,0-4.132-2.01,24.5,24.5,0,0,1-4.616-2.573,4.546,4.546,0,0,1-1.695-1.813,4.132,4.132,0,0,1,.116-2.867,11.724,11.724,0,0,1,9.33-7.733c1.847-.251,4-.163,5.218-1.57.647-.745.986-1.87,1.925-2.173a2.839,2.839,0,0,1,1.777.219l6.893,2.426a4.838,4.838,0,0,0,2.455.406,1.665,1.665,0,0,0,1.44-1.75c-.22-1.145-1.982-1.694-1.821-2.849a1.9,1.9,0,0,1,.577-.97,24.643,24.643,0,0,1,19.545-7.718c.87,1.429-.506,3.121-1.651,4.341s-2.065,3.4-.68,4.338a3.8,3.8,0,0,0,1.835.413,16.025,16.025,0,0,1,4.885,1.482q3.573,1.555,7.009,3.4a8.886,8.886,0,0,1,.177-4.513c.572-1.412,2.2-2.52,3.62-1.97,1.369.53,2.072,2.343,3.531,2.509,1.946.222,2.714-2.654,1.9-4.436s-2.422-3.274-2.557-5.229c-.091-1.318.411-2.953-.642-3.752a2.867,2.867,0,0,0-1.243-.436l-26.3-4.839c-1.561-.287-3.818-.067-3.887,1.519-.039.885.752,1.761.4,2.575-.374.869-1.6.789-2.5,1.1a3.412,3.412,0,0,0-1.951,3.586,9.979,9.979,0,0,0,1.647,4.042C220.553,177.27,217.963,177.138,216.253,176.423Z" transform="translate(-7.87 -8.753)" fill="#3f3d56"/>
      <path id="Path_567" data-name="Path 567" d="M195.272,154.1a8.515,8.515,0,0,0-9.353,2.8,1.873,1.873,0,0,0-.434,1.973c.52.885,1.844.535,2.82.219a7.1,7.1,0,0,1,4.454-.106c.917.315,1.737.871,2.657,1.174a2.676,2.676,0,0,0,2.729-.4,3.552,3.552,0,0,0,.673-2.549,2.05,2.05,0,0,0-.522-1.685,2.678,2.678,0,0,0-1.208-.357,4.161,4.161,0,0,1-2.435-1.423" transform="translate(-7.87 -8.753)" fill="#3f3d56"/>
      <path id="Path_568" data-name="Path 568" d="M204.754,151.462a2.166,2.166,0,0,0-2.094,3.051,8.78,8.78,0,0,0,3.5.228,2.992,2.992,0,0,0,2.447-2.243,5.633,5.633,0,0,1-3.988-.762" transform="translate(-7.87 -8.753)" fill="#3f3d56"/>
      <path id="Path_569" data-name="Path 569" d="M236.565,147.053a40.268,40.268,0,0,0-8.976,3.049,6.744,6.744,0,0,1,4.307,6.774,3.527,3.527,0,0,0,.041,1.675c.33.8,1.285,1.1,2.125,1.3a14.009,14.009,0,0,0,4.66.595,4.747,4.747,0,0,0,3.858-2.357,16.8,16.8,0,0,1,.8-1.9c2.013-3.066,7.993.641,10.155-2.322.761-1.044.692-2.615,1.684-3.442a3.784,3.784,0,0,1,1.731-.661A121.59,121.59,0,0,1,270.1,147.9c2.092-.182,4.818-.933,4.836-3.033a36.43,36.43,0,0,0-23.239,3.126c-2.591,1.3-6.017,4.027-8.512,2.307-.934-.644-.888-2.378-2.174-3.1C239.7,146.456,237.96,146.757,236.565,147.053Z" transform="translate(-7.87 -8.753)" fill="#3f3d56"/>
      <path id="Path_570" data-name="Path 570" d="M262.332,151.872l3.7.711a4.793,4.793,0,0,0-4.988,5.194c3.464,1.157,7.24.031,10.888.185s7.894,2.76,7.271,6.358c-.188,1.088-.817,2.175-.49,3.23a12.021,12.021,0,0,0,1.249,1.945c.767,1.419.154,3.213-.814,4.5s-2.27,2.319-3.12,3.689c-2.114,3.409-.913,7.815.346,11.624a10.247,10.247,0,0,0,1.97,3.935c1.866,1.984,4.906,2.156,7.628,2.2,1.982.029,4.252-.069,5.5-1.6,1.636-2,.492-5.132,1.569-7.485.978-2.137,3.471-3.053,5.729-3.7,4.137-1.191,8.353-2.2,12.264-4,4.857-2.234,9.4-5.715,14.734-6a20.224,20.224,0,0,0,4.475-.314c1.443-.41,2.813-1.657,2.7-3.153-.093-1.278-1.175-2.216-2.019-3.18s-1.508-2.445-.732-3.464l13.992-2.613c-.992-2.7-1.764-6.263.515-8.022.822-.635,1.923-.888,2.623-1.656,1.193-1.308.593-3.561-.784-4.673a8.987,8.987,0,0,0-5-1.517,134.269,134.269,0,0,0-18.452.164l-36.048,1.976c-2.419.133-5.212-.07-7.43.755-1.878.7-3.214,1.981-5.362,2.432C270.284,150.209,265.92,149.646,262.332,151.872Z" transform="translate(-7.87 -8.753)" fill="#3f3d56"/>
      <path id="Path_571" data-name="Path 571" d="M328.59,181.106a1.488,1.488,0,0,0-1.077.244,1.359,1.359,0,0,0-.35.83,5.482,5.482,0,0,0,.8,3.924,3.842,3.842,0,0,0,3.517,1.686c1.665-.212,2.893-1.633,4.424-2.326,2.36-1.068,12.381-2.732,5.449-6.477-2.389-1.291-3.933-.151-5.816.7a13.233,13.233,0,0,1-6.944,1.42Z" transform="translate(-7.87 -8.753)" fill="#3f3d56"/>
      <path id="Path_572" data-name="Path 572" d="M389.309,149.757a3.958,3.958,0,0,0-1.926,1.676,1.691,1.691,0,0,0,.634,2.244,2.524,2.524,0,0,0,.944.15l3.291.1c1.4.042,3.145.34,3.521,1.687.279,1-.345,2.286.408,3a2.123,2.123,0,0,0,1.12.437,7.63,7.63,0,0,0,3.316.107c2.395-.642,1.136-2.1,1.891-3.405,1.154-1.991.954-.786,2.988-1.927,1.5-.843,3.442-2.372,2.189-4.52C405.506,145.569,392.526,148.153,389.309,149.757Z" transform="translate(-7.87 -8.753)" fill="#3f3d56"/>
      <path id="Path_573" data-name="Path 573" d="M454.273,147.88l-1.911.255a76.983,76.983,0,0,0-12.795,2.45,21.3,21.3,0,0,0,5.6,1.375,17.212,17.212,0,0,1,3.139.446c1.833.546,3.681,1.955,5.452,1.233,1.1-.448,1.457-1.591,2.366-2.2.628-.418,3.011-1.1,3.277-1.518C461.558,146.508,455.928,147.659,454.273,147.88Z" transform="translate(-7.87 -8.753)" fill="#3f3d56"/>
      <path id="Path_574" data-name="Path 574" d="M462.665,156.566a35.842,35.842,0,0,0-7.053,5.165c-.9.844-1.815,1.894-1.734,3.124.108,1.634,1.849,2.583,3.358,3.221l6.11,2.587c.741-1.045.063-2.487-.7-3.513s-1.676-2.214-1.338-3.45c.386-1.41,2.105-1.89,3.547-2.133,2.349-.4,8.684-.364,7.923-4.149C471.877,152.958,465.023,155.248,462.665,156.566Z" transform="translate(-7.87 -8.753)" fill="#3f3d56"/>
      <path id="Path_575" data-name="Path 575" d="M461.437,408.946a5.83,5.83,0,0,0,.369,5.138,5.205,5.205,0,0,0,5.343,1.846,9.626,9.626,0,0,0,4.961-3.19,17.086,17.086,0,0,0,2.853-4.376,34.158,34.158,0,0,0,2.115-7.739l1.9-9.96c.424-2.226.407-9.05-3.684-6.827-1.118.607-3.705,5.4-4.877,6.763-2.111,2.451-2.39,4.829-3.5,7.8C465.521,402.121,462.724,405.221,461.437,408.946Z" transform="translate(-7.87 -8.753)" fill="#3f3d56"/>
      <path id="Path_576" data-name="Path 576" d="M677.522,459.914a29.826,29.826,0,0,1-3.888-1.851,32.771,32.771,0,0,0-1.971,10.741l9.161-5.184c1.378-.78,2.94-1.863,2.91-3.446a1.09,1.09,0,0,0-.506-.991,1.235,1.235,0,0,0-.642-.075,15.5,15.5,0,0,0-3.878,1.246,4.734,4.734,0,0,1-3.955.021" transform="translate(-7.87 -8.753)" fill="#3f3d56"/>
      <path id="Path_577" data-name="Path 577" d="M725.848,462.992a19.832,19.832,0,0,0-2.938,1.054c-2.1,1.07-3.532,3.1-5.424,4.51a21.516,21.516,0,0,1-6.129,2.808,1.469,1.469,0,0,0,.343,2.165,4.249,4.249,0,0,0,2.419.544c2.223.049,4.564.07,6.511-1a20.538,20.538,0,0,0,3.065-2.433,32.463,32.463,0,0,1,7.715-4.363,8.855,8.855,0,0,0,2.689-1.608c1.7-1.675,1.82-4.259-.632-4.829C731.486,459.377,727.732,462.382,725.848,462.992Z" transform="translate(-7.87 -8.753)" fill="#3f3d56"/>
      <path id="Path_578" data-name="Path 578" d="M747.2,449.045a7.642,7.642,0,0,0-2.338-6.261c-.025,2.306-.1,4.763-1.392,6.67-.924,1.359-2.373,2.277-3.386,3.571s-1.462,3.346-.274,4.481a4.45,4.45,0,0,0,2.638.908c2.364.278,5.1.433,6.758-1.275.9-.932,1.345-2.313,2.449-3a2.98,2.98,0,0,0,1.074-.769c.456-.724-.268-1.679-1.083-1.94s-1.713-.138-2.533-.386-1.571-1.169-1.15-1.915" transform="translate(-7.87 -8.753)" fill="#3f3d56"/>
      <path id="Path_579" data-name="Path 579" d="M709.25,364.495a10.626,10.626,0,0,1-3.792.224c-2.1-.387-3.743-1.973-5.442-3.274a24,24,0,0,0-14.025-4.9c-4.617-.087-9.277,1.164-13.812.291a5.448,5.448,0,0,0,3.211,3.618c1.5.735,3.165,1.1,4.677,1.824a11.166,11.166,0,0,1,5.409,5.627,15.884,15.884,0,0,0,1.531,3.366c1.507,2.028,4.365,2.474,6.886,2.308,3.288-.216,6.722-1.162,9.78.063,2.34.937,4.015,2.985,5.968,4.577s4.706,2.774,6.949,1.625a11.488,11.488,0,0,1-7.949-11.054c2.2.2,8.538.124,8.2-3.615C716.55,362.007,711.141,364.153,709.25,364.495Z" transform="translate(-7.87 -8.753)" fill="#3f3d56"/>
      <path id="Path_580" data-name="Path 580" d="M680.469,390.274c.391-2.143,2.527-4.035,1.862-6.109-.46-1.434-2.123-2.142-3.629-2.178s-2.985.413-4.491.455a21.89,21.89,0,0,0-2.941.042c-2.989.491-4.831,3.624-7.648,4.738-1.713.677-3.637.548-5.418,1.016-4.043,1.063-6.6,4.884-9.428,7.964a33.647,33.647,0,0,1-17.078,9.96c-2.3.532-4.77.873-6.6,2.366-2.42,1.977-3.016,5.367-3.554,8.445a139.483,139.483,0,0,1-6.79,24.927l9.6,1.226a13.05,13.05,0,0,0,5.476-.08,15.9,15.9,0,0,0,3.6-1.918,35.955,35.955,0,0,1,14.047-5.071,14.914,14.914,0,0,1,7.51.526,6.983,6.983,0,0,1,4.581,5.584,5.9,5.9,0,0,1,5.9,1.434,10.247,10.247,0,0,1,2.814,5.618c.253,1.314.506,2.887,1.725,3.438.994.45,2.135-.035,3.223-.122,3.691-.3,6.754,4.009,10.382,3.268,3.891-.795,4.846-6.622,8.642-7.79,2.18-.67,5.238.145,6.282-1.883.92-1.788-.916-3.85-.726-5.852.233-2.465,3.14-3.511,5.381-4.562,7.726-3.625,11.393-14.024,7.649-21.694-2.218-4.544-6.583-8.121-7.389-13.113-.62-3.841.894-8.32-1.555-11.343-1.246-1.538-3.355-2.387-4.1-4.222-.467-1.155-.279-2.466-.53-3.686s-1.316-2.5-2.521-2.18c-3.5.918-4.614,11.723-6.487,14.349C685.414,397.819,679.567,395.191,680.469,390.274Z" transform="translate(-7.87 -8.753)" fill="#3f3d56"/>
      <path id="Path_581" data-name="Path 581" d="M615.815,368.577a5.631,5.631,0,0,0-3.646-.186c-1.145.479-1.814,2.16-.895,2.995,7.191-.28,14.426-.558,21.556.418,8.215,1.125,16.345,3.912,24.6,3.092a125.177,125.177,0,0,0-14.348-3.329L635,370.024a62.459,62.459,0,0,0-6.559-1.013C623.834,368.63,620.347,369.848,615.815,368.577Z" transform="translate(-7.87 -8.753)" fill="#3f3d56"/>
      <path id="Path_582" data-name="Path 582" d="M623.015,343.532c-.6-.05-1.336-.093-1.645.421-.3.49.043,1.138-.116,1.688-.217.751-1.2.943-1.976.841a3.785,3.785,0,0,0-2.3.027,1.95,1.95,0,0,0-.754,2.215,5.7,5.7,0,0,0,1.33,2.12A21.653,21.653,0,0,0,621,354.3c2.471,1.824,5.82,2.7,7.376,5.352a3.551,3.551,0,0,0,.985,1.326,2.738,2.738,0,0,0,2.526-.254l2.82-1.289a3.2,3.2,0,0,0,1.318-.9c.644-.874.249-2.117-.292-3.059a5.258,5.258,0,0,1-1.117-3c.207-1.925,2.682-2.662,3.7-4.309s.358-3.8.476-5.748c.138-2.279,1.57-5.242-.733-6.945-1.958-1.447-3.829-.11-5.234,1.487C629.865,340.339,628.464,343.988,623.015,343.532Z" transform="translate(-7.87 -8.753)" fill="#3f3d56"/>
      <path id="Path_583" data-name="Path 583" d="M640.134,309.487c.963,1.844,2.97,2.944,4.02,4.739,1.138,1.946,1.008,4.461,2.243,6.347,1.267,1.935,3.816,2.963,4.526,5.164.776,2.4-.984,5.324.419,7.424a3.116,3.116,0,0,0,4.571.42,3.353,3.353,0,0,0-.138-4.678c-.831-.757-2.023-1.084-2.716-1.969a4.131,4.131,0,0,1-.7-1.713,11.215,11.215,0,0,1,.176-5.375,2.392,2.392,0,0,0,.135-1.406c-.312-.907-1.541-.972-2.4-1.393-1.959-.956-1.911-3.72-1.569-5.873-.228,1.433-5.332-1-5.867-1.816-1.062-1.613-.484-4.723-.694-6.505A5.064,5.064,0,0,0,640.134,309.487Z" transform="translate(-7.87 -8.753)" fill="#3f3d56"/>
      <path id="Path_584" data-name="Path 584" d="M588.708,337.853c-.942-1.055-2.361-2.158-3.624-1.522a2.294,2.294,0,0,0-.851,2.829,6.227,6.227,0,0,0,2.055,2.45c2.632,2.171,5.467,4.13,7.763,6.654,4.11,4.516,6.287,10.61,10.756,14.771a6.033,6.033,0,0,0,3.387,1.833,2.632,2.632,0,0,0,2.914-2.012,3.835,3.835,0,0,0-1.352-2.821c-1.736-1.888-3.637-3.627-5.276-5.6a4.706,4.706,0,0,1-1.349-2.816c-.008-1.062.961-2.174,1.99-1.911-1.252-.32-2.18-2.406-4.018-2.8-1.536-.328-1.907.623-3.735-.161C593.884,345.255,591.149,340.586,588.708,337.853Z" transform="translate(-7.87 -8.753)" fill="#3f3d56"/>
      <path id="Path_585" data-name="Path 585" d="M670.608,235.155a28.854,28.854,0,0,1-2.945-1.052c-2.588-.777-6.012,1.125-5.667,3.805.229,1.781,1.886,2.981,2.8,4.526,1.357,2.29,1,5.2.282,7.761a6.067,6.067,0,0,1-.979,2.208,7.479,7.479,0,0,1-2.32,1.668,31.018,31.018,0,0,0-9.076,7.71,2.223,2.223,0,0,0-.548,1.033c-.123.9.786,1.564,1.3,2.319,1.142,1.676.317,3.932.43,5.958a1.684,1.684,0,0,0,.71,1.478c.688.35,1.5-.244,1.877-.92,1.238-2.244.305-5.845,2.629-6.926.439-.2.972-.291,1.265-.677.465-.612.016-1.519.252-2.251.354-1.1,1.857-1.148,3.01-1.1a17.088,17.088,0,0,0,5.87-.781,3.907,3.907,0,0,0,1.943-1.125,4.227,4.227,0,0,0,.494-3.2,43.388,43.388,0,0,0-5.126-15.642c2.041.261,4.261.486,6.022-.577.986-.6,2.169-2.376,1.68-3.589C673.741,233.862,672.342,235.476,670.608,235.155Z" transform="translate(-7.87 -8.753)" fill="#3f3d56"/>
      <path id="Path_586" data-name="Path 586" d="M409,265.367a7.859,7.859,0,0,1,.055,3.95A2.7,2.7,0,0,1,406,271.246c-.99-.3-1.561-1.295-2.264-2.053-3.908-4.219-12.724-1.776-15.138-7-.985-2.13-.316-4.682-.988-6.93a6.169,6.169,0,0,0-6.247-4.244,12.837,12.837,0,0,0-3.595,1.073,90.642,90.642,0,0,1-23.817,5.957,19.571,19.571,0,0,0-4.576.833c-3.356,1.217-5.649,4.328-7.28,7.5s-2.836,6.612-5.024,9.432c-2.3,2.964-5.521,5.04-8.526,7.285a8.7,8.7,0,0,0-2.813,2.948,9.222,9.222,0,0,0-.564,4.38l.614,18.06A16.311,16.311,0,0,0,327,315.3c1.3,2.6,3.863,4.3,5.642,6.589a12.906,12.906,0,0,1,2.677,8.242c-.038,1.2-.157,2.61.775,3.361a3.405,3.405,0,0,0,1.9.548l24.43,2c4.3.352,9.06.93,11.866,4.2,1.324,1.545,2.388,3.767,4.416,3.933a16.405,16.405,0,0,0,2.587-.355c2.2-.174,4.124,1.492,5.341,3.328a14.764,14.764,0,0,1,2.371,9.473c-.2,2.094-.849,4.129-.989,6.227-.532,7.984,6.236,14.921,6.367,22.923.077,4.706-2.157,9.1-4.335,13.276,3.516,5.326.637,12.418,2.036,18.644,1.328,5.907,6.253,10.531,7.48,16.46.562,2.714.594,6.054,2.988,7.452a6.811,6.811,0,0,0,3.381.677,44.567,44.567,0,0,0,20.295-4.62c2.959-1.469,6.026-3.661,6.543-6.924.417-2.631-.918-5.575.44-7.867,1.6-2.7,5.7-2.487,8.056-4.564,3.82-3.369.841-9.8,2.389-14.649,1.391-4.362,6.181-6.68,8.555-10.6a18.826,18.826,0,0,0,1.988-5.388,76.861,76.861,0,0,0,2.023-13.743,82.381,82.381,0,0,1,.622-8.418c2.56-15.9,18.282-26.552,23.386-41.83.487-1.459.716-3.4-.582-4.228a3.717,3.717,0,0,0-2.472-.259l-11.262,1.42a7.753,7.753,0,0,1-4.166-.24c-1.285-.581-2.205-2.206-1.524-3.44,1.913-3.465-2.022-7.843-3.77-11.393a168.124,168.124,0,0,0-16.742-27.151,2.76,2.76,0,0,1-.734-1.594l3.2.106c-1.079-3.871-2.859-8.108-6.621-9.524-2.119-.8-4.467-.522-6.728-.4C422.35,267.337,415.407,266.358,409,265.367Z" transform="translate(-7.87 -8.753)" fill="#3f3d56"/>
      <path id="Path_587" data-name="Path 587" d="M428.833,178.123c1.695,1.8,3.594,3.708,6.046,4.022,4.331.554,7.446-3.925,9.428-7.815a3.819,3.819,0,0,0,3.985,3.533,7.866,7.866,0,0,0,3-1.172,59.047,59.047,0,0,1,27.974-7.231,3.021,3.021,0,0,1,2.307-3.321c1.988-.394,3.779,1.325,4.739,3.111s1.557,3.856,3.081,5.192,4.474,1.278,5.076-.657c.578-1.858-1.358-3.443-2.966-4.539s-3.3-3.123-2.221-4.74c8.217-1.819,16.485-3.645,24.893-4.006a10.424,10.424,0,0,0,4.19-.722,3.257,3.257,0,0,0,1.957-3.444,9.489,9.489,0,0,1-9.9-3.735c11.667-.963,24.076-1.783,34.415,3.706,1.241,2.664-5.083,4.88-3.391,7.282a3.063,3.063,0,0,0,2.558.873c7.185.133,14.411.264,21.515-.821,2.6-.4,5.218-.956,7.825-.635,4.341.535,8.054,3.432,12.325,4.376a6.6,6.6,0,0,0,5.153-.614c1.465-1.011,2.1-3.313.894-4.628,4.021-3.941,10.7-2.964,16-1.078s10.331,4.93,15.946,5.35c4.026.3,8.109-.781,12.087-.093,2.5.433,4.827,1.545,7.271,2.228,4.622,1.292,9.51,1.02,14.309,1.082a100.26,100.26,0,0,1,35.729,7.1,10.623,10.623,0,0,1,3.972,2.347,3.894,3.894,0,0,1,.887,4.273l-11.755-1.718c1.108,2.18,3.973,2.552,6.3,3.3s4.74,3.322,3.341,5.328c-2.521-.8-4.806,1.718-6.08,4.037s-2.826,5.1-5.468,5.238c-2.366.127-5.228-1.888-6.77-.089a46.169,46.169,0,0,1,5.44,8.7c1.524,3.174,2.609,7.174.549,10.03a2.6,2.6,0,0,1-1.39,1.078c-1.682.426-2.775-1.632-3.981-2.879-1.52-1.572-3.818-2.017-5.877-2.754s-4.227-2.187-4.388-4.367c-.1-1.357.616-2.618,1.144-3.871a14.916,14.916,0,0,0,1.133-6.69,7.6,7.6,0,0,0-1.953-5.04,3.913,3.913,0,0,0-5.022-.516c-.662.549-1.193,1.428-2.052,1.461-1.519.058-2.685-2.59-3.907-1.686a4.153,4.153,0,0,1-.564,2.777c-3.647,3.172-9.249,1.83-13.951,2.95a26.185,26.185,0,0,0-6.365,2.78,4.1,4.1,0,0,0-1.819,1.527,2.816,2.816,0,0,0,1.095,3.359,8.69,8.69,0,0,0,3.609,1.232c5.732,1.086,11.547,2.766,16.072,6.448s7.493,9.767,6.061,15.423l-11.3-10.8q.644,6.8.731,13.642a6.133,6.133,0,0,1-.358,2.624c-.806,1.78-2.99,2.379-4.9,2.772a3.841,3.841,0,0,0-2.949,4.921c.68,2.216,2.375,3.944,3.928,5.666s3.08,3.679,3.283,5.988-1.539,4.912-3.852,4.752c-1.753-.122-3.054-1.691-3.8-3.282s-1.193-3.362-2.316-4.713c-3.4-4.09-11.04-2.338-14.086-6.7a6.89,6.89,0,0,0-1.425,6.557c1.417-.887,3.358-.063,4.423,1.226s1.567,2.942,2.4,4.39c1.129,1.954,2.924,3.686,3.082,5.937a19.408,19.408,0,0,0,.043,2.553c.28,1.364,1.433,2.343,2.232,3.483,1.86,2.653,1.768,6.3.569,9.306s-3.352,5.525-5.485,7.963a96.041,96.041,0,0,1-11.944,12.029,12.548,12.548,0,0,0-3.39,3.412c-.785,1.411-.825,3.391.381,4.465-.863.043-2.411.468-3.274.511a76.109,76.109,0,0,1-.2-10.413c-3.406-1.635-7.073,2.744-6.634,6.5s3.154,6.764,5.086,10.011c1.413,2.374,2.463,5.143,1.992,7.865s-2.9,5.234-5.655,4.994c-4.378-.382-6.21-6.667-10.545-7.387a1.772,1.772,0,0,0-1.141.113c-.644.353-.755,1.214-.792,1.948-.177,3.6-.331,7.341,1.074,10.659,2.055,4.854,7.365,8.931,6.251,14.083-6-2.789-9.119-9.517-10.536-15.98s-1.652-13.248-4.191-19.358c-1.928,2.471-5.98.428-7.741-2.164-1.67-2.458-2.7-5.3-4.318-7.791s-4.1-4.721-7.07-4.858c-3.112-.144-5.811,1.992-8.184,4.01-1.952,1.659-3.956,3.384-5.1,5.677-1.66,3.338-1.226,7.272-1.306,11-.086,4.029-.94,8.28-3.686,11.23s-7.815,3.977-10.844,1.319c-1.581-1.388-2.347-3.461-3.029-5.452a266.89,266.89,0,0,1-8.2-29.273c-.509,2.261-2.494,5.175-4.391,3.843a3.931,3.931,0,0,1-1.012-1.3c-3.538-6-10.089-9.592-16.709-11.749s-13.584-3.162-20.13-5.532a50.988,50.988,0,0,1-10.442-5.2,8.213,8.213,0,0,0-.5,8.4,6.692,6.692,0,0,0,7.551,3.16c1.454-.464,2.681-1.473,4.123-1.972s3.378-.254,4.009,1.136c.6,1.33-.309,2.939.144,4.328.689,2.115,3.879,2.278,4.995,4.2.83,1.432.147,3.334-1.038,4.489a18.785,18.785,0,0,1-4.213,2.594c-4.693,2.61-8.031,7.065-12.133,10.532s-9.889,6-14.777,3.774c1.165-5.9-5.863-10.232-7.156-16.106-.426-1.933-.2-3.987-.813-5.871-.88-2.728-3.3-4.6-5.285-6.67a26.179,26.179,0,0,1-7.181-19.047c.107-2.428.553-4.895,0-7.261s-2.512-4.656-4.94-4.549c-5.544.245-12.529.657-15.438-4.069-1.038-1.687-1.49-4.158.011-5.45,1.059-.912,2.622-.826,4.013-.689l12.492,1.229c2.922.287,6.08.525,8.588-1s3.594-5.582,1.272-7.379c-1.7-1.313-4.736-1.242-5.229-3.33-.411-1.739,1.514-3.712.474-5.165-.745-1.042-2.421-.753-3.436.028s-1.752,1.923-2.888,2.515c-1.993,1.037-4.375.05-6.52-.621s-5.02-.728-6.06,1.264c-1.163,2.228,1.032,5.147-.123,7.379-1.526,2.951-6.7,1.271-8.84,3.81-2.46,2.913,1.674,7.257.844,10.978a6.834,6.834,0,0,1-6.733-.378,6.54,6.54,0,0,1-2.826-6.089c.205-1.674,1.078-3.383.493-4.965a5.825,5.825,0,0,0-2.951-2.7l-12.14-6.708c-1.127,2.091.3,4.683,2.08,6.253s4.014,2.753,5.185,4.82a6.327,6.327,0,0,1-2.381,8.341,1.46,1.46,0,0,1-1.2.21,1.679,1.679,0,0,1-.78-1.049c-2.142-5.481-5.358-10.886-10.5-13.749s-12.529-2.275-15.9,2.549c-.8,1.146-1.338,2.452-2.036,3.663-3.706,6.435-11.652,9.483-19.076,9.284a3.788,3.788,0,0,1-2.081-.489c-1.2-.829-1.146-2.587-.962-4.033l.779-6.139c.156-1.233.383-2.6,1.359-3.365,1.375-1.085,3.359-.4,5.111-.425a6.477,6.477,0,0,0,5.879-4.537,7.3,7.3,0,0,0-2.032-7.259c-.8-.754-1.88-1.7-1.456-2.717a2.247,2.247,0,0,1,1.575-1.061c3.146-.914,6.47-1.153,9.564-2.231s6.094-3.283,6.826-6.476c.225-.979.327-2.164,1.206-2.649a3.616,3.616,0,0,1,1.393-.285,6.78,6.78,0,0,0,5.816-7.068c1.483-1.036,3.56-.274,4.994.828s2.7,2.558,4.446,3.033c3.252.885,6.4-1.994,9.766-2.008,1.417-.006,2.885.5,4.218.015,1.352-.487,2.159-1.833,3.2-2.827s2.858-1.6,3.816-.53l-.816-6.043A11.88,11.88,0,0,0,421.3,195l-10.544-3.563a2.292,2.292,0,0,1-.986-.527c-.767-.825-.005-2.112.618-3.05,1.491-2.245,1.742-5.942-.711-7.06-1.674-.763-3.6.153-5.2,1.049l-7.7,4.291c-.245,1.463,1.544,2.292,2.653,3.277a4.448,4.448,0,0,1-2.9,7.772,5.542,5.542,0,0,1,.99,4.7l-5.178.372a2.243,2.243,0,0,1-1.679-.328c-.554-.492-.479-1.354-.607-2.083a4.521,4.521,0,0,0-3.793-3.311,13.341,13.341,0,0,0-5.3.49,3.164,3.164,0,0,1-2.279-.053,2.276,2.276,0,0,1-.9-1.138,5.846,5.846,0,0,1,1.177-5.613,31.147,31.147,0,0,1,4.414-4.06,25.729,25.729,0,0,0,7.651-11.866c2.85-1.194,5.8-2.817,8.652-4.011a26.474,26.474,0,0,1,14.23-2.757l9.653.184c2.858.055,5.793.125,8.436,1.214s4.965,3.446,5.147,6.3A1.934,1.934,0,0,1,436.52,177a2.281,2.281,0,0,1-1.22.275C432.635,177.366,431.5,178.03,428.833,178.123Z" transform="translate(-7.87 -8.753)" fill="#3f3d56"/>
      <path id="Path_588" data-name="Path 588" d="M351.891,208.377a2.825,2.825,0,0,0,.77-2.841,5.284,5.284,0,0,0-5.471,1.033,9.223,9.223,0,0,0-1.466,1.938c-1.268,2.069-2.39,4.541-1.655,6.855a1.947,1.947,0,0,0,.891,1.219,2.343,2.343,0,0,0,1.039.163,34.816,34.816,0,0,0,4.18-.257c.852-.1,1.841-.345,2.17-1.137.433-1.042-.615-2.221-.309-3.307a3.612,3.612,0,0,1,.892-1.277,1.689,1.689,0,0,0,.526-1.418c-.123-.51-.9-.8-1.184-.356" transform="translate(-7.87 -8.753)" fill="#3f3d56"/>
      <path id="Path_589" data-name="Path 589" d="M359.137,198.982a11.7,11.7,0,0,0-3.788-.238,1.652,1.652,0,0,0-.807.183,1.347,1.347,0,0,0-.5.72,3.579,3.579,0,0,0,2.084,4.386,4.477,4.477,0,0,1,1.292.519c1.071.831.388,2.53.591,3.871.228,1.506,1.685,2.769,1.418,4.269-.211,1.181-1.472,2.116-1.269,3.3.213,1.238,1.784,1.611,3.037,1.71a3.82,3.82,0,0,0,2.152-.247,3.332,3.332,0,0,0,1.357-1.966,12.6,12.6,0,0,0,.635-4.745,4.5,4.5,0,0,0-.535-2.094,11.691,11.691,0,0,0-1.25-1.432C361.155,204.427,363.682,200.263,359.137,198.982Z" transform="translate(-7.87 -8.753)" fill="#3f3d56"/>
      <path id="Path_590" data-name="Path 590" d="M674.716,417.662S490.909,312.154,411.778,332.145c0,0-167.7,18.047-187.138,57.752,0,0-53.309-166.592-72.745-172.144" transform="translate(-7.87 -8.753)" fill="rgba(0,0,0,0)" stroke="#304d71" stroke-miterlimit="10" stroke-width="1.346" opacity="0.8"/>
      <path id="Path_591" data-name="Path 591" d="M224.64,389.9c30.82-82.185,308.472-173.255,308.472-173.255-39.427,10-121.334,115.5-121.334,115.5S238.523,206.09,151.895,217.752c0,0,381.494,12.494,522.82,199.909" transform="translate(-7.87 -8.753)" fill="rgba(0,0,0,0)" stroke="#304d71" stroke-miterlimit="10" stroke-width="1.346" opacity="0.8"/>
      <circle id="Ellipse_2717" data-name="Ellipse 2717" cx="8.052" cy="8.052" r="8.052" transform="translate(135.974 200.947)" fill="#304d71"/>
      <circle id="Ellipse_2718" data-name="Ellipse 2718" cx="8.052" cy="8.052" r="8.052" transform="translate(208.719 373.091)" fill="#304d71"/>
      <circle id="Ellipse_2719" data-name="Ellipse 2719" cx="8.052" cy="8.052" r="8.052" transform="translate(517.19 199.836)" fill="#304d71"/>
      <circle id="Ellipse_2720" data-name="Ellipse 2720" cx="8.052" cy="8.052" r="8.052" transform="translate(658.794 400.856)" fill="#304d71"/>
      <circle id="Ellipse_2721" data-name="Ellipse 2721" cx="8.052" cy="8.052" r="8.052" transform="translate(395.856 315.339)" fill="#304d71"/>
    </g>
  </g>
</svg>
