<svg xmlns="http://www.w3.org/2000/svg" xmlns:xlink="http://www.w3.org/1999/xlink" width="256.97" height="257" viewBox="0 0 256.97 257"><defs><linearGradient id="a" x2="0" y2="1" gradientUnits="objectBoundingBox"><stop offset="0" stop-color="#f9aa4b"/><stop offset="1" stop-color="#f7931a"/></linearGradient></defs><path d="M253.124,159.586A128.454,128.454,0,1,1,159.553,3.845a128.465,128.465,0,0,1,93.571,155.74Z" transform="translate(0 0)" fill="url(#a)"/><path d="M122.855,65.592c2.558-17.1-10.461-26.29-28.262-32.422l5.774-23.162-14.1-3.514L80.647,29.046c-3.706-.924-7.513-1.795-11.3-2.658l5.662-22.7L60.923.174,55.144,23.328c-3.068-.7-6.08-1.389-9-2.116l.016-.072L26.714,16.285,22.963,31.343s10.461,2.4,10.24,2.546c5.71,1.426,6.742,5.2,6.569,8.2L33.2,68.475a11.678,11.678,0,0,1,1.466.47c-.47-.116-.972-.245-1.49-.369l-9.22,36.963a5.132,5.132,0,0,1-6.461,3.349c.141.2-10.248-2.558-10.248-2.558l-7,16.139,18.347,4.574c3.413.855,6.758,1.751,10.051,2.594l-5.835,23.427,14.083,3.514L42.668,133.4c3.847,1.044,7.581,2.008,11.236,2.915l-5.758,23.07,14.1,3.514,5.835-23.383c24.041,4.55,42.119,2.715,49.729-19.03,6.132-17.508-.305-27.607-12.954-34.193,9.212-2.124,16.151-8.184,18-20.7ZM90.642,110.763c-4.357,17.508-33.835,8.043-43.392,5.67L54.992,85.4C64.549,87.782,95.2,92.5,90.642,110.763ZM95,65.339c-3.975,15.926-28.511,7.834-36.47,5.851l7.019-28.149C73.512,45.024,99.143,48.727,95,65.339Z" transform="translate(62.265 44.602)" fill="#fff"/></svg>