<svg xmlns="http://www.w3.org/2000/svg" width="176.125" height="153" viewBox="0 0 176.125 153">
  <defs>
    <style>
      .cls-1 {
        fill: #041329;
        fill-rule: evenodd;
      }
    </style>
  </defs>
  <path id="Premium_Market_Rates" data-name="Premium Market Rates" class="cls-1" d="M713.064,3460.97v-7.11h5.1c4.321,0,6.722-2.98,6.722-6.46,0-3.51-2.371-6.45-6.722-6.45H708.8v20.02h4.261Zm4.531-10.87h-4.531v-5.4H717.6A2.71,2.71,0,1,1,717.6,3450.1Zm13.649,10.87v-9.58a4.854,4.854,0,0,1,3.57-1.65,5.064,5.064,0,0,1,1.051.09v-3.72a6.228,6.228,0,0,0-4.621,2.34v-1.98h-3.811v14.5h3.811Zm13.8,0.36a9.035,9.035,0,0,0,5.971-2.01l-1.68-2.46a6.175,6.175,0,0,1-3.871,1.44,3.9,3.9,0,0,1-4.171-3.36h10.772v-0.84c0-4.75-2.94-7.99-7.261-7.99a7.378,7.378,0,0,0-7.5,7.6C737.3,3458.36,740.633,3461.33,745.044,3461.33Zm3.331-8.97h-7.142a3.483,3.483,0,0,1,3.571-3.22A3.359,3.359,0,0,1,748.375,3452.36Zm28.262,8.61v-10.48c0-2.97-1.59-4.38-4.261-4.38a6.151,6.151,0,0,0-4.981,2.64,3.835,3.835,0,0,0-4.021-2.64,6.34,6.34,0,0,0-4.741,2.25v-1.89h-3.811v14.5h3.811v-9.76a3.889,3.889,0,0,1,3-1.71c1.56,0,2.16.96,2.16,2.32v9.15h3.841v-9.79a3.847,3.847,0,0,1,3-1.68c1.56,0,2.16.96,2.16,2.32v9.15h3.841Zm5.635-16.06a2.279,2.279,0,0,0,2.281-2.28,2.281,2.281,0,0,0-4.561,0A2.3,2.3,0,0,0,782.272,3444.91Zm1.921,16.06v-14.5h-3.811v14.5h3.811Zm17.372,0v-14.5h-3.811v9.82a4.267,4.267,0,0,1-3.3,1.65c-1.62,0-2.671-.66-2.671-2.67v-8.8h-3.81v10.3c0,2.82,1.5,4.56,4.681,4.56a6.784,6.784,0,0,0,5.1-2.19v1.83h3.811Zm25.591,0v-10.48c0-2.97-1.59-4.38-4.261-4.38a6.151,6.151,0,0,0-4.981,2.64,3.835,3.835,0,0,0-4.021-2.64,6.34,6.34,0,0,0-4.741,2.25v-1.89h-3.811v14.5h3.811v-9.76a3.891,3.891,0,0,1,3-1.71c1.56,0,2.16.96,2.16,2.32v9.15h3.841v-9.79a3.849,3.849,0,0,1,3-1.68c1.56,0,2.16.96,2.16,2.32v9.15h3.841Zm-125.083,36v-20.02h-6l-4.861,12.1-4.861-12.1h-5.972v20.02h4.261v-14.02l5.641,14.02h1.861l5.641-14.02v14.02h4.291Zm16.378,0v-9.37c0-4.17-3.031-5.49-6.332-5.49a9.508,9.508,0,0,0-6.331,2.28l1.44,2.55a6.1,6.1,0,0,1,4.231-1.71c1.921,0,3.181.96,3.181,2.43v1.96a5.963,5.963,0,0,0-4.591-1.77c-2.31,0-5.041,1.29-5.041,4.68a4.828,4.828,0,0,0,5.041,4.8,6,6,0,0,0,4.591-1.86v1.5h3.811Zm-6.872-2.22c-1.5,0-2.73-.78-2.73-2.13,0-1.41,1.23-2.19,2.73-2.19a3.812,3.812,0,0,1,3.061,1.26v1.8A3.812,3.812,0,0,1,711.579,3494.75Zm14.46,2.22v-9.58a4.854,4.854,0,0,1,3.571-1.65,5.06,5.06,0,0,1,1.05.09v-3.72a6.23,6.23,0,0,0-4.621,2.34v-1.98h-3.811v14.5h3.811Zm21.152,0-5.912-7.92,5.732-6.58H742.33l-5.492,6.46v-11.98h-3.81v20.02h3.81v-3.72l1.741-1.86,3.841,5.58h4.771Zm8.518,0.36a9.035,9.035,0,0,0,5.971-2.01l-1.68-2.46a6.175,6.175,0,0,1-3.871,1.44,3.9,3.9,0,0,1-4.171-3.36H762.73v-0.84c0-4.75-2.94-7.99-7.261-7.99a7.378,7.378,0,0,0-7.5,7.6C747.967,3494.36,751.3,3497.33,755.709,3497.33Zm3.331-8.97H751.9a3.483,3.483,0,0,1,3.571-3.22A3.359,3.359,0,0,1,759.04,3488.36Zm11.308,8.97a4.7,4.7,0,0,0,3.181-.93l-0.81-2.88a2.082,2.082,0,0,1-1.321.42,1.392,1.392,0,0,1-1.32-1.59v-6.55h2.941v-3.33h-2.941v-3.96h-3.841v3.96h-2.4v3.33h2.4v7.57C766.237,3495.95,767.678,3497.33,770.348,3497.33Zm29.252-.36-4.5-7.62a5.754,5.754,0,0,0,4.38-5.95c0-3.72-2.55-6.45-6.721-6.45H783.4v20.02h4.261v-7.11h3.121l3.93,7.11H799.6Zm-7.471-10.87h-4.471v-5.4h4.471A2.715,2.715,0,1,1,792.129,3486.1Zm22.381,10.87v-9.37c0-4.17-3.031-5.49-6.332-5.49a9.508,9.508,0,0,0-6.331,2.28l1.44,2.55a6.1,6.1,0,0,1,4.231-1.71c1.921,0,3.181.96,3.181,2.43v1.96a5.963,5.963,0,0,0-4.591-1.77c-2.311,0-5.041,1.29-5.041,4.68a4.827,4.827,0,0,0,5.041,4.8,6,6,0,0,0,4.591-1.86v1.5h3.811Zm-6.872-2.22c-1.5,0-2.73-.78-2.73-2.13,0-1.41,1.23-2.19,2.73-2.19a3.813,3.813,0,0,1,3.061,1.26v1.8A3.813,3.813,0,0,1,807.638,3494.75Zm15.51,2.58a4.707,4.707,0,0,0,3.181-.93l-0.81-2.88a2.087,2.087,0,0,1-1.321.42,1.392,1.392,0,0,1-1.32-1.59v-6.55h2.941v-3.33h-2.941v-3.96h-3.841v3.96h-2.4v3.33h2.4v7.57C819.037,3495.95,820.477,3497.33,823.148,3497.33Zm12.09,0a9.037,9.037,0,0,0,5.972-2.01l-1.681-2.46a6.173,6.173,0,0,1-3.871,1.44,3.9,3.9,0,0,1-4.17-3.36H842.26v-0.84c0-4.75-2.941-7.99-7.262-7.99a7.377,7.377,0,0,0-7.5,7.6C827.5,3494.36,830.827,3497.33,835.238,3497.33Zm3.331-8.97h-7.141a3.483,3.483,0,0,1,3.57-3.22A3.358,3.358,0,0,1,838.569,3488.36Zm11.669,8.97c4.021,0,6.271-2.01,6.271-4.65,0-5.86-8.582-4.05-8.582-6.22,0-.81.9-1.44,2.281-1.44a6.115,6.115,0,0,1,4.291,1.68l1.53-2.61a9.259,9.259,0,0,0-5.851-1.98c-3.811,0-5.942,2.13-5.942,4.56,0,5.71,8.612,3.76,8.612,6.16,0,0.9-.78,1.56-2.43,1.56a8.294,8.294,0,0,1-5.011-1.98l-1.651,2.67A9.759,9.759,0,0,0,850.238,3497.33Z" transform="translate(-680.375 -3344.31)"/>
  <path class="cls-1" d="M769.039,3344.32a115.571,115.571,0,0,1,11.986,2.08c2.219,0.56,3.136,1.4,2.31,3.8-2.033,5.91-3.9,11.87-5.853,17.81-0.582,1.77-1.422,2.37-3.5,1.57-8.663-3.36-8.7-3.27-8.7-12.63,0-3.13-.05-6.26.016-9.4S765.657,3344.18,769.039,3344.32Zm42.525,28.74a2.472,2.472,0,0,1-1.3,2.64c-3.688,2.67-7.407,5.3-11.068,8.01-1.6,1.18-2.633.91-3.886-.65-5.592-6.97-5.637-6.93-.35-14.34,0.3-.43.595-0.86,0.9-1.28,4.98-6.96,4.992-6.97,10.9-.44A33.3,33.3,0,0,1,811.564,3373.06Zm-7.494,22.99a2.732,2.732,0,0,1-.717.09c-3.5-1.52-2.879-5.54-4.827-8.03-1.01-1.3-.11-2.41,1.086-3.26,3.827-2.75,7.651-5.5,11.419-8.32,1.544-1.16,2.56-.86,3.447.74a72.777,72.777,0,0,1,5.059,11.04c0.452,1.28.506,2.45-.9,2.93C813.7,3392.95,808.723,3394.53,804.07,3396.05Zm9.8,12.85H812.3c-7.447,0-7.283-.03-8.934-7.25-0.666-2.92-.2-4.29,2.816-5.07,4.035-1.04,7.992-2.43,11.909-3.87,2.125-.78,3.189-0.32,3.661,1.89a75.892,75.892,0,0,1,1.639,10.84c0.168,2.52-.62,3.66-3.247,3.49C818.064,3408.79,815.964,3408.9,813.872,3408.9Zm-25.195-34.53c-1.989-.36-3.018-1.84-4.346-2.84-5.542-4.16-5.525-4.19-3.376-10.84,0.4-1.24.838-2.47,1.246-3.71,1.9-5.78,1.931-5.84,7.447-2.99,2.66,1.38,5.188,3.03,7.724,4.63,1.162,0.74,2.1,1.7,1,3.21-2.755,3.82-5.49,7.65-8.28,11.44A6.093,6.093,0,0,1,788.677,3374.37Zm-24.8-19.08c0,0.26,0,.52,0,0.78-0.048,6.4.688,6.76-6.34,5.78a11.352,11.352,0,0,0-1.168-.07c-7.415-.28-7.835-0.68-9.289-8.02-0.33-1.66-.14-2.74,1.681-3.26a69.011,69.011,0,0,1,12.259-2.2c2.006-.21,2.9.72,2.851,2.69-0.034,1.43-.007,2.86-0.007,4.3h0.013Zm5.42,16.57c-3.254,11.65-6.445,23.33-9.812,34.95a3.655,3.655,0,0,1-5.321,2.48c-2.647-1.14-3.016-3.43-1.775-5.91,3.446-6.89,6.936-13.75,10.416-20.62q2.819-5.565,5.66-11.12C768.747,3371.71,769.024,3371.79,769.3,3371.86Zm-15.759,34.05a2.211,2.211,0,0,0,2.054,1.88,1.919,1.919,0,0,0,2.085-2.25,1.789,1.789,0,0,0-2.124-1.78C754.314,3403.81,753.753,3404.63,753.543,3405.91ZM747.908,3360c0.225,2.17-1.067,2.32-2.177,2.68-2.479.8-4.989,1.53-7.417,2.47-3.809,1.47-6.815.01-7.833-3.87-0.395-1.5.5-2.16,1.477-2.84a68.766,68.766,0,0,1,10.225-5.75c2.274-1.09,3.4-.43,4.04,1.81C746.8,3356.5,747.441,3358.49,747.908,3360Zm-19.775,1.53c2.1,0.9,2.921,2.78,3.966,4.36,0.989,1.5-.2,2.34-1.364,3.1a38.455,38.455,0,0,0-7.827,6.49c-1.588,1.77-2.893,1.03-4.4-.05-1.818-1.3-1.287-2.57-.2-3.96a60.578,60.578,0,0,1,7.958-8.65A18.916,18.916,0,0,1,728.133,3361.53Zm-17.413,29.86c-1.428-.32-1.973-1.24-1.479-2.83a49.034,49.034,0,0,1,5.427-11.67c0.961-1.53,2.067-1.25,3.29-.37,1.081,0.78,2.383,1.53,1.175,3.08a54.434,54.434,0,0,0-6.367,10.76A1.715,1.715,0,0,1,710.72,3391.39Zm-4.846,15.17a61.632,61.632,0,0,1,1.741-12c0.316-1.16.621-2.54,2.173-2.19,1.726,0.39,1.588,1.86,1.168,3.18a57.293,57.293,0,0,0-2.24,11.11c-0.107.96,0.215,2.28-1.465,2.15C705.421,3408.67,705.882,3407.28,705.874,3406.56Z" transform="translate(-680.375 -3344.31)"/>
</svg>
