<svg xmlns="http://www.w3.org/2000/svg" width="179.63" height="153" viewBox="0 0 179.63 153">
  <defs>
    <style>
      .cls-1 {
        fill: #041329;
        fill-rule: evenodd;
      }
    </style>
  </defs>
  <path id="User_Friendly_Service" data-name="User Friendly Service" class="cls-1" d="M1012.63,3461.33c6.09,0,9.04-3.39,9.04-8.37v-12.01h-4.36v11.89c0,2.79-1.59,4.71-4.68,4.71a4.335,4.335,0,0,1-4.71-4.71v-11.89h-4.32v12.04C1003.6,3457.91,1006.54,3461.33,1012.63,3461.33Zm18.09,0c4.02,0,6.27-2.01,6.27-4.65,0-5.86-8.58-4.05-8.58-6.22,0-.81.9-1.44,2.28-1.44a6.113,6.113,0,0,1,4.29,1.68l1.53-2.61a9.256,9.256,0,0,0-5.85-1.98c-3.81,0-5.94,2.13-5.94,4.56,0,5.71,8.61,3.76,8.61,6.16,0,0.9-.78,1.56-2.43,1.56a8.294,8.294,0,0,1-5.01-1.98l-1.65,2.67A9.754,9.754,0,0,0,1030.72,3461.33Zm15.9,0a9.032,9.032,0,0,0,5.97-2.01l-1.68-2.46a6.172,6.172,0,0,1-3.87,1.44,3.9,3.9,0,0,1-4.17-3.36h10.77v-0.84c0-4.75-2.94-7.99-7.26-7.99a7.377,7.377,0,0,0-7.5,7.6C1038.88,3458.36,1042.21,3461.33,1046.62,3461.33Zm3.33-8.97h-7.14a3.483,3.483,0,0,1,3.57-3.22A3.358,3.358,0,0,1,1049.95,3452.36Zm10.26,8.61v-9.58a4.854,4.854,0,0,1,3.57-1.65,5.06,5.06,0,0,1,1.05.09v-3.72a6.228,6.228,0,0,0-4.62,2.34v-1.98h-3.81v14.5h3.81Zm19.02,0v-8.28h9.69v-3.76h-9.69v-4.23h9.9v-3.75h-14.16v20.02h4.26Zm16.59,0v-9.58a4.854,4.854,0,0,1,3.57-1.65,5.06,5.06,0,0,1,1.05.09v-3.72a6.228,6.228,0,0,0-4.62,2.34v-1.98h-3.81v14.5h3.81Zm8.88-16.06a2.279,2.279,0,0,0,2.28-2.28,2.28,2.28,0,0,0-4.56,0A2.3,2.3,0,0,0,1104.7,3444.91Zm1.92,16.06v-14.5h-3.81v14.5h3.81Zm10.59,0.36a9.032,9.032,0,0,0,5.97-2.01l-1.68-2.46a6.172,6.172,0,0,1-3.87,1.44,3.9,3.9,0,0,1-4.17-3.36h10.77v-0.84c0-4.75-2.94-7.99-7.26-7.99a7.377,7.377,0,0,0-7.5,7.6C1109.47,3458.36,1112.8,3461.33,1117.21,3461.33Zm3.33-8.97h-7.14a3.483,3.483,0,0,1,3.57-3.22A3.358,3.358,0,0,1,1120.54,3452.36Zm20.04,8.61v-10.24c0-2.82-1.53-4.62-4.71-4.62a6.635,6.635,0,0,0-5.07,2.25v-1.89h-3.81v14.5h3.81v-9.76a4.127,4.127,0,0,1,3.3-1.71c1.62,0,2.67.69,2.67,2.71v8.76h3.81Zm17.58,0v-20.02h-3.84v7.38a5.58,5.58,0,0,0-4.47-2.22c-3.69,0-6.42,2.88-6.42,7.63,0,4.83,2.76,7.59,6.42,7.59a5.625,5.625,0,0,0,4.47-2.22v1.86h3.84Zm-7.14-3.03c-2.16,0-3.66-1.71-3.66-4.2,0-2.53,1.5-4.24,3.66-4.24a4.145,4.145,0,0,1,3.3,1.65v5.14A4.145,4.145,0,0,1,1151.02,3457.94Zm14.73,3.03v-20.02h-3.81v20.02h3.81Zm3.27,5.67a10.414,10.414,0,0,0,1.89.21c2.49-.06,4.41-0.78,5.49-3.51l6.81-16.87h-4.11l-3.78,10.09-3.78-10.09h-4.08l5.88,14.71-0.54,1.23a1.922,1.922,0,0,1-2.01,1.05,3.292,3.292,0,0,1-1.2-.24Zm-117.57,30.69c5.4,0,8.01-2.76,8.01-6.42,0-7.48-11.49-5.35-11.49-8.53,0-1.2,1.02-2.01,2.85-2.01a8.6,8.6,0,0,1,5.82,2.19l2.37-3.12a11.13,11.13,0,0,0-7.8-2.79c-4.71,0-7.59,2.76-7.59,6.09,0,7.54,11.52,5.11,11.52,8.65,0,1.14-1.14,2.22-3.48,2.22a8.773,8.773,0,0,1-6.36-2.7l-2.31,3.24A11.406,11.406,0,0,0,1051.45,3497.33Zm17.61,0a9.032,9.032,0,0,0,5.97-2.01l-1.68-2.46a6.172,6.172,0,0,1-3.87,1.44,3.9,3.9,0,0,1-4.17-3.36h10.77v-0.84c0-4.75-2.94-7.99-7.26-7.99a7.377,7.377,0,0,0-7.5,7.6C1061.32,3494.36,1064.65,3497.33,1069.06,3497.33Zm3.33-8.97h-7.14a3.483,3.483,0,0,1,3.57-3.22A3.358,3.358,0,0,1,1072.39,3488.36Zm10.26,8.61v-9.58a4.854,4.854,0,0,1,3.57-1.65,5.06,5.06,0,0,1,1.05.09v-3.72a6.228,6.228,0,0,0-4.62,2.34v-1.98h-3.81v14.5h3.81Zm14.85,0,5.82-14.5h-4.11l-3.78,10.09-3.78-10.09h-4.08l5.82,14.5h4.11Zm9.42-16.06a2.279,2.279,0,0,0,2.28-2.28,2.28,2.28,0,0,0-4.56,0A2.3,2.3,0,0,0,1106.92,3480.91Zm1.92,16.06v-14.5h-3.81v14.5h3.81Zm10.53,0.36a6.678,6.678,0,0,0,5.73-2.64l-2.49-2.31a3.657,3.657,0,0,1-3.06,1.56,4.231,4.231,0,0,1,0-8.44,3.514,3.514,0,0,1,3.06,1.56l2.49-2.34a6.743,6.743,0,0,0-5.73-2.61A7.61,7.61,0,1,0,1119.37,3497.33Zm15.03,0a9.032,9.032,0,0,0,5.97-2.01l-1.68-2.46a6.172,6.172,0,0,1-3.87,1.44,3.9,3.9,0,0,1-4.17-3.36h10.77v-0.84c0-4.75-2.94-7.99-7.26-7.99a7.377,7.377,0,0,0-7.5,7.6C1126.66,3494.36,1129.99,3497.33,1134.4,3497.33Zm3.33-8.97h-7.14a3.483,3.483,0,0,1,3.57-3.22A3.358,3.358,0,0,1,1137.73,3488.36Z" transform="translate(-1003.59 -3344.31)"/>
  <path class="cls-1" d="M1046.18,3386.39h-7.65v-42.08h7.65v42.08Zm16.89,9.56a3.493,3.493,0,0,1-2.48-5.96l10.22-10.23a3.5,3.5,0,0,1,5.97,2.48,3.514,3.514,0,0,1-1.02,2.47l-10.22,10.22h-0.01a3.449,3.449,0,0,1-2.46,1.02h0Zm7.65,7.66a3.5,3.5,0,0,1-2.48-5.97h0l10.22-10.23a3.5,3.5,0,0,1,5.97,2.48,3.514,3.514,0,0,1-1.02,2.47l-10.22,10.22h0a3.482,3.482,0,0,1-2.47,1.03h0Zm7.65,7.65a3.5,3.5,0,0,1-2.48-5.97h0l10.22-10.22a3.5,3.5,0,0,1,4.95,4.94l-10.22,10.22h0a3.482,3.482,0,0,1-2.47,1.03h0Zm10.12,6.62a3.5,3.5,0,0,1-4.95-4.94h0l10.22-10.22a3.5,3.5,0,0,1,4.95,4.94Zm13.48,1.03a3.482,3.482,0,0,1-2.47-1.03l-2.8-2.8,4.71-4.71c0.08-.08.14-0.18,0.21-0.26l2.83,2.83a3.5,3.5,0,0,1-2.48,5.97h0Zm22.96-22.96a3.478,3.478,0,0,1-2.48-1.02l-4.15-4.15a1.9,1.9,0,0,0-2.7,0,1.884,1.884,0,0,0,0,2.7l4.15,4.16a3.5,3.5,0,1,1-4.95,4.94l-4.15-4.15a1.913,1.913,0,1,0-2.71,2.7l4.16,4.16a3.5,3.5,0,1,1-4.95,4.94l-3.72-3.72a7.2,7.2,0,0,0,.13-1.32,7.332,7.332,0,0,0-7.33-7.32c-0.12,0-.24.03-0.36,0.03,0.01-.12.04-0.24,0.04-0.36a7.332,7.332,0,0,0-7.33-7.32c-0.12,0-.24.03-0.36,0.03,0.01-.12.04-0.24,0.04-0.36a7.332,7.332,0,0,0-7.33-7.32c-0.12,0-.24.02-0.36,0.03,0.01-.12.04-0.24,0.04-0.36a7.326,7.326,0,0,0-12.5-5.18l-5.51,5.51h-6.22l-6.38-4.79v-29.64h35.42a9.493,9.493,0,0,1,6.76,2.8l1.02,1.02-10.05,10.06a8.676,8.676,0,0,0,12.27,12.27l8.14-8.15,23.84,23.85a3.493,3.493,0,0,1-2.47,5.96h0Zm6.68-13.38h-6.22l-20.48-20.48a1.957,1.957,0,0,0-2.7,0l-9.5,9.49a4.785,4.785,0,0,1-3.43,1.42,4.851,4.851,0,0,1-3.43-8.28l16.59-16.58h35.55v29.64Zm17.85,3.82h-7.65v-42.08h7.65v42.08Z" transform="translate(-1003.59 -3344.31)"/>
</svg>
