<svg xmlns="http://www.w3.org/2000/svg" width="162.625" height="139.5" viewBox="0 0 162.625 139.5">
  <defs>
    <style>
      .cls-1 {
        fill: #041329;
        fill-rule: evenodd;
      }
    </style>
  </defs>
  <path id="Fast_Service" data-name="Fast Service" class="cls-1" d="M373.82,3478.97v-8.28h9.692v-3.76H373.82v-4.23h9.9v-3.75H369.559v20.02h4.261Zm25.291,0v-9.37c0-4.17-3.03-5.49-6.331-5.49a9.508,9.508,0,0,0-6.331,2.28l1.44,2.55a6.1,6.1,0,0,1,4.231-1.71c1.92,0,3.181.96,3.181,2.43v1.96a5.964,5.964,0,0,0-4.591-1.77c-2.311,0-5.041,1.29-5.041,4.68a4.827,4.827,0,0,0,5.041,4.8,6,6,0,0,0,4.591-1.86v1.5h3.81Zm-6.871-2.22c-1.5,0-2.731-.78-2.731-2.13,0-1.41,1.231-2.19,2.731-2.19a3.814,3.814,0,0,1,3.061,1.26v1.8A3.814,3.814,0,0,1,392.24,3476.75Zm15.87,2.58c4.021,0,6.271-2.01,6.271-4.65,0-5.86-8.582-4.05-8.582-6.22,0-.81.9-1.44,2.281-1.44a6.115,6.115,0,0,1,4.291,1.68l1.53-2.61a9.259,9.259,0,0,0-5.851-1.98c-3.811,0-5.941,2.13-5.941,4.56,0,5.71,8.611,3.76,8.611,6.16,0,0.9-.78,1.56-2.43,1.56a8.294,8.294,0,0,1-5.011-1.98l-1.651,2.67A9.759,9.759,0,0,0,408.11,3479.33Zm13.949,0a4.7,4.7,0,0,0,3.181-.93l-0.81-2.88a2.081,2.081,0,0,1-1.32.42,1.392,1.392,0,0,1-1.321-1.59v-6.55h2.941v-3.33h-2.941v-3.96h-3.84v3.96h-2.4v3.33h2.4v7.57C417.949,3477.95,419.389,3479.33,422.059,3479.33Zm20.161,0c5.4,0,8.011-2.76,8.011-6.42,0-7.48-11.492-5.35-11.492-8.53,0-1.2,1.02-2.01,2.851-2.01a8.6,8.6,0,0,1,5.821,2.19l2.37-3.12a11.133,11.133,0,0,0-7.8-2.79c-4.711,0-7.592,2.76-7.592,6.09,0,7.54,11.523,5.11,11.523,8.65,0,1.14-1.141,2.22-3.481,2.22a8.778,8.778,0,0,1-6.362-2.7l-2.31,3.24A11.409,11.409,0,0,0,442.22,3479.33Zm17.609,0a9.037,9.037,0,0,0,5.972-2.01l-1.681-2.46a6.173,6.173,0,0,1-3.871,1.44,3.9,3.9,0,0,1-4.17-3.36h10.772v-0.84c0-4.75-2.941-7.99-7.262-7.99a7.377,7.377,0,0,0-7.5,7.6C452.088,3476.36,455.418,3479.33,459.829,3479.33Zm3.331-8.97h-7.141a3.483,3.483,0,0,1,3.57-3.22A3.358,3.358,0,0,1,463.16,3470.36Zm10.259,8.61v-9.58a4.854,4.854,0,0,1,3.57-1.65,5.077,5.077,0,0,1,1.051.09v-3.72a6.228,6.228,0,0,0-4.621,2.34v-1.98h-3.811v14.5h3.811Zm14.85,0,5.821-14.5h-4.111l-3.781,10.09-3.78-10.09h-4.081l5.821,14.5h4.111Zm9.418-16.06a2.28,2.28,0,0,0,2.281-2.28,2.281,2.281,0,0,0-4.561,0A2.3,2.3,0,0,0,497.687,3462.91Zm1.921,16.06v-14.5H495.8v14.5h3.811Zm10.53,0.36a6.679,6.679,0,0,0,5.731-2.64l-2.49-2.31a3.66,3.66,0,0,1-3.061,1.56,4.231,4.231,0,0,1,0-8.44,3.517,3.517,0,0,1,3.061,1.56l2.49-2.34a6.743,6.743,0,0,0-5.731-2.61A7.61,7.61,0,1,0,510.138,3479.33Zm15.03,0a9.035,9.035,0,0,0,5.971-2.01l-1.68-2.46a6.177,6.177,0,0,1-3.871,1.44,3.9,3.9,0,0,1-4.171-3.36h10.772v-0.84c0-4.75-2.94-7.99-7.261-7.99a7.378,7.378,0,0,0-7.5,7.6C517.426,3476.36,520.757,3479.33,525.168,3479.33Zm3.33-8.97h-7.141a3.483,3.483,0,0,1,3.571-3.22A3.358,3.358,0,0,1,528.5,3470.36Z" transform="translate(-369.563 -3339.81)"/>
  <path class="cls-1" d="M423.7,3346.42q-20.43,0-40.86,0a12.417,12.417,0,0,1-2.994-.17,3.164,3.164,0,0,1-.016-6.21,10.224,10.224,0,0,1,2.66-.17c26.57,0,53.141-.07,79.711.02,20.2,0.07,35.687,15.35,35.636,34.93a35.008,35.008,0,0,1-24.28,33.13,34.161,34.161,0,0,1-38.534-12.89c-1.386-1.96-2.744-2.86-5.156-2.72-3.448.21-6.919,0.04-10.38,0.05-2.2.02-3.888-.85-3.868-3.18,0.019-2.3,1.658-3.19,3.888-3.17,5.024,0.04,10.05.11,15.071-.03,2.542-.06,3.387,1.65,4.466,3.38a28.273,28.273,0,0,0,51.506-21.88,27.831,27.831,0,0,0-26.66-21.03c-13.395-.15-26.793-0.03-40.19-0.03v-0.03Zm-9.941,8.9c6.133,0,12.267.02,18.4-.02,2.331-.01,4.522.45,4.6,3.18,0.089,3.01-2.24,3.41-4.679,3.4q-18.567-.03-37.135,0c-2.327.01-4.536-.42-4.6-3.16-0.072-2.98,2.213-3.43,4.679-3.42C401.269,3355.34,407.514,3355.32,413.759,3355.32Zm52.512,8.58c-1.22,7,.882,12.64,6.789,16.75a5.619,5.619,0,0,1,1.344,1.47,3.287,3.287,0,0,1-.4,4.56,3.038,3.038,0,0,1-4.514.08c-3.08-2.91-6.034-5.96-9.019-8.98a4.087,4.087,0,0,1-.823-3.15c0.011-6.04.04-12.08-.012-18.12-0.021-2.47.854-4.37,3.443-4.43,2.8-.06,3.312,2.03,3.214,4.44C466.193,3358.97,466.272,3361.44,466.271,3363.9Zm-48.184,6.87c3.125,0,6.249-.01,9.374,0,2.276,0,4.073.77,4.046,3.37-0.024,2.42-1.75,3.17-3.883,3.17q-9.708.015-19.417,0.01c-2.285,0-4.14-.83-4.074-3.37s1.986-3.21,4.246-3.19C411.615,3370.79,414.851,3370.77,418.087,3370.77Z" transform="translate(-369.563 -3339.81)"/>
</svg>
