<svg xmlns="http://www.w3.org/2000/svg" width="220.09" height="157.97" viewBox="0 0 220.09 157.97">
  <defs>
    <style>
      .cls-1 {
        fill: #041329;
        fill-rule: evenodd;
      }
    </style>
  </defs>
  <path id="Safe_and_Secure_Transactions" data-name="Safe and Secure Transactions" class="cls-1" d="M1338.39,3461.33c5.4,0,8.01-2.76,8.01-6.42,0-7.48-11.49-5.35-11.49-8.53,0-1.2,1.02-2.01,2.85-2.01a8.6,8.6,0,0,1,5.82,2.19l2.37-3.12a11.13,11.13,0,0,0-7.8-2.79c-4.72,0-7.6,2.76-7.6,6.09,0,7.54,11.53,5.11,11.53,8.65,0,1.14-1.14,2.22-3.48,2.22a8.8,8.8,0,0,1-6.37-2.7l-2.31,3.24A11.431,11.431,0,0,0,1338.39,3461.33Zm23.31-.36v-9.37c0-4.17-3.03-5.49-6.33-5.49a9.512,9.512,0,0,0-6.34,2.28l1.44,2.55a6.1,6.1,0,0,1,4.24-1.71c1.92,0,3.18.96,3.18,2.43v1.96a5.969,5.969,0,0,0-4.6-1.77c-2.31,0-5.04,1.29-5.04,4.68a4.827,4.827,0,0,0,5.04,4.8,6,6,0,0,0,4.6-1.86v1.5h3.81Zm-6.87-2.22c-1.51,0-2.74-.78-2.74-2.13,0-1.41,1.23-2.19,2.74-2.19a3.811,3.811,0,0,1,3.06,1.26v1.8A3.811,3.811,0,0,1,1354.83,3458.75Zm15.33,2.22V3449.8h2.94v-3.33h-2.94v-0.78a1.776,1.776,0,0,1,1.8-2.04,2.126,2.126,0,0,1,1.59.6l1.44-2.25a5.158,5.158,0,0,0-3.78-1.35,4.673,4.673,0,0,0-4.9,5.04v0.78h-2.4v3.33h2.4v11.17h3.85Zm11.94,0.36a9.032,9.032,0,0,0,5.97-2.01l-1.68-2.46a6.172,6.172,0,0,1-3.87,1.44,3.908,3.908,0,0,1-4.18-3.36h10.78v-0.84c0-4.75-2.94-7.99-7.26-7.99a7.379,7.379,0,0,0-7.51,7.6C1374.35,3458.36,1377.68,3461.33,1382.1,3461.33Zm3.33-8.97h-7.15a3.486,3.486,0,0,1,3.58-3.22A3.358,3.358,0,0,1,1385.43,3452.36Zm26.64,8.61v-9.37c0-4.17-3.03-5.49-6.34-5.49a9.505,9.505,0,0,0-6.33,2.28l1.44,2.55a6.1,6.1,0,0,1,4.23-1.71c1.93,0,3.19.96,3.19,2.43v1.96a5.984,5.984,0,0,0-4.6-1.77c-2.31,0-5.04,1.29-5.04,4.68a4.827,4.827,0,0,0,5.04,4.8,6.019,6.019,0,0,0,4.6-1.86v1.5h3.81Zm-6.88-2.22c-1.5,0-2.73-.78-2.73-2.13,0-1.41,1.23-2.19,2.73-2.19a3.818,3.818,0,0,1,3.07,1.26v1.8A3.818,3.818,0,0,1,1405.19,3458.75Zm24.25,2.22v-10.24c0-2.82-1.53-4.62-4.71-4.62a6.641,6.641,0,0,0-5.08,2.25v-1.89h-3.81v14.5h3.81v-9.76a4.131,4.131,0,0,1,3.31-1.71c1.62,0,2.67.69,2.67,2.71v8.76h3.81Zm17.58,0v-20.02h-3.84v7.38a5.6,5.6,0,0,0-4.48-2.22c-3.69,0-6.42,2.88-6.42,7.63,0,4.83,2.76,7.59,6.42,7.59a5.644,5.644,0,0,0,4.48-2.22v1.86h3.84Zm-7.15-3.03c-2.16,0-3.66-1.71-3.66-4.2,0-2.53,1.5-4.24,3.66-4.24a4.15,4.15,0,0,1,3.31,1.65v5.14A4.15,4.15,0,0,1,1439.87,3457.94Zm25.8,3.39c5.41,0,8.02-2.76,8.02-6.42,0-7.48-11.5-5.35-11.5-8.53,0-1.2,1.02-2.01,2.85-2.01a8.6,8.6,0,0,1,5.83,2.19l2.37-3.12a11.139,11.139,0,0,0-7.81-2.79c-4.71,0-7.59,2.76-7.59,6.09,0,7.54,11.53,5.11,11.53,8.65,0,1.14-1.14,2.22-3.49,2.22a8.773,8.773,0,0,1-6.36-2.7l-2.31,3.24A11.406,11.406,0,0,0,1465.67,3461.33Zm17.61,0a9.059,9.059,0,0,0,5.98-2.01l-1.68-2.46a6.2,6.2,0,0,1-3.88,1.44,3.9,3.9,0,0,1-4.17-3.36h10.78v-0.84c0-4.75-2.94-7.99-7.27-7.99a7.377,7.377,0,0,0-7.5,7.6C1475.54,3458.36,1478.87,3461.33,1483.28,3461.33Zm3.34-8.97h-7.15a3.483,3.483,0,0,1,3.57-3.22A3.367,3.367,0,0,1,1486.62,3452.36Zm13.19,8.97a6.7,6.7,0,0,0,5.74-2.64l-2.5-2.31a3.657,3.657,0,0,1-3.06,1.56,4.231,4.231,0,0,1,0-8.44,3.514,3.514,0,0,1,3.06,1.56l2.5-2.34a6.764,6.764,0,0,0-5.74-2.61A7.61,7.61,0,1,0,1499.81,3461.33Zm21.82-.36v-14.5h-3.82v9.82a4.265,4.265,0,0,1-3.3,1.65c-1.62,0-2.67-.66-2.67-2.67v-8.8h-3.81v10.3c0,2.82,1.5,4.56,4.68,4.56a6.782,6.782,0,0,0,5.1-2.19v1.83h3.82Zm7.58,0v-9.58a4.854,4.854,0,0,1,3.57-1.65,5.06,5.06,0,0,1,1.05.09v-3.72a6.228,6.228,0,0,0-4.62,2.34v-1.98h-3.81v14.5h3.81Zm13.8,0.36a9.032,9.032,0,0,0,5.97-2.01l-1.68-2.46a6.172,6.172,0,0,1-3.87,1.44,3.9,3.9,0,0,1-4.17-3.36h10.77v-0.84c0-4.75-2.94-7.99-7.26-7.99a7.377,7.377,0,0,0-7.5,7.6C1535.27,3458.36,1538.6,3461.33,1543.01,3461.33Zm3.33-8.97h-7.14a3.483,3.483,0,0,1,3.57-3.22A3.358,3.358,0,0,1,1546.34,3452.36Zm-181.39,44.61V3480.7h5.82v-3.75h-15.96v3.75h5.85v16.27h4.29Zm10.23,0v-9.58a4.854,4.854,0,0,1,3.57-1.65,5.06,5.06,0,0,1,1.05.09v-3.72a6.228,6.228,0,0,0-4.62,2.34v-1.98h-3.81v14.5h3.81Zm19.5,0v-9.37c0-4.17-3.03-5.49-6.33-5.49a9.505,9.505,0,0,0-6.33,2.28l1.44,2.55a6.1,6.1,0,0,1,4.23-1.71c1.92,0,3.18.96,3.18,2.43v1.96a5.961,5.961,0,0,0-4.59-1.77c-2.31,0-5.04,1.29-5.04,4.68a4.827,4.827,0,0,0,5.04,4.8,6,6,0,0,0,4.59-1.86v1.5h3.81Zm-6.87-2.22c-1.5,0-2.73-.78-2.73-2.13,0-1.41,1.23-2.19,2.73-2.19a3.811,3.811,0,0,1,3.06,1.26v1.8A3.811,3.811,0,0,1,1387.81,3494.75Zm24.24,2.22v-10.24c0-2.82-1.53-4.62-4.71-4.62a6.635,6.635,0,0,0-5.07,2.25v-1.89h-3.81v14.5h3.81v-9.76a4.127,4.127,0,0,1,3.3-1.71c1.62,0,2.67.69,2.67,2.71v8.76h3.81Zm9,0.36c4.02,0,6.27-2.01,6.27-4.65,0-5.86-8.58-4.05-8.58-6.22,0-.81.9-1.44,2.28-1.44a6.113,6.113,0,0,1,4.29,1.68l1.53-2.61a9.256,9.256,0,0,0-5.85-1.98c-3.81,0-5.94,2.13-5.94,4.56,0,5.71,8.61,3.76,8.61,6.16,0,0.9-.78,1.56-2.43,1.56a8.294,8.294,0,0,1-5.01-1.98l-1.65,2.67A9.754,9.754,0,0,0,1421.05,3497.33Zm21.6-.36v-9.37c0-4.17-3.03-5.49-6.33-5.49a9.505,9.505,0,0,0-6.33,2.28l1.44,2.55a6.1,6.1,0,0,1,4.23-1.71c1.92,0,3.18.96,3.18,2.43v1.96a5.961,5.961,0,0,0-4.59-1.77c-2.31,0-5.04,1.29-5.04,4.68a4.827,4.827,0,0,0,5.04,4.8,6,6,0,0,0,4.59-1.86v1.5h3.81Zm-6.87-2.22c-1.5,0-2.73-.78-2.73-2.13,0-1.41,1.23-2.19,2.73-2.19a3.811,3.811,0,0,1,3.06,1.26v1.8A3.811,3.811,0,0,1,1435.78,3494.75Zm17.4,2.58a6.678,6.678,0,0,0,5.73-2.64l-2.49-2.31a3.657,3.657,0,0,1-3.06,1.56,4.231,4.231,0,0,1,0-8.44,3.514,3.514,0,0,1,3.06,1.56l2.49-2.34a6.743,6.743,0,0,0-5.73-2.61A7.61,7.61,0,1,0,1453.18,3497.33Zm13.08,0a4.7,4.7,0,0,0,3.18-.93l-0.81-2.88a2.081,2.081,0,0,1-1.32.42,1.392,1.392,0,0,1-1.32-1.59v-6.55h2.94v-3.33h-2.94v-3.96h-3.84v3.96h-2.4v3.33h2.4v7.57C1462.15,3495.95,1463.59,3497.33,1466.26,3497.33Zm7.17-16.42a2.279,2.279,0,0,0,2.28-2.28,2.28,2.28,0,0,0-4.56,0A2.3,2.3,0,0,0,1473.43,3480.91Zm1.92,16.06v-14.5h-3.81v14.5h3.81Zm10.5,0.36a7.61,7.61,0,1,0-7.65-7.62A7.354,7.354,0,0,0,1485.85,3497.33Zm0-3.39c-2.37,0-3.69-1.95-3.69-4.23,0-2.26,1.32-4.21,3.69-4.21s3.72,1.95,3.72,4.21C1489.57,3491.99,1488.22,3493.94,1485.85,3493.94Zm24.09,3.03v-10.24c0-2.82-1.53-4.62-4.71-4.62a6.635,6.635,0,0,0-5.07,2.25v-1.89h-3.81v14.5h3.81v-9.76a4.127,4.127,0,0,1,3.3-1.71c1.62,0,2.67.69,2.67,2.71v8.76h3.81Zm9,0.36c4.02,0,6.27-2.01,6.27-4.65,0-5.86-8.58-4.05-8.58-6.22,0-.81.9-1.44,2.28-1.44a6.113,6.113,0,0,1,4.29,1.68l1.53-2.61a9.256,9.256,0,0,0-5.85-1.98c-3.81,0-5.94,2.13-5.94,4.56,0,5.71,8.61,3.76,8.61,6.16,0,0.9-.78,1.56-2.43,1.56a8.294,8.294,0,0,1-5.01-1.98l-1.65,2.67A9.754,9.754,0,0,0,1518.94,3497.33Z" transform="translate(-1329.94 -3339.34)"/>
  <path class="cls-1" d="M1475.42,3373.07c0.5,3.72.09,7.45,0.14,11.17,0.04,3.68.17,7.37-.04,11.06-0.08,1.51.12,3.04,0.07,4.54-0.16,4.29.16,8.57-.1,12.85a3.78,3.78,0,0,1-3.81,3.66c-0.99.04-1.99,0.04-2.98,0.01a0.82,0.82,0,0,0-.97,1c-0.01,1.41-.05,1.34-1.45,1.42-2.55.15-5.08,0.04-7.62,0.01a0.928,0.928,0,0,1-1.1-1.11c-0.01-1.31-.04-1.32-1.33-1.32q-19.815,0-39.64-.01a0.948,0.948,0,0,0-1.17,1.19c0.06,1.36-.01,1.46-1.34,1.33a65.586,65.586,0,0,0-7.42.04c-0.96.01-1.48-.23-1.27-1.27,0.21-1.07-.34-1.32-1.26-1.27a14.732,14.732,0,0,1-1.88-.01,4.061,4.061,0,0,1-3.81-3.41,22.175,22.175,0,0,1,0-3.05c-0.19-4.12-.03-8.24-0.04-12.36-0.02-3.71-.14-7.44.04-11.16a30.11,30.11,0,0,0-.07-4.35c-0.15-1.38.14-2.77,0.07-4.14-0.2-4.05-.02-8.11-0.04-12.16-0.02-3.68-.15-7.37.04-11.06,0.08-1.45-.02-2.9-0.06-4.35-0.06-2.53,0-5.08.12-7.61a3.534,3.534,0,0,1,3.49-3.25c2.64,0.01,5.27-.14,7.92-0.07,3.99,0.12,7.98-.05,11.97-0.05,3.86,0,7.72.08,11.58,0.08,4.03,0,8.06-.08,12.08-0.08s8.05,0.09,12.08.09c4.45-.01,8.91-0.07,13.36-0.1,2.76-.01,4.22,1.28,4.56,4.01,0.18,1.51-.05,3.03,0,4.54,0.13,4.12-.15,8.23.07,12.35,0.07,1.38-.09,2.76-0.1,4.15C1475.48,3367.28,1475.81,3370.17,1475.42,3373.07Zm-38.5-25.98v-0.01c-9.87,0-19.75.01-29.63-.02a0.855,0.855,0,0,0-1.07,1.04c-0.03,3.23-.07,6.45,0,9.68,0.04,1.61-.18,3.23-0.08,4.85,0.22,3.81.05,7.64,0.05,11.46-0.01,3.95-.04,7.91,0,11.85,0.04,3.36-.05,6.72-0.02,10.08,0.04,3.75.22,7.51-.04,11.26-0.1,1.44-.04,1.45,1.36,1.44,4.29-.03,8.59-0.18,12.87-0.08,4.03,0.09,8.05.04,12.08,0.03,3.82-.01,7.65-0.02,11.48-0.01,3.89,0.02,7.78-.17,11.67.04,1.48,0.08,2.98-.17,4.46-0.06,2.25,0.17,4.48-.02,6.73-0.04a0.781,0.781,0,0,0,.94-0.85c0.02-.99.17-1.98,0.11-2.97-0.26-4.11.15-8.23-.09-12.35-0.1-1.67.17-3.36,0.08-5.04-0.21-3.82-.05-7.64-0.04-11.46,0.01-3.85-.19-7.71.04-11.56,0.09-1.48-.17-2.97-0.08-4.45,0.23-3.88-.19-7.77.11-11.66,0.08-.92-0.3-1.18-1.19-1.18Q1451.8,3347.11,1436.92,3347.09Zm25.88,30.72v22.56c0,0.23,0,.46-0.01.7-0.04,2.08-.97,3.01-3.05,3.02q-10.26.015-20.52,0.01h-24.77c-0.49,0-.99.01-1.48-0.02a2.676,2.676,0,0,1-2.73-2.8c-0.01-1.91.09-3.82,0.1-5.73,0.01-1.72-.02-1.76-1.74-1.91a0.742,0.742,0,0,1-.8-0.88c0.01-1.12.02-2.24-.02-3.36a0.831,0.831,0,0,1,1.13-.95c1.64,0.31,1.5-.29,1.4-1.4-0.14-1.62.01-3.23,0.01-4.84,0.02-4.65-.07-9.29-0.09-13.94a0.879,0.879,0,0,0-1.08-1.01c-1.44-.02-1.46-0.05-1.49-1.5a23.347,23.347,0,0,1,.07-2.77,0.9,0.9,0,0,1,1.05-.97c1.44-.02,1.4-0.05,1.45-1.51a59.677,59.677,0,0,0,.02-6.13,2.614,2.614,0,0,1,2.75-2.73q6.525-.06,13.06-0.01c3.82,0.03,7.65-.07,11.48.03,4.02,0.11,8.04-.05,12.07-0.07,1.42,0,2.84.11,4.25,0.1,1.95,0,3.9-.1,5.84-0.1a2.776,2.776,0,0,1,3.09,3.06C1462.81,3362.37,1462.8,3370.09,1462.8,3377.81Zm-26.62,21.05q9.66,0,19.33-.01c2.05,0,2.05,0,2.05-1.99q0-18.99,0-37.99c0-1.96.01-1.93-1.94-1.95-4.42-.02-8.84-0.08-13.26-0.1-1.55-.01-3.1.1-4.65,0.1-4.03-.02-8.05-0.11-12.07-0.08-1.45,0-2.9.14-4.36,0.04a30.085,30.085,0,0,0-4.84.04,0.829,0.829,0,0,0-.88.93c-0.22,4.25-.07,8.5-0.06,12.75,0.01,3.82.02,7.64,0.01,11.46-0.01,3.98.14,7.97-.03,11.95-0.06,1.21.22,2.45,0.05,3.65-0.14,1.02.18,1.22,1.14,1.21C1423.17,3398.84,1429.68,3398.86,1436.18,3398.86Zm-13.93-7.91a2.435,2.435,0,0,1,.84-1.87c1.36-1.35,2.69-2.73,4.07-4.05a1.107,1.107,0,0,0,.25-1.6c-2.06-3.72-2.23-7.47.09-11.16a0.947,0.947,0,0,0-.24-1.46c-1.51-1.42-2.95-2.92-4.38-4.43a2.366,2.366,0,0,1-.52-2.66,2.676,2.676,0,0,1,4.56-.71c1.52,1.51,3.04,3.02,4.53,4.56a1.126,1.126,0,0,0,1.47.28,9.423,9.423,0,0,1,7.42.12,1.319,1.319,0,0,0,1.71-.4c1.36-1.44,2.78-2.82,4.21-4.19a2.611,2.611,0,0,1,3.73-.17,2.572,2.572,0,0,1-.05,3.87c-1.33,1.41-2.8,2.69-4.09,4.16a0.793,0.793,0,0,0-.17,1.09c1.94,3.58,2.19,7.21.12,10.83a0.861,0.861,0,0,0,.2,1.21c1.25,1.22,2.48,2.46,3.71,3.71,1.2,1.21,1.36,2.8.42,3.8a2.686,2.686,0,0,1-3.98-.03c-1.41-1.29-2.74-2.67-4.09-4.03a0.839,0.839,0,0,0-1.12-.28,10.116,10.116,0,0,1-7.98.37,1.345,1.345,0,0,0-1.56.41q-2.07,2.13-4.2,4.2a3.049,3.049,0,0,1-2.72,1.1A2.547,2.547,0,0,1,1422.25,3390.95Zm19.69-12.94a5.434,5.434,0,0,0-10.86-.39,5.509,5.509,0,0,0,5.76,5.68A5.431,5.431,0,0,0,1441.94,3378.01Z" transform="translate(-1329.94 -3339.34)"/>
</svg>
