<svg xmlns="http://www.w3.org/2000/svg" width="506.11" height="341.824" viewBox="0 0 506.11 341.824">
  <g id="bitcoinSvg-2" transform="translate(0.001 0)">
    <circle id="Ellipse_9" data-name="Ellipse 9" cx="17.353" cy="17.353" r="17.353" transform="translate(309.895 42.654)" fill="#f2f2f2"/>
    <rect id="Rectangle_17" data-name="Rectangle 17" width="348.135" height="185.997" transform="matrix(0.853, 0.522, -0.522, 0.853, 97.069, 0)" fill="#f2f2f2"/>
    <path id="Path_120" data-name="Path 120" d="M667.364,450.114c-2.711-6.236-6.887-11.713-15.238-16.322a53.22,53.22,0,0,0-13.774-5.423,33.74,33.74,0,0,0,8.839-5.965,30.567,30.567,0,0,0,8.459-12.635,41.813,41.813,0,0,0,1.9-15.292c-.6-9.11-2.386-17.949-7.158-24.294s-11.5-11.225-20.389-14.641c-6.833-2.6-13.828-4.23-24.673-4.826V316.066l-21.691,13.557v21.148H566.285V328.538l-22.233-12.472v34.705H496.821L512,376.8c4.691.005,7.868.439,9.49,1.247a7.171,7.171,0,0,1,3.525,3.254c.705,1.356,1.03,4.555,1.03,9.49v93.921c0,4.88-.325,8.026-1.03,9.435s-1.084,2.657-2.766,3.416-1.735.7-6.4.7H515.8L496.821,524.3H544V559h22.233V524.3h17.353V559h21.691V524.08c14.1-.7,24.131-2.549,32.211-5.585,10.466-3.9,18.491-9.6,24.239-17.081s8.08-18.925,8.568-27.764C670.672,465.786,669.8,455.645,667.364,450.114ZM566.231,380.053h.005v-.721H581.4c8.53,0,36.956-2.841,37.427,20.373S581.4,421.971,581.4,421.971H566.237v-1.789h-.005Zm0,66.157h17.353c3.525,0,15.65.537,20.064.737a19.249,19.249,0,0,1,5.293.944c.624.212,1.215.45,1.855.716a26.97,26.97,0,0,1,7.478,3.785,15.62,15.62,0,0,1,3.866,3.633,20.707,20.707,0,0,1,1.28,2,20.319,20.319,0,0,1,2.261,5.58,22.634,22.634,0,0,1,.8,5.813c0,4.224-.781,7.722-2.706,10.683-2.608,4.371-6.887,7.467-11.7,9.652-12.451,5.661-28.485,5.26-28.485,5.26H566.231Z" transform="translate(-299.717 -218.101)" fill="#304d71"/>
    <path id="Path_121" data-name="Path 121" d="M737.411,240.845a1.864,1.864,0,0,0-.854-.947,2.923,2.923,0,0,0-.772-.315,1.888,1.888,0,0,0,.5-.346,1.78,1.78,0,0,0,.474-.733,2.506,2.506,0,0,0,.106-.887,2.707,2.707,0,0,0-.4-1.41,2.512,2.512,0,0,0-1.143-.85,4.165,4.165,0,0,0-1.383-.28v-2.011l-1.216.787v1.227h-.973v-1.29l-1.246-.724v2.014H727.85l.851,1.511a1.327,1.327,0,0,1,.532.072.408.408,0,0,1,.2.189,1.564,1.564,0,0,1,.058.551v5.451a1.563,1.563,0,0,1-.058.548c-.04.082-.061.154-.155.2s-.1.041-.359.041h0l-1.064,1.511h2.645v2.014h1.246V245.15h.973v2.014h1.216v-2.027a5.764,5.764,0,0,0,1.806-.324,2.97,2.97,0,0,0,1.359-.991,3.147,3.147,0,0,0,.48-1.611A3.664,3.664,0,0,0,737.411,240.845Zm-5.669-4.066h0v-.042h.85c.478,0,2.072-.165,2.1,1.182s-2.1,1.292-2.1,1.292h-.85v-.1h0Zm0,3.839h.973c.2,0,.877.031,1.125.043a1.046,1.046,0,0,1,.3.055c.035.012.068.026.1.042a1.493,1.493,0,0,1,.419.22.889.889,0,0,1,.217.211,1.414,1.414,0,0,1,.243.777,1.131,1.131,0,0,1-.152.62,1.436,1.436,0,0,1-.656.56,4.1,4.1,0,0,1-1.6.305h-.973Z" transform="translate(-405.467 -180.109)" fill="#304d71" opacity="0.3"/>
    <circle id="Ellipse_10" data-name="Ellipse 10" cx="6.36" cy="6.36" r="6.36" transform="translate(426.438 245.285)" fill="#ff6584"/>
    <line id="Line_1" data-name="Line 1" y1="72.42" transform="translate(482.94 248.463)" fill="#3f3d56" stroke="#3f3d56" stroke-miterlimit="10" stroke-width="2"/>
    <circle id="Ellipse_11" data-name="Ellipse 11" cx="10.241" cy="10.241" r="10.241" transform="translate(472.699 238.222)" fill="#3f3d56"/>
    <path id="Path_122" data-name="Path 122" d="M977.247,642.535c-14.793,22.686-10.74,51.539-10.74,51.539s28.037-7.927,42.83-30.613,10.74-51.539,10.74-51.539S992.039,619.85,977.247,642.535Z" transform="translate(-514.476 -353.524)" fill="#3f3d56"/>
    <path id="Path_123" data-name="Path 123" d="M913.94,699.207s-.36-.057-1.023-.192c-.529-.107-1.257-.26-2.145-.471-7.946-1.873-29.07-8.206-42.881-24.856-17.286-20.848-16.558-49.976-16.558-49.976s26.43,4.295,43.846,23.017q1.132,1.207,2.2,2.5c15.041,18.14,16.443,42.547,16.554,48.581C913.952,698.717,913.94,699.207,913.94,699.207Z" transform="translate(-461.988 -358.921)" fill="#304d71"/>
    <path id="Path_124" data-name="Path 124" d="M910.549,642.535c14.793,22.686,10.74,51.539,10.74,51.539s-28.037-7.927-42.83-30.613-10.74-51.539-10.74-51.539S895.756,619.85,910.549,642.535Z" transform="translate(-469.257 -353.524)" fill="none" stroke="#3f3d56" stroke-miterlimit="10" stroke-width="2"/>
    <path id="Path_125" data-name="Path 125" d="M950.681,717.241c-.391.471-.736.874-1.019,1.2-.628.716-.985,1.092-.985,1.092s-.433-.544-1.161-1.563c-4-5.57-16.849-25.377-15.857-48.256q.081-1.8.264-3.559,1.132,1.207,2.2,2.5C949.168,686.8,950.571,711.208,950.681,717.241Z" transform="translate(-498.733 -378.35)" opacity="0.1"/>
    <path id="Path_126" data-name="Path 126" d="M974.876,633.721c-1.169,27.057-21.254,48.164-21.254,48.164s-18.189-22.761-17.02-49.818S957.856,583.9,957.856,583.9,976.048,606.663,974.876,633.721Z" transform="translate(-500.995 -340.698)" fill="#304d71"/>
    <line id="Line_2" data-name="Line 2" y1="96.113" x2="4.416" transform="translate(452.628 244.308)" fill="none" stroke="#3f3d56" stroke-miterlimit="10" stroke-width="2"/>
    <line id="Line_3" data-name="Line 3" x2="458.769" transform="translate(31.165 340.526)" fill="none" stroke="#3f3d56" stroke-miterlimit="10" stroke-width="2"/>
    <circle id="Ellipse_12" data-name="Ellipse 12" cx="23.171" cy="23.171" r="23.171" transform="translate(105.43 176.971)" fill="#304d71"/>
    <circle id="Ellipse_13" data-name="Ellipse 13" cx="23.171" cy="23.171" r="23.171" transform="translate(66.046 231.503)" fill="#304d71"/>
    <circle id="Ellipse_14" data-name="Ellipse 14" cx="23.171" cy="23.171" r="23.171" transform="translate(17.572 275.054)" fill="#304d71"/>
    <line id="Line_4" data-name="Line 4" y1="42.031" transform="translate(40.723 298.097)" fill="#3f3d56" stroke="#3f3d56" stroke-miterlimit="10" stroke-width="2"/>
    <circle id="Ellipse_15" data-name="Ellipse 15" cx="5.944" cy="5.944" r="5.944" transform="translate(34.779 292.154)" fill="#3f3d56"/>
    <path id="Path_127" data-name="Path 127" d="M193.027,719.134s-.849-18.263-18.256-16.14" transform="translate(-152.304 -395.132)" fill="#3f3d56"/>
    <line id="Line_5" data-name="Line 5" y1="140.197" transform="translate(128.615 200.227)" fill="#3f3d56" stroke="#3f3d56" stroke-miterlimit="10" stroke-width="2"/>
    <circle id="Ellipse_16" data-name="Ellipse 16" cx="5.944" cy="5.944" r="5.944" transform="translate(122.672 194.217)" fill="#3f3d56"/>
    <circle id="Ellipse_17" data-name="Ellipse 17" cx="5.944" cy="5.944" r="5.944" transform="translate(104.416 295.65)" fill="#3f3d56"/>
    <path id="Path_128" data-name="Path 128" d="M355.112,546.746s-.849-18.263-18.256-16.14" transform="translate(-226.496 -316.224)" fill="#3f3d56"/>
    <path id="Path_129" data-name="Path 129" d="M355.112,642.22s-.849-18.263-18.256-16.14" transform="translate(-226.496 -359.926)" fill="#3f3d56"/>
    <path id="Path_130" data-name="Path 130" d="M355.112,728.775s3.821-35.5-18.256-37.2" transform="translate(-226.496 -389.986)" fill="none" stroke="#3f3d56" stroke-miterlimit="10" stroke-width="2"/>
    <circle id="Ellipse_18" data-name="Ellipse 18" cx="5.944" cy="5.944" r="5.944" transform="translate(140.93 295.65)" fill="#3f3d56"/>
    <path id="Path_131" data-name="Path 131" d="M370.314,728.775s-3.821-35.5,18.256-37.2" transform="translate(-241.695 -389.986)" fill="none" stroke="#3f3d56" stroke-miterlimit="10" stroke-width="2"/>
    <circle id="Ellipse_19" data-name="Ellipse 19" cx="5.944" cy="5.944" r="5.944" transform="translate(141.293 239.895)" fill="#3f3d56"/>
    <path id="Path_132" data-name="Path 132" d="M370.981,624.063s-3.821-33.6,18.256-35.3" transform="translate(-242.001 -342.922)" fill="none" stroke="#3f3d56" stroke-miterlimit="10" stroke-width="2"/>
    <line id="Line_6" data-name="Line 6" y1="85.577" transform="translate(89.238 254.649)" fill="#3f3d56" stroke="#3f3d56" stroke-miterlimit="10" stroke-width="2"/>
    <circle id="Ellipse_20" data-name="Ellipse 20" cx="5.944" cy="5.944" r="5.944" transform="translate(83.294 248.705)" fill="#3f3d56"/>
    <path id="Path_133" data-name="Path 133" d="M282.494,635.878s-.849-18.263-18.256-16.14" transform="translate(-193.256 -357.023)" fill="#3f3d56"/>
    <path id="Path_134" data-name="Path 134" d="M282.494,728.73s3.821-35.119-18.256-36.818" transform="translate(-193.256 -390.138)" fill="none" stroke="#3f3d56" stroke-miterlimit="10" stroke-width="2"/>
    <circle id="Ellipse_21" data-name="Ellipse 21" cx="5.944" cy="5.944" r="5.944" transform="translate(65.038 295.831)" fill="#3f3d56"/>
    <circle id="Ellipse_22" data-name="Ellipse 22" cx="9.761" cy="9.761" r="9.761" transform="translate(405.876 190.693)" fill="#f2f2f2"/>
    <path id="Path_135" data-name="Path 135" d="M670.659,635.313c-12.45,5.661-28.485,5.26-28.485,5.26H624.821v-3.313c7.071-1.974,16.848-3.194,27.656-3.194A126.708,126.708,0,0,1,670.659,635.313Z" transform="translate(-358.307 -363.659)" opacity="0.1"/>
    <path id="Path_136" data-name="Path 136" d="M681.907,645.964c0,5.992-17.483,10.845-39.043,10.845s-39.043-4.853-39.043-10.845c0-2.988,4.349-5.694,11.388-7.651v3.313h17.353s16.035.4,28.485-5.26C673.448,638.177,681.907,641.794,681.907,645.964Z" transform="translate(-348.695 -364.713)" opacity="0.1"/>
    <rect id="Rectangle_18" data-name="Rectangle 18" width="16.612" height="16.642" transform="translate(282.544 213.723)" fill="#2f2e41"/>
    <path id="Path_137" data-name="Path 137" d="M661.422,549.63s1.375,4.813-1.031,5.156a9.394,9.394,0,0,0-4.125,1.719l4.469,5.844h8.25l5.156-5.156s-6.875-5.156-5.5-8.25S661.422,549.63,661.422,549.63Z" transform="translate(-372.701 -324.139)" fill="#ffb9b9"/>
    <path id="Path_138" data-name="Path 138" d="M661.422,549.63s1.375,4.813-1.031,5.156a9.394,9.394,0,0,0-4.125,1.719l4.469,5.844h8.25l5.156-5.156s-6.875-5.156-5.5-8.25S661.422,549.63,661.422,549.63Z" transform="translate(-372.701 -324.139)" opacity="0.1"/>
    <path id="Path_139" data-name="Path 139" d="M536.239,521.853l7.907,2.75,5.5.344-.344-4.813-11.344-3.355Z" transform="translate(-245.455 -236.547)" fill="#ffb9b9"/>
    <path id="Path_140" data-name="Path 140" d="M688.279,655.786s0,4.813.688,4.813,9.969-1.031,12.719,0,6.875-2.75,4.813-4.813-5.427-5.156-7.526-4.469-10.693,2.406-10.693,2.406Z" transform="translate(-387.354 -371.512)" fill="#2f2e41"/>
    <path id="Path_141" data-name="Path 141" d="M639.726,651.4s-4.125,8.25-1.375,8.938a9.537,9.537,0,0,0,6.188-.687c.344-.344,5.156-1.719,5.844-1.031s.687-2.75.687-2.75Z" transform="translate(-364.068 -371.594)" fill="#2f2e41"/>
    <path id="Path_142" data-name="Path 142" d="M645.081,630.48s-6.531,8.938-1.719,11.344,27.845,2.406,29.563,0,2.406-9.969,0-10.657S645.081,630.48,645.081,630.48Z" transform="translate(-365.984 -362.018)" fill="#2f2e41"/>
    <path id="Path_143" data-name="Path 143" d="M645.081,630.48s-6.531,8.938-1.719,11.344,27.845,2.406,29.563,0,2.406-9.969,0-10.657S645.081,630.48,645.081,630.48Z" transform="translate(-365.984 -362.018)" opacity="0.2"/>
    <circle id="Ellipse_23" data-name="Ellipse 23" cx="7.906" cy="7.906" r="7.906" transform="translate(283.565 212.085)" fill="#ffb9b9"/>
    <path id="Path_144" data-name="Path 144" d="M648.025,562.756l6.875-1.375s1.719,5.5,7.219,4.469,6.875-4.469,6.875-4.469,4.125,1.719,4.469,1.719,4.813,1.719,4.813,2.75-5.156,11.344-5.156,11.344l.688,18.563-25.438-.687,1.719-18.219Z" transform="translate(-368.929 -330.39)" fill="#304d71"/>
    <path id="Path_145" data-name="Path 145" d="M640.072,580.4s-2.063,18.219-.688,19.594,6.875,5.156,6.875,5.156v-4.125l-2.75-5.156,2.75-12.032Z" transform="translate(-364.757 -339.095)" fill="#ffb9b9"/>
    <path id="Path_146" data-name="Path 146" d="M700.714,579.448s-1.2,18.735-1.2,19.422-3.094,3.094-4.125,3.094-1.719-1.719-1.719-1.719l2.406-2.75L694.355,583.4Z" transform="translate(-389.821 -338.659)" fill="#ffb9b9"/>
    <path id="Path_147" data-name="Path 147" d="M687.149,624.72s15.469-8.594,15.813,0-7.906,12.032-7.906,12.032-21.313,6.391-22.172,4.055-2.578-6.117-1.2-6.461,3.094-1.031,3.781-.344,9.282-5.156,9.282-5.156Z" transform="translate(-379.52 -357.634)" fill="#2f2e41"/>
    <path id="Path_148" data-name="Path 148" d="M705.829,626.042a19.558,19.558,0,0,0-4.125,2.406c-1.031,1.031-5.5,2.75-5.5,2.75" transform="translate(-390.982 -359.987)" fill="none" stroke="#000" stroke-miterlimit="10" stroke-width="2" opacity="0.2"/>
    <path id="Path_149" data-name="Path 149" d="M645.335,564.6l-2.063-.688s-7.563,7.906-5.156,9.969,3.781,2.75,4.469,3.438,4.125,1.031,4.125,1.031Z" transform="translate(-364.177 -331.55)" fill="#304d71"/>
    <path id="Path_150" data-name="Path 150" d="M694.043,568.354l3.094.688s2.406,5.156,3.094,5.844-1.031.344-2.063,1.719-2.063,3.781-4.125,3.781-4.813-3.438-4.813-3.438Z" transform="translate(-387.789 -333.581)" fill="#304d71"/>
    <path id="Path_151" data-name="Path 151" d="M634.023,629.478s-13.063-9.281-17.532-2.406,19.251,16.157,22.688,17.532,6.531,2.75,6.531,2.75,3.094-7.563,3.094-8.938-2.406-1.375-3.094-1.375-3.781-.687-4.469-1.719S634.023,629.478,634.023,629.478Z" transform="translate(-354.239 -359.298)" fill="#2f2e41"/>
    <path id="Path_152" data-name="Path 152" d="M635.98,629.212s3.438,2.75,6.531,3.438a6.39,6.39,0,0,1,4.125,2.406" transform="translate(-363.415 -361.438)" fill="none" stroke="#000" stroke-miterlimit="10" stroke-width="2" opacity="0.2"/>
    <path id="Path_153" data-name="Path 153" d="M644.92,603.809l.275,14.555a1.822,1.822,0,0,0,1.842,1.787l27.086-.3a1.822,1.822,0,0,0,1.8-1.717l.822-14.251a1.822,1.822,0,0,0-1.819-1.927H646.741a1.822,1.822,0,0,0-1.821,1.856Z" transform="translate(-367.507 -348.96)" fill="#575a89"/>
    <path id="Path_154" data-name="Path 154" d="M638.39,543.273a34.009,34.009,0,0,0,2.2-4.879,21.57,21.57,0,0,0,.278-6.393,20.073,20.073,0,0,1,.479-5.641,9.7,9.7,0,0,1,2.788-4.855c3.6-3.216,10.2-3.447,14.594-2.108,1.734.528,3.582,1.533,4.012,3.294.065.266.094.54.167.8.36,1.311,1.7,2.141,2.185,3.411.626,1.643-.339,3.431-.465,5.185-.147,2.048.859,3.983,1.852,5.78a6.685,6.685,0,0,1,1.145,3.426,4.328,4.328,0,0,1-.592,1.888,7.2,7.2,0,0,1-6.05,3.468,3.8,3.8,0,0,1-2.266-.535,3.514,3.514,0,0,1-1.164-3.512,17.032,17.032,0,0,1,1.386-3.645c.157-.368.3-.742.429-1.12a7.692,7.692,0,1,0-5.074.861,10.42,10.42,0,0,1-.5,5.794,21.876,21.876,0,0,1-2.433,4.242,5.854,5.854,0,0,1-1.55,1.735,5.5,5.5,0,0,1-1.32.564,13.685,13.685,0,0,1-6.007.846,5.748,5.748,0,0,1-4.709-3.419A7.055,7.055,0,0,1,638.39,543.273Z" transform="translate(-364.11 -310.82)" fill="#2f2e41"/>
    <ellipse id="Ellipse_24" data-name="Ellipse 24" cx="8.391" cy="4.755" rx="8.391" ry="4.755" transform="translate(282.698 210.797)" fill="#2f2e41"/>
    <path id="Path_155" data-name="Path 155" d="M900.279,501.009a1.448,1.448,0,0,0-.664-.736,2.275,2.275,0,0,0-.6-.245,1.465,1.465,0,0,0,.385-.269,1.383,1.383,0,0,0,.369-.57,1.949,1.949,0,0,0,.083-.69,2.1,2.1,0,0,0-.312-1.1,1.952,1.952,0,0,0-.888-.66,3.237,3.237,0,0,0-1.075-.218v-1.563l-.945.611v.954h-.756v-1l-.969-.562v1.565H892.85l.661,1.174a1.031,1.031,0,0,1,.413.056.317.317,0,0,1,.154.147,1.214,1.214,0,0,1,.045.428v4.236a1.216,1.216,0,0,1-.045.425c-.031.064-.047.12-.12.154s-.076.032-.279.032h0l-.827,1.174h2.055v1.565h.968v-1.565h.756v1.565h.945v-1.575a4.477,4.477,0,0,0,1.4-.252,2.308,2.308,0,0,0,1.056-.77,2.445,2.445,0,0,0,.373-1.252A2.847,2.847,0,0,0,900.279,501.009Zm-4.406-3.16h0v-.033h.661c.372,0,1.61-.128,1.63.919s-1.63,1-1.63,1h-.661v-.081h0Zm0,2.983h.756c.154,0,.682.024.874.033a.813.813,0,0,1,.231.043c.027.01.053.02.081.032a1.16,1.16,0,0,1,.326.171.691.691,0,0,1,.169.164,1.1,1.1,0,0,1,.189.6.878.878,0,0,1-.118.482,1.116,1.116,0,0,1-.51.435,3.182,3.182,0,0,1-1.241.237h-.756Z" transform="translate(-480.993 -299.988)" fill="#304d71" opacity="0.3"/>
    <circle id="Ellipse_25" data-name="Ellipse 25" cx="9.761" cy="9.761" r="9.761" transform="translate(25.205 224.856)" fill="#f2f2f2"/>
    <path id="Path_156" data-name="Path 156" d="M198.279,564.009a1.448,1.448,0,0,0-.664-.736,2.271,2.271,0,0,0-.6-.245,1.468,1.468,0,0,0,.385-.269,1.382,1.382,0,0,0,.368-.57,1.948,1.948,0,0,0,.083-.69,2.1,2.1,0,0,0-.312-1.1,1.953,1.953,0,0,0-.888-.66,3.236,3.236,0,0,0-1.075-.218v-1.563l-.945.611v.954h-.756v-1l-.968-.562v1.565H190.85l.661,1.174a1.031,1.031,0,0,1,.413.056.317.317,0,0,1,.154.147,1.214,1.214,0,0,1,.045.428v4.236a1.217,1.217,0,0,1-.045.426c-.031.064-.047.12-.12.154s-.076.032-.279.032h0l-.827,1.174h2.055v1.565h.968v-1.565h.756v1.565h.945v-1.575a4.477,4.477,0,0,0,1.4-.252,2.308,2.308,0,0,0,1.056-.77,2.445,2.445,0,0,0,.373-1.252A2.846,2.846,0,0,0,198.279,564.009Zm-4.406-3.16h0v-.033h.66c.372,0,1.61-.128,1.63.919s-1.63,1-1.63,1h-.66v-.081h0Zm0,2.984h.756c.154,0,.682.024.874.033a.811.811,0,0,1,.231.043c.027.01.053.02.081.032a1.161,1.161,0,0,1,.326.171.691.691,0,0,1,.168.164,1.1,1.1,0,0,1,.189.6.878.878,0,0,1-.118.482,1.116,1.116,0,0,1-.51.435,3.182,3.182,0,0,1-1.241.237h-.756Z" transform="translate(-159.664 -328.825)" fill="#304d71" opacity="0.3"/>
  </g>
</svg>
