<svg xmlns="http://www.w3.org/2000/svg" width="469.244" height="324.507" viewBox="0 0 469.244 324.507">
  <g id="bitcoinsvg-1" transform="translate(0 0)">
    <path id="Path_339" data-name="Path 339" d="M197.69,391.621c-8.687,7.108,5.528,69.5,5.528,69.5s3.159,95.165,9.872,99.509,21.718-.395,27.641-1.185.79-59.626-7.9-81.344-1.974-53.309-1.974-53.309l46.99,9.082s-28.431,24.087-27.246,29.221,31.59,22.508,37.118,23.3,16.19-31.59,25.667-53.7-64.76-36.329-64.76-36.329l-10.267-19.349S206.377,384.514,197.69,391.621Z" transform="translate(-155.281 -249.894)" fill="#2f2e41"/>
    <path id="Path_340" data-name="Path 340" d="M248.338,745.839s-2.865,10.029,0,10.029,8.119,2.865,16.238,1.91,5.731-10.984,0-12.417-4.3-12.895-4.3-12.895c-1.91-3.821-10.984.955-10.984.955Z" transform="translate(-182.345 -433.467)" fill="#2f2e41"/>
    <path id="Path_341" data-name="Path 341" d="M331.008,582.347s-4.916,9.2-2.115,9.8,7.332,4.513,15.47,5.292,7.918-9.529,2.618-12.138-1.482-13.511-1.482-13.511c-1.062-4.138-10.939-1.383-10.939-1.383Z" transform="translate(-224.334 -349.726)" fill="#2f2e41"/>
    <path id="Path_342" data-name="Path 342" d="M208.815,229.4c.79,1.579-2.764,21.323-2.764,21.323l3.159,5.528s18.164-7.108,15.4-8.292-2.369-15.8-2.369-15.8S208.025,227.82,208.815,229.4Z" transform="translate(-161.075 -173.163)" fill="#ffb9b9"/>
    <circle id="Ellipse_49" data-name="Ellipse 49" cx="24.211" cy="24.211" r="24.211" transform="translate(30.366 13.9)" fill="#2f2e41"/>
    <circle id="Ellipse_50" data-name="Ellipse 50" cx="10.018" cy="10.018" r="10.018" transform="translate(42.889 5.427)" fill="#2f2e41"/>
    <path id="Path_343" data-name="Path 343" d="M231.631,132.936a10.132,10.132,0,0,0,1.044.054,10.019,10.019,0,1,0,0-20.037,10.132,10.132,0,0,0-1.044.054,10.019,10.019,0,0,1,0,19.929Z" transform="translate(-174.341 -112.953)" fill="#2f2e41"/>
    <circle id="Ellipse_51" data-name="Ellipse 51" cx="16.585" cy="16.585" r="16.585" transform="translate(38.658 33.334)" fill="#ffb9b9"/>
    <path id="Path_344" data-name="Path 344" d="M162.862,264.34c-5.133,1.185-13.821,13.821-13.821,13.821l13.821,13.821s9.872,37.118,11.057,38.7c7.761,10.348,42.647-12.636,42.647-12.636s-1.382-11.254-.592-16.782c.76-5.317-2.962-15.992-2.962-15.992s13.031-5.528,10.267-11.057-19.744-18.164-26.852-13.821-21.323,0-21.323,0A111.536,111.536,0,0,1,162.862,264.34Z" transform="translate(-131.51 -188.952)" fill="#e6e6e6"/>
    <path id="Path_345" data-name="Path 345" d="M387.331,432.288s22.508,19.349,28.036,15.4-21.323-17.769-21.323-17.769Z" transform="translate(-255.087 -277.332)" fill="#ffb9b9"/>
    <path id="Path_346" data-name="Path 346" d="M176.291,409.378c3.159,3.554,18.164-5.528,16.241-9.562s-13.871,4.033-13.871,4.033S173.132,405.824,176.291,409.378Z" transform="translate(-145.136 -261.135)" fill="#ffb9b9"/>
    <path id="Path_347" data-name="Path 347" d="M143.975,299.113l-16.585,30.8s18.954,15.8,21.323,16.19-4.739,10.662-4.739,10.662-21.323-15.005-29.616-22.508,15.8-40.672,15.8-40.672l7.108-4.344Z" transform="translate(-112.622 -204.376)" fill="#e6e6e6"/>
    <path id="Path_348" data-name="Path 348" d="M277.825,296.227l19.349,30.01s29.616,33.17,33.564,34.749,8.687-5.923,8.687-5.923l-35.539-43.041-13.426-24.087-5.133-1.974Z" transform="translate(-198.297 -202.675)" fill="#e6e6e6"/>
    <ellipse id="Ellipse_52" data-name="Ellipse 52" cx="16.697" cy="10.018" rx="16.697" ry="10.018" transform="translate(37.88 20.195)" fill="#2f2e41"/>
    <path id="Path_349" data-name="Path 349" d="M321.075,624.742a2.067,2.067,0,0,0-2.064,2.064v70.4a2.067,2.067,0,0,0,2.064,2.064H561.133a2.066,2.066,0,0,0,2.064-2.064v-70.4a2.066,2.066,0,0,0-2.064-2.064Z" transform="translate(-219.657 -378.368)" fill="#e6e6e6"/>
    <path id="Path_350" data-name="Path 350" d="M329.757,699.672H563.6V635.487H329.757Z" transform="translate(-225.229 -383.94)" fill="#fff"/>
    <path id="Path_351" data-name="Path 351" d="M750.512,741.157a3.419,3.419,0,0,0,0,6.838h13.677a3.419,3.419,0,0,0,0-6.838Z" transform="translate(-441.661 -438.741)" fill="#304d71"/>
    <rect id="Rectangle_86" data-name="Rectangle 86" width="157.881" height="0.9" transform="translate(168.066 295.784)" fill="#e6e6e6"/>
    <circle id="Ellipse_53" data-name="Ellipse 53" cx="19.915" cy="19.915" r="19.915" transform="translate(115.149 263.724)" fill="#fb921e"/>
    <path id="Path_352" data-name="Path 352" d="M349.1,568.338l-.5-.749,16.406-10.938,11.25,5.4,16.182-10.338,32.19,13.731,25.634-12.592,24.892,10.092,31.278-27.7.6.673-31.7,28.073L450.3,553.837l-25.643,12.6-32.132-13.707-16.2,10.353-11.24-5.395Z" transform="translate(-180.787 -277.578)" fill="#3f3d56"/>
    <path id="Path_353" data-name="Path 353" d="M464.668,742.134a2.924,2.924,0,1,0,0,5.848h30.587a2.924,2.924,0,1,0,0-5.848Z" transform="translate(-293.679 -439.248)" fill="#e6e6e6"/>
    <path id="Path_354" data-name="Path 354" d="M389.205,683.645h3.112l-6.475,6.408a6.046,6.046,0,0,1-8.488,0l-6.474-6.408h3.112l4.919,4.868a3.829,3.829,0,0,0,5.376,0Zm-15.253,17.818h-3.112l6.515-6.447a6.045,6.045,0,0,1,8.488,0l6.515,6.447h-3.112l-4.959-4.907a3.829,3.829,0,0,0-5.376,0Z" transform="translate(-246.536 -408.915)" fill="#fff"/>
    <path id="Path_355" data-name="Path 355" d="M386.01,156.307a2.067,2.067,0,0,0-2.064,2.064v70.4a2.067,2.067,0,0,0,2.064,2.064H626.068a2.067,2.067,0,0,0,2.064-2.064v-70.4a2.066,2.066,0,0,0-2.064-2.064Z" transform="translate(-253.332 -135.436)" fill="#e6e6e6"/>
    <path id="Path_356" data-name="Path 356" d="M394.692,231.237h233.84V167.052H394.692Z" transform="translate(-258.905 -141.009)" fill="#fff"/>
    <path id="Path_357" data-name="Path 357" d="M815.449,272.722a3.419,3.419,0,1,0,0,6.838h13.677a3.419,3.419,0,0,0,0-6.838Z" transform="translate(-475.337 -195.809)" fill="#304d71"/>
    <rect id="Rectangle_87" data-name="Rectangle 87" width="157.881" height="0.9" transform="translate(199.325 70.281)" fill="#e6e6e6"/>
    <circle id="Ellipse_54" data-name="Ellipse 54" cx="19.915" cy="19.915" r="19.915" transform="translate(146.408 38.221)" fill="#fb921e"/>
    <path id="Path_358" data-name="Path 358" d="M414.038,99.9l-.5-.749,16.406-10.937,11.25,5.4,16.182-10.338.219.093,31.971,13.638L515.2,84.417l24.892,10.092,31.278-27.7.6.673-31.7,28.073L515.237,85.4,489.594,98,457.462,84.292l-16.2,10.352-11.24-5.4Z" transform="translate(-214.463 -34.645)" fill="#3f3d56"/>
    <path id="Path_359" data-name="Path 359" d="M529.6,273.7a2.924,2.924,0,0,0,0,5.847H560.19a2.924,2.924,0,0,0,0-5.847Z" transform="translate(-327.354 -196.316)" fill="#e6e6e6"/>
    <path id="Path_360" data-name="Path 360" d="M455.516,218.616c.372-2.492-1.525-3.832-4.12-4.726l.842-3.376L450.182,210l-.819,3.287c-.54-.135-1.094-.262-1.646-.387l.825-3.309-2.054-.512-.842,3.375c-.447-.1-.886-.2-1.312-.308l0-.01-2.834-.708-.547,2.195s1.525.349,1.492.371a1.093,1.093,0,0,1,.958,1.2l-.959,3.846a1.7,1.7,0,0,1,.214.068l-.217-.054-1.344,5.388a.748.748,0,0,1-.942.488c.02.03-1.494-.373-1.494-.373l-1.02,2.353,2.675.667c.5.125.985.255,1.464.378l-.85,3.415,2.053.512.843-3.378c.56.152,1.1.293,1.637.425l-.839,3.362,2.055.512.85-3.408c3.5.663,6.14.4,7.248-2.773.894-2.552-.044-4.024-1.888-4.984a3.28,3.28,0,0,0,2.624-3.018Zm-4.7,6.584c-.636,2.552-4.932,1.173-6.325.826l1.128-4.524c1.393.348,5.859,1.036,5.2,3.7Zm.635-6.621c-.579,2.321-4.156,1.142-5.316.853l1.023-4.1c1.161.289,4.9.829,4.293,3.25Z" transform="translate(-281.18 -162.805)" fill="#fff"/>
    <path id="Path_361" data-name="Path 361" d="M582.2,390.524a2.067,2.067,0,0,0-2.064,2.064v70.4a2.066,2.066,0,0,0,2.064,2.064H822.255a2.067,2.067,0,0,0,2.064-2.064v-70.4a2.067,2.067,0,0,0-2.064-2.064Z" transform="translate(-355.075 -256.902)" fill="#e6e6e6"/>
    <path id="Path_362" data-name="Path 362" d="M590.878,465.455h233.84V401.27H590.878Z" transform="translate(-360.648 -262.475)" fill="#fff"/>
    <path id="Path_363" data-name="Path 363" d="M1011.636,506.94a3.419,3.419,0,0,0,0,6.838h13.677a3.419,3.419,0,0,0,0-6.838h-13.677Z" transform="translate(-577.081 -317.276)" fill="#304d71"/>
    <rect id="Rectangle_88" data-name="Rectangle 88" width="157.881" height="0.9" transform="translate(293.769 183.032)" fill="#e6e6e6"/>
    <circle id="Ellipse_55" data-name="Ellipse 55" cx="19.915" cy="19.915" r="19.915" transform="translate(240.852 150.972)" fill="#fb921e"/>
    <path id="Path_364" data-name="Path 364" d="M610.224,334.12l-.5-.749,16.406-10.937,11.251,5.4L653.563,317.5l.219.093,31.971,13.638,25.635-12.592,24.892,10.091,31.278-27.7.6.674-31.7,28.073-25.036-10.15-25.644,12.6L653.648,318.51l-16.2,10.352-11.24-5.4Z" transform="translate(-316.206 -156.111)" fill="#3f3d56"/>
    <path id="Path_365" data-name="Path 365" d="M725.789,507.917a2.924,2.924,0,0,0,0,5.847h30.587a2.924,2.924,0,0,0,0-5.847Z" transform="translate(-429.097 -317.782)" fill="#e6e6e6"/>
    <path id="Path_366" data-name="Path 366" d="M533,370.016l8.062-11.354L533,363.422h0l-8.057-4.76L533,370.016h0Z" transform="translate(-272.24 -186.003)" fill="#fff"/>
    <path id="Path_367" data-name="Path 367" d="M533,345.848h0l8.057-4.762L533,327.717h0l-8.057,13.369Z" transform="translate(-272.24 -169.955)" fill="#fff"/>
  </g>
</svg>
