<svg xmlns="http://www.w3.org/2000/svg" width="242.322" height="302.907" viewBox="0 0 242.322 302.907"><g transform="translate(-8 -4)"><path d="M34.4,19.592c4.044-.863,7.747-1.636,11.45-2.461a1.18,1.18,0,0,0,.735-.8c.038-4.082.03-8.163.03-12.336-3.877.886-7.527,1.689-11.155,2.6A1.593,1.593,0,0,0,34.455,7.7C34.379,11.558,34.4,15.427,34.4,19.592Z" transform="translate(173.506)" fill="#2196f3"/><path d="M46.625,57.481c0-4.165.023-8.2-.053-12.237-.008-.348-.689-.878-1.136-.984-2.332-.568-4.68-1.037-7.035-1.522-1.28-.265-2.567-.507-4-.788,0,4.089-.023,7.9.03,11.7.008.4.4,1.083.727,1.159C38.9,55.739,42.665,56.572,46.625,57.481Z" transform="translate(173.505 249.426)" fill="#2196f3"/><path d="M44.565,17.163V4.464c-2.741.56-5.369,1.09-8,1.643-4.18.886-4.18.894-4.18,5.278v8.088C36.629,18.67,40.582,17.921,44.565,17.163Z" transform="translate(160.291 3.05)" fill="#2196f3"/><path d="M32.392,41.555c0,4.135-.023,7.891.03,11.639a1.286,1.286,0,0,0,.7.984c3.771.825,7.558,1.583,11.442,2.37V43.85C40.556,43.092,36.6,42.35,32.392,41.555Z" transform="translate(160.287 246.837)" fill="#2196f3"/><path d="M30.39,19.325c3.885-.636,7.467-1.2,11.033-1.848.432-.076,1.113-.629,1.121-.984.076-3.8.053-7.6.053-11.616-4.014.712-7.807,1.378-11.594,2.1-.25.045-.583.583-.583.9C30.382,11.623,30.39,15.372,30.39,19.325Z" transform="translate(147.152 5.758)" fill="#2196f3"/><path d="M40.509,42.671,28.393,40.922V52.963c4.089.644,8.057,1.272,12.116,1.908Z" transform="translate(134.033 242.676)" fill="#2196f3"/><path d="M24.313,18.856c3.93-.379,7.747-.735,11.571-1.151a1.079,1.079,0,0,0,.75-.757c.053-3.658.03-7.323.03-11.132L24.313,7.164Z" transform="translate(107.217 11.936)" fill="#2196f3"/><path d="M34.556,52.935V45.294c0-3.915,0-3.938-3.839-4.309-2.779-.273-5.558-.462-8.436-.689V51.9C26.348,52.246,30.346,52.586,34.556,52.935Z" transform="translate(93.861 238.562)" fill="#2196f3"/><path d="M34.451,6.033c-4.188.363-8.178.712-12.169,1.06V18.664c4.1-.318,8.1-.621,12.169-.931Z" transform="translate(93.868 13.362)" fill="#2196f3"/><path d="M26.349,52.513c4.082.538,8.065,1.075,12.147,1.613v-12c-4.074-.492-8.057-.969-12.147-1.462Z" transform="translate(120.599 241.013)" fill="#2196f3"/><path d="M38.463,5.552c-4.127.553-8.148,1.09-12.109,1.628V19.024l12.109-1.469Z" transform="translate(120.632 10.201)" fill="#2196f3"/><path d="M20.245,6.894V18.458c4.173-.242,8.186-.477,12.184-.719V6.205C28.34,6.44,24.372,6.659,20.245,6.894Z" transform="translate(80.479 14.493)" fill="#2196f3"/><path d="M32.6,40.828c-4.2-.22-8.194-.432-12.374-.644,0,3.673-.038,7.111.053,10.541.015.363.742.969,1.189,1.022,1.795.212,3.6.257,5.422.348,1.9.1,3.794.189,5.71.28C32.6,48.453,32.6,44.728,32.6,40.828Z" transform="translate(80.328 237.825)" fill="#2196f3"/><path d="M16.165,51.414H28.349V40.1H16.165Z" transform="translate(53.663 237.273)" fill="#2196f3"/><path d="M18.205,51.478H30.374V40.149H18.205Z" transform="translate(67.071 237.595)" fill="#2196f3"/><path d="M28.31,17.691V6.408H16.171V17.691Z" transform="translate(53.702 15.827)" fill="#2196f3"/><path d="M14.117,17.717H26.286V6.4H14.117Z" transform="translate(40.202 15.794)" fill="#2196f3"/><path d="M46.443,8.006c-4.165.78-8.148,1.537-12.025,2.272V21.538c4.112-.7,8.057-1.363,12.025-2.037Z" transform="translate(173.634 26.33)" fill="#2196f3"/><path d="M34.507,38.205c0,2.226-.023,4.12.008,6.02.023,1.711-.485,3.877.348,4.99.75,1,2.991.878,4.589,1.189,2.37.462,4.748.878,7.156,1.31V40.242C42.6,39.56,38.7,38.9,34.507,38.205Z" transform="translate(173.401 224.818)" fill="#2196f3"/><path d="M48.323,40.777c-4.006-.75-7.9-1.477-11.9-2.226V50.084c3.96.825,7.883,1.636,11.9,2.461Z" transform="translate(186.832 227.092)" fill="#2196f3"/><path d="M36.43,21.623c4.051-.772,7.982-1.522,11.851-2.257V7.6c-4.014.833-7.944,1.658-11.851,2.476Z" transform="translate(186.858 23.648)" fill="#2196f3"/><path d="M48.35,5.649c-3.771.863-7.482,1.7-11.162,2.59-.3.068-.735.5-.735.757-.053,3.612-.03,7.224-.03,10.965,4.112-.878,7.989-1.7,11.935-2.552C48.35,13.532,48.35,9.731,48.35,5.649Z" transform="translate(186.782 10.838)" fill="#2196f3"/><path d="M32.4,21.426C36.562,20.8,40.522,20.2,44.468,19.6V8.378c-4.1.682-8.057,1.34-12.071,2Z" transform="translate(160.35 28.775)" fill="#2196f3"/><path d="M44.426,50.917V39.7c-4.059-.613-7.982-1.2-12.025-1.8V48.933C36.415,49.592,40.337,50.243,44.426,50.917Z" transform="translate(160.377 222.813)" fill="#2196f3"/><path d="M44.471,53V41.774c-4.044-.682-7.989-1.356-12.071-2.045V50.762C36.429,51.5,40.382,52.247,44.471,53Z" transform="translate(160.37 234.835)" fill="#2196f3"/><path d="M44.575,6.519c-3.771.7-7.459,1.356-11.132,2.09-.386.076-1,.568-1.007.878-.068,3.37-.045,6.74-.045,10.322,4.218-.719,8.178-1.393,12.184-2.075Z" transform="translate(160.282 16.557)" fill="#2196f3"/><path d="M36.566,50.28V39.822c-4.157-.364-8.194-.719-12.253-1.075V49.076C28.395,49.477,32.4,49.879,36.566,50.28Z" transform="translate(107.217 228.38)" fill="#2196f3"/><path d="M24.314,47.344c4.188.356,8.224.7,12.2,1.037a2.464,2.464,0,0,0,.182-.553q.023-3.033.03-6.066c.008-3.711,0-3.711-3.544-4.044-.348-.03-.689-.114-1.045-.136-2.59-.182-5.18-.363-7.83-.545C24.314,40.59,24.314,43.846,24.314,47.344Z" transform="translate(107.171 217.148)" fill="#2196f3"/><path d="M8.013,11.349V21.64c4.1.227,8.1.432,12.154.659V12.031C16.07,11.8,12.08,11.576,8.013,11.349Z" transform="translate(0.082 48.303)" fill="#2196f3"/><path d="M8.012,48c4.135-.288,8.125-.576,12.169-.856V36.9c-4.1.265-8.1.515-12.169.78Z" transform="translate(0.076 216.254)" fill="#2196f3"/><path d="M8,14.809c0,2.976-.023,6.111.038,9.246.008.28.591.772.909.78,3.726.053,7.436.03,11.268.03V14.809Z" transform="translate(0 71.044)" fill="#2196f3"/><path d="M8.013,26.717H20.152V16.509H8.013Z" transform="translate(0.082 82.218)" fill="#2196f3"/><path d="M20.183,35.2c-4.173.235-8.171.469-12.169.689V46.2c4.112-.257,8.1-.5,12.169-.75Z" transform="translate(0.089 205.087)" fill="#2196f3"/><path d="M20.17,19.914H8.016v10.2H20.17Z" transform="translate(0.102 104.597)" fill="#2196f3"/><path d="M20.179,26.75H8.017v9.988H20.179Z" transform="translate(0.109 149.528)" fill="#2196f3"/><path d="M8.012,38.5H20.174V28.45H8.012Z" transform="translate(0.076 160.702)" fill="#2196f3"/><path d="M28.355,9.937H16.171v9.928H28.355Z" transform="translate(53.702 39.022)" fill="#2196f3"/><path d="M26.317,9.933h-12.2v10h12.2Z" transform="translate(40.202 38.996)" fill="#2196f3"/><path d="M14.121,28.257H26.268V18.314H14.121Z" transform="translate(40.228 94.081)" fill="#2196f3"/><path d="M14.118,38.321h12.2v-9.95h-12.2Z" transform="translate(40.209 160.182)" fill="#2196f3"/><path d="M24.281,21.655H12.074V31.674H24.281C24.281,28.342,24.281,25.078,24.281,21.655Z" transform="translate(26.774 116.04)" fill="#2196f3"/><path d="M14.126,21.666V31.6H26.265V21.666Z" transform="translate(40.261 116.113)" fill="#2196f3"/><path d="M10.043,29.973h12.1V19.954h-12.1C10.043,23.286,10.043,26.542,10.043,29.973Z" transform="translate(13.425 104.86)" fill="#2196f3"/><path d="M24.278,25.027H12.071v9.981H24.278C24.278,31.646,24.278,28.389,24.278,25.027Z" transform="translate(26.754 138.203)" fill="#2196f3"/><path d="M26.311,25.023H14.127v9.928H26.311Z" transform="translate(40.268 138.177)" fill="#2196f3"/><path d="M22.168,26.727H10.044v9.958H22.168Z" transform="translate(13.432 149.377)" fill="#2196f3"/><path d="M22.1,33.4V23.343H10.048V33.4Z" transform="translate(13.458 127.135)" fill="#2196f3"/><path d="M10.043,38.334H22.129V28.421H10.043Z" transform="translate(13.425 160.511)" fill="#2196f3"/><path d="M10.043,47.576c4.089-.189,8.088-.379,12.078-.576V36.808c-4.089.182-8.088.371-12.078.553Z" transform="translate(13.425 215.636)" fill="#2196f3"/><path d="M24.257,33.43H12.08v9.89H24.257Z" transform="translate(26.814 193.434)" fill="#2196f3"/><path d="M10.042,21.583H22.09V11.5H10.042Z" transform="translate(13.418 49.321)" fill="#2196f3"/><path d="M12.073,39.989H24.265v-9.92H12.073Z" transform="translate(26.768 171.343)" fill="#2196f3"/><path d="M22.116,31.791H10.045v9.973H22.116Z" transform="translate(13.438 182.661)" fill="#2196f3"/><path d="M16.163,46.722H28.34V36.749H16.163Z" transform="translate(53.65 215.248)" fill="#2196f3"/><path d="M14.123,36.751v9.943H26.3V36.751Z" transform="translate(40.241 215.261)" fill="#2196f3"/><path d="M22.129,43.464V33.491H10.043v9.973Z" transform="translate(13.425 193.835)" fill="#2196f3"/><path d="M12.077,14.939v10H24.261v-10Z" transform="translate(26.794 71.898)" fill="#2196f3"/><path d="M10.04,23.214H22.126V13.2H10.04Z" transform="translate(13.405 60.436)" fill="#2196f3"/><path d="M22.038,28.373V18.256H10.05V28.373Z" transform="translate(13.471 93.7)" fill="#2196f3"/><path d="M24.325,26.709H12.072v9.882H24.325Z" transform="translate(26.761 149.259)" fill="#2196f3"/><path d="M12.078,11.577V21.6H24.262V11.577Z" transform="translate(26.8 49.801)" fill="#2196f3"/><path d="M10.051,30.1V40.161H22.069V30.1Z" transform="translate(13.478 171.527)" fill="#2196f3"/><path d="M12.073,46.681H24.265v-9.89H12.073Z" transform="translate(26.768 215.524)" fill="#2196f3"/><path d="M24.272,38.47H12.08v9.95H24.272Z" transform="translate(26.814 226.56)" fill="#2196f3"/><path d="M12.073,45.029H24.25v-9.92H12.073Z" transform="translate(26.768 204.469)" fill="#2196f3"/><path d="M26.312,16.635H14.12v9.973H26.312Z" transform="translate(40.222 83.046)" fill="#2196f3"/><path d="M24.2,26.641V16.615H12.081V26.641Z" transform="translate(26.82 82.914)" fill="#2196f3"/><path d="M14.121,23.342v9.92H26.305v-9.92Z" transform="translate(40.228 127.129)" fill="#2196f3"/><path d="M16.168,38.427v9.95H28.307v-9.95Z" transform="translate(53.683 226.277)" fill="#2196f3"/><path d="M16.162,18.082H28.331V8.268H16.162Z" transform="translate(53.643 28.052)" fill="#2196f3"/><path d="M24.243,29.95V19.977H12.074V29.95Z" transform="translate(26.774 105.012)" fill="#2196f3"/><path d="M14.122,30.05v9.92H26.276V30.05Z" transform="translate(40.235 171.218)" fill="#2196f3"/><path d="M34.4,19.592c0-4.165-.03-8.027.045-11.889A1.626,1.626,0,0,1,35.457,6.6c3.627-.909,7.285-1.711,11.162-2.6,0,4.173.015,8.254-.03,12.328a1.12,1.12,0,0,1-.735.8C42.159,17.956,38.456,18.729,34.4,19.592Z" transform="translate(173.504)" fill="#2196f3"/><path d="M46.621,57.474c-3.953-.909-7.717-1.742-11.457-2.666-.326-.076-.719-.757-.727-1.159-.061-3.809-.03-7.611-.03-11.7,1.439.28,2.719.53,4,.788,2.348.485,4.7.954,7.035,1.522.447.114,1.128.636,1.136.984C46.652,49.273,46.621,53.309,46.621,57.474Z" transform="translate(173.509 249.433)" fill="#2196f3"/><path d="M44.565,17.157c-3.983.757-7.929,1.507-12.177,2.317V11.386c0-4.385,0-4.392,4.18-5.278,2.628-.56,5.263-1.083,8-1.643C44.565,8.668,44.565,12.757,44.565,17.157Z" transform="translate(160.291 3.056)" fill="#2196f3"/><path d="M32.39,41.555c4.21.8,8.163,1.537,12.177,2.295v12.7c-3.885-.788-7.671-1.537-11.442-2.37a1.3,1.3,0,0,1-.7-.984C32.375,49.446,32.39,45.69,32.39,41.555Z" transform="translate(160.289 246.837)" fill="#2196f3"/><path d="M30.392,19.318c0-3.961-.015-7.7.023-11.442a1.166,1.166,0,0,1,.583-.9c3.786-.727,7.58-1.386,11.594-2.1,0,4.014.03,7.815-.053,11.616-.008.348-.689.9-1.121.984C37.866,18.122,34.276,18.682,30.392,19.318Z" transform="translate(147.15 5.764)" fill="#2196f3"/><path d="M40.509,42.671v12.2c-4.059-.636-8.019-1.265-12.116-1.908V40.922Z" transform="translate(134.033 242.676)" fill="#2196f3"/><path d="M24.313,18.856V7.164c4.029-.439,8.057-.886,12.351-1.348,0,3.809.023,7.474-.03,11.132a1.122,1.122,0,0,1-.75.757C32.067,18.129,28.243,18.485,24.313,18.856Z" transform="translate(107.217 11.936)" fill="#2196f3"/><path d="M34.563,52.935c-4.2-.356-8.2-.689-12.283-1.037V40.3c2.878.227,5.657.424,8.436.689,3.847.371,3.839.394,3.839,4.309C34.563,47.793,34.563,50.284,34.563,52.935Z" transform="translate(93.855 238.562)" fill="#2196f3"/><path d="M34.451,6.033V17.725c-4.074.31-8.065.621-12.169.931V7.086C26.273,6.745,30.264,6.4,34.451,6.033Z" transform="translate(93.868 13.362)" fill="#2196f3"/><path d="M26.349,52.513V40.669c4.082.492,8.072.977,12.147,1.462v12C34.414,53.588,30.423,53.05,26.349,52.513Z" transform="translate(120.599 241.013)" fill="#2196f3"/><path d="M38.463,5.552v12L26.354,19.024V7.18C30.315,6.65,34.328,6.1,38.463,5.552Z" transform="translate(120.632 10.201)" fill="#2196f3"/><path d="M20.245,6.888c4.127-.227,8.1-.454,12.184-.682V17.739c-4,.235-8.012.477-12.184.719Z" transform="translate(80.479 14.499)" fill="#2196f3"/><path d="M32.6,40.828V52.376q-2.874-.136-5.71-.28c-1.81-.1-3.62-.136-5.422-.348-.447-.053-1.181-.651-1.189-1.022-.091-3.43-.053-6.868-.053-10.541C24.41,40.4,28.408,40.6,32.6,40.828Z" transform="translate(80.328 237.825)" fill="#2196f3"/><path d="M16.165,51.414V40.1H28.349V51.414Z" transform="translate(53.663 237.273)" fill="#2196f3"/><path d="M18.205,51.478V40.149H30.374V51.478Z" transform="translate(67.071 237.595)" fill="#2196f3"/><path d="M28.31,17.691H16.171V6.408H28.31Z" transform="translate(53.702 15.827)" fill="#2196f3"/><path d="M14.117,17.717V6.4H26.286V17.717Z" transform="translate(40.202 15.794)" fill="#2196f3"/><path d="M46.443,8.006V19.5c-3.968.674-7.913,1.34-12.025,2.037V10.278C38.288,9.543,42.278,8.794,46.443,8.006Z" transform="translate(173.634 26.33)" fill="#2196f3"/><path d="M34.505,38.205c4.188.7,8.088,1.356,12.1,2.037V51.715c-2.408-.439-4.786-.848-7.156-1.31-1.6-.31-3.839-.182-4.589-1.189-.833-1.106-.318-3.279-.348-4.99C34.482,42.325,34.505,40.424,34.505,38.205Z" transform="translate(173.403 224.818)" fill="#2196f3"/><path d="M48.323,40.764V52.547c-4.006-.833-7.929-1.643-11.9-2.461V38.553C40.424,39.288,44.317,40.015,48.323,40.764Z" transform="translate(186.832 227.105)" fill="#2196f3"/><path d="M36.43,21.623V10.074c3.907-.818,7.838-1.643,11.851-2.476V19.366C44.412,20.108,40.481,20.858,36.43,21.623Z" transform="translate(186.858 23.648)" fill="#2196f3"/><path d="M48.355,5.649v11.76c-3.945.841-7.823,1.674-11.935,2.552,0-3.741-.015-7.345.03-10.965.008-.273.432-.689.735-.765C40.873,7.345,44.576,6.512,48.355,5.649Z" transform="translate(186.777 10.838)" fill="#2196f3"/><path d="M32.4,21.413V10.379c4.006-.666,7.966-1.318,12.071-2V19.6C40.522,20.186,36.562,20.784,32.4,21.413Z" transform="translate(160.35 28.788)" fill="#2196f3"/><path d="M44.426,50.924c-4.082-.682-8.012-1.325-12.025-1.992V37.9c4.044.606,7.966,1.2,12.025,1.8Z" transform="translate(160.377 222.807)" fill="#2196f3"/><path d="M44.471,53.01c-4.089-.765-8.05-1.492-12.071-2.249V39.728c4.074.689,8.027,1.363,12.071,2.045Z" transform="translate(160.37 234.828)" fill="#2196f3"/><path d="M44.568,6.519V17.734c-4.006.682-7.966,1.356-12.177,2.075,0-3.582-.023-6.959.045-10.322.008-.31.613-.8,1.007-.878C37.117,7.867,40.8,7.208,44.568,6.519Z" transform="translate(160.288 16.557)" fill="#2196f3"/><path d="M36.566,50.267c-4.165-.409-8.163-.8-12.253-1.189V38.749l12.253,1.075Z" transform="translate(107.217 228.394)" fill="#2196f3"/><path d="M24.307,47.351V37.037c2.65.182,5.24.364,7.83.545.348.023.689.106,1.045.136,3.544.333,3.552.333,3.544,4.044,0,2.022-.015,4.044-.03,6.066a2.6,2.6,0,0,1-.182.553C32.531,48.048,28.495,47.707,24.307,47.351Z" transform="translate(107.178 217.141)" fill="#2196f3"/><path d="M8.013,11.349c4.067.227,8.057.454,12.154.682V22.3c-4.059-.22-8.057-.432-12.154-.659C8.013,18.172,8.013,14.87,8.013,11.349Z" transform="translate(0.082 48.303)" fill="#2196f3"/><path d="M8.012,48V37.681c4.082-.257,8.072-.515,12.169-.78V47.139C16.137,47.427,12.147,47.715,8.012,48Z" transform="translate(0.076 216.247)" fill="#2196f3"/><path d="M8,14.809H20.219V24.866c-3.817,0-7.542.023-11.268-.03-.318-.008-.9-.5-.909-.78C7.982,20.92,8,17.785,8,14.809Z" transform="translate(0 71.044)" fill="#2196f3"/><path d="M8.013,26.717V16.509H20.152V26.717Z" transform="translate(0.082 82.218)" fill="#2196f3"/><path d="M20.183,35.2V45.449c-4.067.25-8.057.492-12.169.75V35.892C12.012,35.673,16,35.445,20.183,35.2Z" transform="translate(0.089 205.087)" fill="#2196f3"/><path d="M20.17,19.914v10.2H8.016v-10.2Z" transform="translate(0.102 104.597)" fill="#2196f3"/><path d="M20.179,26.75v9.988H8.017V26.75Z" transform="translate(0.109 149.528)" fill="#2196f3"/><path d="M8.012,38.5V28.45H20.174V38.5Z" transform="translate(0.076 160.702)" fill="#2196f3"/><path d="M28.355,9.937v9.928H16.171V9.937Z" transform="translate(53.702 39.022)" fill="#2196f3"/><path d="M26.317,9.933v10h-12.2v-10Z" transform="translate(40.202 38.996)" fill="#2196f3"/><path d="M14.121,28.257V18.314H26.268v9.943Z" transform="translate(40.228 94.081)" fill="#2196f3"/><path d="M14.118,38.321v-9.95h12.2v9.95Z" transform="translate(40.209 160.182)" fill="#2196f3"/><path d="M24.281,21.655V31.674H12.074V21.655Z" transform="translate(26.774 116.04)" fill="#2196f3"/><path d="M14.126,21.666H26.265V31.6H14.126Z" transform="translate(40.261 116.113)" fill="#2196f3"/><path d="M10.043,29.973V19.954h12.1V29.973Z" transform="translate(13.425 104.86)" fill="#2196f3"/><path d="M24.278,25.027v9.981H12.071V25.027Z" transform="translate(26.754 138.203)" fill="#2196f3"/><path d="M26.311,25.023v9.928H14.127V25.023Z" transform="translate(40.268 138.177)" fill="#2196f3"/><path d="M22.168,26.727v9.958H10.044V26.727Z" transform="translate(13.432 149.377)" fill="#2196f3"/><path d="M22.1,33.4H10.048V23.343H22.1Z" transform="translate(13.458 127.135)" fill="#2196f3"/><path d="M10.043,38.334V28.421H22.129v9.913Z" transform="translate(13.425 160.511)" fill="#2196f3"/><path d="M10.043,47.576V37.361c4-.182,7.989-.363,12.078-.553V47C18.131,47.2,14.14,47.387,10.043,47.576Z" transform="translate(13.425 215.636)" fill="#2196f3"/><path d="M24.257,33.43v9.89H12.08V33.43Z" transform="translate(26.814 193.434)" fill="#2196f3"/><path d="M10.042,21.583V11.5H22.09V21.583Z" transform="translate(13.418 49.321)" fill="#2196f3"/><path d="M12.073,39.989v-9.92H24.265v9.92Z" transform="translate(26.768 171.343)" fill="#2196f3"/><path d="M22.116,31.791v9.973H10.045V31.791Z" transform="translate(13.438 182.661)" fill="#2196f3"/><path d="M16.163,46.722V36.749H28.34v9.973Z" transform="translate(53.65 215.248)" fill="#2196f3"/><path d="M14.123,36.751H26.3v9.943H14.123Z" transform="translate(40.241 215.261)" fill="#2196f3"/><path d="M22.129,43.464H10.043V33.491H22.129Z" transform="translate(13.425 193.835)" fill="#2196f3"/><path d="M12.077,14.939H24.261v10H12.077Z" transform="translate(26.794 71.898)" fill="#2196f3"/><path d="M10.04,23.214V13.2H22.126V23.214Z" transform="translate(13.405 60.436)" fill="#2196f3"/><path d="M22.038,28.373H10.05V18.256H22.038Z" transform="translate(13.471 93.7)" fill="#2196f3"/><path d="M24.325,26.709v9.882H12.072V26.709Z" transform="translate(26.761 149.259)" fill="#2196f3"/><path d="M12.078,11.577H24.262V21.6H12.078Z" transform="translate(26.8 49.801)" fill="#2196f3"/><path d="M10.051,30.1H22.069V40.161H10.051Z" transform="translate(13.478 171.527)" fill="#2196f3"/><path d="M12.073,46.681v-9.89H24.265v9.89Z" transform="translate(26.768 215.524)" fill="#2196f3"/><path d="M24.272,38.47v9.95H12.08V38.47Z" transform="translate(26.814 226.56)" fill="#2196f3"/><path d="M12.073,45.029v-9.92H24.25v9.92Z" transform="translate(26.768 204.469)" fill="#2196f3"/><path d="M26.312,16.635v9.973H14.12V16.635Z" transform="translate(40.222 83.046)" fill="#2196f3"/><path d="M24.2,26.641H12.081V16.615H24.2Z" transform="translate(26.82 82.914)" fill="#2196f3"/><path d="M14.121,23.342H26.305v9.92H14.121Z" transform="translate(40.228 127.129)" fill="#2196f3"/><path d="M16.168,38.427H28.307v9.95H16.168Z" transform="translate(53.683 226.277)" fill="#2196f3"/><path d="M16.162,18.082V8.268H28.331v9.814Z" transform="translate(53.643 28.052)" fill="#2196f3"/><path d="M24.243,29.95H12.074V19.977H24.243Z" transform="translate(26.774 105.012)" fill="#2196f3"/><path d="M14.122,30.05H26.276v9.92H14.122Z" transform="translate(40.235 171.218)" fill="#2196f3"/><path d="M209.631,182.407a54.023,54.023,0,0,0-6.581-21.681c-1.189-2.1-2.431-3.332-5.021-3.082a46.672,46.672,0,0,1-6.49-.242c-2.787-.129-5.574-.257-8.459-.394,0-4.248-.068-8.3.038-12.343a1.881,1.881,0,0,0-1.492-2.188c-4.816-1.446-9.61-3.021-14.464-4.339-2.794-.757-5.7-1.1-8.633-1.643v-4.059c0-4.687.008-4.665,4.415-6.225,7.656-2.7,15.229-5.558,21.718-10.715A47.379,47.379,0,0,0,200.211,93.64c2.787-7.951,3.029-16.228,2.438-24.551A46.278,46.278,0,0,0,197.8,50.831a27.017,27.017,0,0,0-9.89-10.693c-9-5.551-18.9-7.043-29.223-6.459-3.014.174-6.035.379-9.095.568-.061-1.037-.114-1.893-.159-2.794-4.036.515-7.883,1-11.8,1.492V22.381c3.976-.6,7.891-1.189,11.813-1.787V6.91L106.6,12.976V39.2c-8.974.409-17.841.818-26.815,1.227V29.961c3.854-.227,7.626-.439,11.351-.651V14.543c-15.456.863-30.745,1.727-46.208,2.59V42.327H14.12v12.9H26.1V65.2H14.15V77.911H29.568v40.817H41.344V128.6H29.606v15.524H41.4v9.882H29.455V194.75h-15.3v25.671h11.9v9.867H45.077V255.6c10.443.47,20.658.931,31.139,1.393v-9.746c4.089.364,7.921.7,11.95,1.053V232.091c6.27.485,12.321.954,18.538,1.439v26.088c14.358,2.029,28.541,4.036,42.876,6.066v-27.36c2.567.182,4.847.348,7.118.515,7.868.56,15.668.454,23.369-1.643,14.206-3.862,23.861-12.442,27.746-27.171A77.36,77.36,0,0,0,209.631,182.407ZM183.21,56.14C187,55.572,190.843,55,194.91,54.4V66.3c-3.839.477-7.7.962-11.7,1.462Zm-.045,29.738,11.692-1.113V96.692c-3.832.257-7.7.523-11.692.788ZM60.654,54.148c4.074-.2,8.012-.394,12.056-.591V63.675c-4.036.182-7.982.371-12.056.553Zm7.323,39.2v9.7H56.035v-9.7ZM45.319,54.61H57.2v9.822H45.319ZM38.761,90.429h0V80.645h12v9.784ZM41.813,217.6H29.833V207.79h11.98Zm12.359-25.6H42.139v-9.723H54.172Zm.008-12.737H42.154v-9.716H54.179Zm.386-47.89H66.477v9.867H54.566Zm18.19,111.386H60.677v-9.716H72.755ZM83.2,71.967c1.022-.068,33.441-1.7,37.348-1.81,25.285-.651,24.6,10.4,24.785,18.439.333,14.759-5.717,28.034-36.122,30.419-1.03.076-25.656,1.128-26.012,1.128Zm20.734,147.114h0c-1.992-.091-9.905-.469-11.927-.56V208.79h11.927Zm30.76,2.226c-2.953-.227-10.9-.863-11.919-.939v-10.3h0c3.029.22,5.975.424,8.943.629.992.076,1.984.136,2.976.212Zm16.637-32.093c-.735,2.809-2.8,13.343-27.209,13.313-5.975-.008-40.067-1.431-40.938-1.431h0V152.911c.757,0,22.423.469,26.02.666,38.038,2.052,38.954,9.511,42.816,23.392C153.131,180.953,152.389,185.186,151.329,189.214ZM194.9,203.042c-3.915-.462-7.739-.916-11.685-1.386V190.017c3.839.379,7.7.75,11.685,1.136Z" transform="translate(40.222 19.126)" fill="#2196f3"/></g></svg>