<svg xmlns="http://www.w3.org/2000/svg" width="213.248" height="294.72" viewBox="0 0 53.312 73.68">
  <defs>
    <style>
      .cls-1 {
        fill: #fff;
        fill-rule: evenodd;
      }
    </style>
  </defs>
  <path class="cls-1" d="M302.282,2473.15c0.925,0.33,1.8.59,2.645,0.93,4.483,1.83,6.709,5.22,6.942,10,0.211,4.33-.476,8.41-3.511,11.73-2.762,3.03-6.466,4.23-10.361,4.93a40.306,40.306,0,0,1-5.8.66c-0.64.01-.718,0.3-0.71,0.89,0.041,3.17-.008,6.35.036,9.52,0.011,0.74-.173.95-0.91,0.93-1.671-.05-3.347-0.04-5.017.02-0.689.03-.915-0.06-0.9-0.84,0.049-3.11-.036-6.21,0-9.31,0.008-.76-0.177-1.04-0.954-1a27.145,27.145,0,0,1-3.493.01c-0.815-.07-1.01.22-1,0.95,0.038,3.03.011,6.06,0.085,9.08,0.021,0.9-.251,1.2-1.136,1.17-1.551-.05-3.105-0.03-4.657,0a0.853,0.853,0,0,1-1.062-1.05c0.05-3.06-.03-6.13.014-9.19,0.013-.85-0.187-1.11-1.072-1.09-3.844.05-7.69,0-11.535,0.04-0.859.01-1.151-.14-0.968-1.07,0.411-2.09.725-4.21,1.043-6.31a0.739,0.739,0,0,1,.9-0.76c1.282,0.04,2.566.04,3.849,0.03,1.943-.02,2.834-0.84,2.834-2.75q0-14.79-.046-29.57a3.3,3.3,0,0,0-3.307-3.41,44.829,44.829,0,0,0-4.78-.02c-0.655.02-.777-0.13-0.763-0.77,0.041-1.78.036-3.57-.054-5.35a0.931,0.931,0,0,1,1.137-1.18c3.876,0.01,7.752-.06,11.626-0.01,0.834,0.01.994-.24,0.985-0.97-0.042-3.07-.012-6.14-0.086-9.2a0.847,0.847,0,0,1,1.029-1.03c1.631,0.01,3.262.02,4.892-.01a0.783,0.783,0,0,1,.936.95c-0.027,2.95,0,5.9-.027,8.84-0.008.81,0.046,1.31,1.118,1.16a19.693,19.693,0,0,1,3.26-.04,0.878,0.878,0,0,0,1.11-1.07c-0.071-2.95-.025-5.91-0.073-8.86-0.012-.73.11-1.01,0.954-0.97,1.7,0.08,3.415.01,5.123-.03,0.537-.01.723,0.1,0.719,0.71-0.023,3.07.087,6.14,0.011,9.21a1.13,1.13,0,0,0,1.271,1.41,26.021,26.021,0,0,1,7.822,1.77c5.378,2.22,7.883,6.21,7.513,12.02C307.653,2468.25,306.228,2470.52,302.282,2473.15ZM291.6,2492.54a14.007,14.007,0,0,0,2.882-.95c2.551-1.19,4.084-3.35,3.94-5.82a6.271,6.271,0,0,0-4.173-5.81c-4.681-1.91-9.6-1.54-14.487-1.51-0.389,0-.436.21-0.434,0.52,0.029,4.58.062,9.15,0.061,13.73a0.6,0.6,0,0,0,.727.73C283.968,2493.39,287.829,2493.53,291.6,2492.54Zm-2.548-21.59c0.53-.14,1.079-0.22,1.586-0.41,1.865-.72,3.525-1.69,4.209-3.73a5.908,5.908,0,0,0-3.81-7.68c-3.618-1.36-7.4-1.08-11.16-1.08-0.484,0-.6.24-0.6,0.76,0.038,4.03.034,8.06,0.019,12.09a0.606,0.606,0,0,0,.717.74A34.688,34.688,0,0,0,289.055,2470.95Z" transform="translate(-258.594 -2439.13)"/>
</svg>
