<svg xmlns="http://www.w3.org/2000/svg" xmlns:xlink="http://www.w3.org/1999/xlink" width="404.408" height="279.656" viewBox="0 0 404.408 279.656">
  <defs>
    <linearGradient id="linear-gradient" x1="0.48" y1="0.999" x2="0.48" y2="-0.004" gradientUnits="objectBoundingBox">
      <stop offset="0" stop-color="gray" stop-opacity="0.251"/>
      <stop offset="0.54" stop-color="gray" stop-opacity="0.122"/>
      <stop offset="1" stop-color="gray" stop-opacity="0.102"/>
    </linearGradient>
  </defs>
  <g id="ethereumDesire" transform="translate(0 0.02)">
    <path id="Path_726" data-name="Path 726" d="M129.5,240.48s69.948,58.52,93.768,93.783,83.938,29.262,83.938,29.262" transform="translate(-104.625 -179.639)" fill="none" stroke="#5d596a" stroke-miterlimit="10" stroke-width="3" opacity="0.5"/>
    <path id="Path_727" data-name="Path 727" d="M687.465,479.546c-.456-1.945-1.7-2.638-4.44-2.307-2.977.377-5.951.727-9.592-1.835-1.93-1.357-3.43-2.555-4.421-3.392l.162-.041s-7.376-9.23-6.9-14.544-3.43-19.041-3.43-19.041-.211-8.966-2.261-14.171a22.865,22.865,0,0,1-1.244-4.225c-1.214-6.565-4.869-23.922-10.794-31.572l-.377-15.3v-.588l.155.155a6.968,6.968,0,0,0,1.319-2.02c1.738.893,5.484,2.744,7.512,3.14a20.409,20.409,0,0,1,6.03,2.8s7.67,8.94,13.546,4.979-10.986-10.334-10.986-10.334a86.855,86.855,0,0,0-8.148-3.927,45.068,45.068,0,0,1-7.161-4.195q-.049-.313-.113-.637c-1.108-5.736-2.729-7.915-2.058-11.454a13.026,13.026,0,0,1,.833-2.638c2.261-5.348-7.161-12.777-7.161-12.777s-6.407-5.439-4.078-8.435c0,0,3.573-.377.52-3.249-.524-.494-1.067-.95-1.606-1.372.023-.079.045-.155.072-.234a16.584,16.584,0,0,1,2.932-5.39c.2-.253.422-.5.652-.754a11.507,11.507,0,0,0,8.544-11.329,11.329,11.329,0,0,0-3.083-7.508,3.015,3.015,0,0,0,.98-2.57c.309-3.731-7.18-7.5-10.308-6.95-1.783.313-3.392,1.274-5.178,1.6-1.851.339-3.769-.03-5.653,0a13.749,13.749,0,0,0-7.12,2.08,3.626,3.626,0,0,0-1.312,1.248,4.718,4.718,0,0,0-.377,1.937c-.528,6.863-5.5,12.573-10.772,17.085a5.214,5.214,0,0,0-2.318,5.284c-.083,11.375-4.116,23.322-13.267,30.257.143.09.286.177.437.256-.139.109-.279.226-.422.332A7.188,7.188,0,0,0,596,346.027a27.852,27.852,0,0,1-3.769,8.853l.377-.019c-.124.2-.245.407-.377.607,4.078-.087,7.082-3.641,9.5-6.882.026.313.045.629.057.942a18.992,18.992,0,0,1-2.763,9.942l.377-.034q-.177.317-.377.626.9-.075,1.8-.185c-2.4,4.9-6.177,13.832-6.177,13.832l-1.4,3.475a15.967,15.967,0,0,1-3.253,5.016,37.474,37.474,0,0,1-4.278,4.048c-1.47.916-5.073,12.769,1.447,10.851s8.993-11.1,8.993-11.1a8.891,8.891,0,0,1,1.692-4.146,11.113,11.113,0,0,0,1.236-2.22,118.642,118.642,0,0,1,6.072-11.627,40.555,40.555,0,0,0,3.253-6.7,19.746,19.746,0,0,1,1.918-3.769,21.2,21.2,0,0,0,4.146-2.31,11.055,11.055,0,0,0,2.8-2.827,53.206,53.206,0,0,0,1.685,5.476c1.583,4.281,4.474,14.194.286,20.823-3.841,6.083-3.923,9.027-3.637,10.24a.815.815,0,0,1-.057.2,11.009,11.009,0,0,0,.961,8.073,10.352,10.352,0,0,1,1.18,4.489v.449a10.038,10.038,0,0,1-.407,3.068,100.437,100.437,0,0,0-3.091,13.316c-.754,5.9-5.695,11.6-5.695,11.6s-13.1,14.134-18.091,30.724c0,0-2.815,7.127-4.869,8.646a10.331,10.331,0,0,0-4.56,6.784c0,.121-.034.241-.045.377l-.848,2.08s7.282,3.965,8.774,3.927l.852-1.786L597.3,486.6l11.333-.264a3.577,3.577,0,0,0,.818-.754c.543-.709.863-1.817-.856-2.97a4.12,4.12,0,0,0-2.887-.607c-1.459.215-4.248-.271-6.859-5.725l-1.44-2.683.185.064s-2.484-4.059,2.465-9.471,12.061-19.7,12.061-19.7,9.664-7.873,11.337-12.916c0,0,6.445-10.881,10.176-17.337.622,1.349,1.131,2.371,1.131,2.371s7.7,10.41,8.785,18.328,8.39,27.427,11.5,32.658,3.155,7.282,3.155,7.282-1.93,4.945-.72,9.008l.038.128.057,2.352,8.669.09-.026-1.176,11.051.328s10.67-3.192,10.316-5.537Q687.525,479.795,687.465,479.546Z" transform="translate(-385.384 -209.11)" fill="url(#linear-gradient)"/>
    <path id="Path_728" data-name="Path 728" d="M704.1,357.626a17.335,17.335,0,0,0-3.6,3.354,16.342,16.342,0,0,0-2.834,5.277,14.558,14.558,0,0,0-.754,4.8l-5.6-4.775L684.15,367.9a22.615,22.615,0,0,0,3.833-4.847,24.262,24.262,0,0,0,2.261-5.077,18.806,18.806,0,0,0,.788-3.52S711.769,352.251,704.1,357.626Z" transform="translate(-450.23 -250.378)" fill="#efb4b6"/>
    <path id="Path_729" data-name="Path 729" d="M613.188,784.4a3.471,3.471,0,0,1-.792.754l-10.964.256-7.346-5.6-.825,1.753c-1.443.034-8.461-3.844-8.461-3.844l.818-2.039a2.837,2.837,0,0,1,.045-.377,10.107,10.107,0,0,1,4.41-6.671l1.428-.611,8.71,2.107,2.717,5.133c2.529,5.352,5.224,5.831,6.637,5.62a3.939,3.939,0,0,1,2.793.6C614.024,782.617,613.712,783.706,613.188,784.4Z" transform="translate(-388.325 -508.352)" fill="#c17174"/>
    <path id="Path_730" data-name="Path 730" d="M811.843,782.242c.343,2.3-9.976,5.431-9.976,5.431l-10.689-.328.026,1.153-8.371-.094-.053-2.307-.038-.124c-1.168-3.988.694-8.838.694-8.838l.833-1.462,8.311-2.5a55.92,55.92,0,0,0,5.589,4.489c3.524,2.514,6.407,2.16,9.279,1.8,2.638-.328,3.856.358,4.3,2.261Q811.8,781.971,811.843,782.242Z" transform="translate(-511.424 -511.561)" fill="#c17174"/>
    <path id="Path_731" data-name="Path 731" d="M647.649,570.087c-.275.588-1.18,2.22-2.382,4.342-3.588,6.339-9.833,17.013-9.833,17.013-1.6,4.937-10.93,12.671-10.93,12.671s-6.886,14.017-11.684,19.323-2.378,9.291-2.378,9.291L598.8,628.671c1.986-1.508,4.707-8.48,4.707-8.48,4.813-16.278,17.477-30.152,17.477-30.152s4.775-5.6,5.506-11.386a99.014,99.014,0,0,1,2.985-13.063,9.98,9.98,0,0,0,.377-3.015v-.441a10.278,10.278,0,0,0-1.131-4.4,10.93,10.93,0,0,1-.935-7.915,9.112,9.112,0,0,1,1.131-2.676l2.846-.829,10.078-2.932s.622,2.19,1.462,5.322C645.252,556.01,648.418,568.451,647.649,570.087Z" transform="translate(-397.048 -368.378)" fill="#5d596a"/>
    <path id="Path_732" data-name="Path 732" d="M647.649,570.087c-.275.588-1.18,2.22-2.382,4.342-3.588,6.339-9.833,17.013-9.833,17.013-1.6,4.937-10.93,12.671-10.93,12.671s-6.886,14.017-11.684,19.323-2.378,9.291-2.378,9.291L598.8,628.671c1.986-1.508,4.707-8.48,4.707-8.48,4.813-16.278,17.477-30.152,17.477-30.152s4.775-5.6,5.506-11.386a99.014,99.014,0,0,1,2.985-13.063,9.98,9.98,0,0,0,.377-3.015v-.441a10.278,10.278,0,0,0-1.131-4.4,10.93,10.93,0,0,1-.935-7.915,9.112,9.112,0,0,1,1.131-2.676l2.846-.829,10.078-2.932s.622,2.19,1.462,5.322C645.252,556.01,648.418,568.451,647.649,570.087Z" transform="translate(-397.048 -368.378)" opacity="0.1"/>
    <path id="Path_733" data-name="Path 733" d="M730.308,606.063l-10.613,2.846s-.049-2.02-3.053-7.161-10.093-24.3-11.141-32.066-8.5-17.97-8.5-17.97-.49-1-1.093-2.326c-.558-1.225-1.206-2.721-1.651-3.957-.927-2.574-5.054-6.23-5.054-6.23-7.538-4.191-9.046-9.208-9.132-12.347a8.871,8.871,0,0,1,.4-3.034l1.937-2.54,3.66-4.809,12.388-13.278,7.538,1.557.452,19.327c5.733,7.508,9.275,24.536,10.451,30.981A22.7,22.7,0,0,0,718.1,559.2c1.986,5.107,2.194,13.9,2.194,13.9s3.769,13.478,3.324,18.683S730.308,606.063,730.308,606.063Z" transform="translate(-447.682 -343.335)" fill="#5d596a"/>
    <path id="Path_734" data-name="Path 734" d="M750.886,490.4s5.872,4.191,8.2,5.005a84.683,84.683,0,0,1,7.885,3.856S783.28,505.517,777.6,509.4s-13.1-4.9-13.1-4.9a19.69,19.69,0,0,0-5.838-2.751c-2.612-.516-8.164-3.562-8.164-3.562Z" transform="translate(-491.567 -335.365)" fill="#efb4b6"/>
    <path id="Path_735" data-name="Path 735" d="M715.483,357.64a17.339,17.339,0,0,0-3.6,3.354,11.305,11.305,0,0,1-2.084.241c-3.173.075-4.817-3.392-6.912-5.465.659-2.1-.464-1.289-.464-1.289S723.153,352.265,715.483,357.64Z" transform="translate(-461.614 -250.392)" opacity="0.1"/>
    <circle id="Ellipse_2725" data-name="Ellipse 2725" cx="11.254" cy="11.254" r="11.254" transform="translate(236.388 88.035) rotate(-1.34)" fill="#efb4b6"/>
    <path id="Path_736" data-name="Path 736" d="M696.908,385.742l-5.6-4.775-7.161,1.613a22.613,22.613,0,0,0,3.833-4.862h.049a9.634,9.634,0,0,1,6.969,1.33,28.527,28.527,0,0,1,2.661,1.884,14.561,14.561,0,0,0-.754,4.809Z" transform="translate(-450.23 -265.046)" opacity="0.1"/>
    <path id="Path_737" data-name="Path 737" d="M703.259,504.743l.1,4.315c-.871-.871-5.2-4.983-4.018.972,1.308,6.607-6.37,11.4-6.37,11.4a27.521,27.521,0,0,1-1.786,2.22c-6.091,6.75-11.488,4.715-13.859,3.207a8.2,8.2,0,0,1-1.281-.976,2.047,2.047,0,0,1-.377-1.093,9.11,9.11,0,0,1,1.131-2.676l2.846-.829,3.686-4.82,12.389-13.278Z" transform="translate(-444.946 -343.335)" opacity="0.1"/>
    <path id="Path_738" data-name="Path 738" d="M702.3,430.811s-5.476-5.789-4.165.818-6.37,11.4-6.37,11.4c-8.948,12.332-16.926,4.436-16.926,4.436s-2.073-2.261,3.211-10.757c4.048-6.505,1.251-16.229-.283-20.431a52.961,52.961,0,0,1-1.662-5.54l-.377-1.508-.874-3.535a37.908,37.908,0,0,1-.942-12.6,36.153,36.153,0,0,1,1.756-8.292,14.418,14.418,0,0,1,1.933-4.078,6.547,6.547,0,0,1,3.954-2.261,9.618,9.618,0,0,1,6.988,1.346,26.148,26.148,0,0,1,4.146,3.166c2.951,2.815-.5,3.189-.5,3.189-2.239,2.94,3.946,8.292,3.946,8.292s9.117,7.289,6.931,12.539-.124,6.931,1.191,13.828S702.3,430.811,702.3,430.811Z" transform="translate(-443.748 -265.513)" fill="#9f9eff"/>
    <path id="Path_739" data-name="Path 739" d="M645.747,298.174c-1.726.309-3.286,1.248-5.009,1.568-1.79.332-3.629-.03-5.454,0a13.154,13.154,0,0,0-6.886,2.039,3.524,3.524,0,0,0-1.281,1.214,4.684,4.684,0,0,0-.377,1.884c-.509,6.735-5.31,12.336-10.414,16.757a6.947,6.947,0,0,0-1.73,1.884,7.091,7.091,0,0,0-.513,3.283c-.075,11.16-3.972,22.881-12.814,29.684a6.862,6.862,0,0,0,9.332-2.194,27.514,27.514,0,0,1-3.822,9.6c3.942-.083,6.848-3.573,9.185-6.75a18.8,18.8,0,0,1-2.638,11.277c5.277-.456,10.666-1.594,14.933-4.715,1.952-1.428,3.727-3.509,3.686-5.929a13.594,13.594,0,0,0-1.082-4c-1.15-3.422-.874-7.738,1.971-9.958a10.743,10.743,0,0,0,1.508-1.191,4.988,4.988,0,0,0,1.014-2.71,19.347,19.347,0,0,0-.354-7.093,5.221,5.221,0,0,1-.23-1.508,3.371,3.371,0,0,1,1.779-2.51,31.312,31.312,0,0,1,2.921-1.308,10.018,10.018,0,0,0,5.612-8.857c0-1.082-.143-2.288.543-3.121,1.014-1.236,3.121-.814,4.334-1.851,1.15-.984,1.021-2.815,1.824-4.1.66-1.055,1.884-1.617,2.778-2.465C659.048,302.975,649.369,297.529,645.747,298.174Z" transform="translate(-398.587 -215.556)" opacity="0.1"/>
    <path id="Path_740" data-name="Path 740" d="M689.959,400.968v.072l-7.108,9.652-4.357,5.913s-1.187,1.131-2.774,2.831l-.867-3.535a37.908,37.908,0,0,1-.942-12.6,22.95,22.95,0,0,1,5.077-6.969,6.6,6.6,0,0,1,10.971,4.636Z" transform="translate(-443.748 -275.715)" opacity="0.1"/>
    <path id="Path_741" data-name="Path 741" d="M645.707,296.641c-1.726.309-3.286,1.248-5.009,1.568-1.79.332-3.629-.03-5.454,0a13.153,13.153,0,0,0-6.886,2.039,3.523,3.523,0,0,0-1.281,1.214,4.684,4.684,0,0,0-.377,1.884c-.509,6.735-5.31,12.336-10.414,16.757a6.946,6.946,0,0,0-1.73,1.884,7.091,7.091,0,0,0-.513,3.283c-.075,11.16-3.972,22.881-12.814,29.684a6.862,6.862,0,0,0,9.332-2.194,27.514,27.514,0,0,1-3.822,9.6c3.942-.083,6.848-3.573,9.185-6.75a18.8,18.8,0,0,1-2.638,11.277c5.277-.456,10.666-1.594,14.933-4.715,1.952-1.428,3.727-3.509,3.686-5.929a13.592,13.592,0,0,0-1.082-4c-1.15-3.422-.874-7.738,1.971-9.958A10.747,10.747,0,0,0,634.3,341.1a4.988,4.988,0,0,0,1.014-2.71,19.346,19.346,0,0,0-.354-7.093,5.218,5.218,0,0,1-.23-1.508,3.371,3.371,0,0,1,1.779-2.51,31.3,31.3,0,0,1,2.921-1.308,10.018,10.018,0,0,0,5.612-8.857c0-1.082-.143-2.288.543-3.121,1.014-1.236,3.121-.814,4.334-1.851,1.149-.984,1.021-2.815,1.824-4.1.66-1.055,1.884-1.617,2.778-2.465C659.008,301.428,649.329,295.989,645.707,296.641Z" transform="translate(-398.562 -214.6)" fill="#c17174"/>
    <path id="Path_742" data-name="Path 742" d="M639.132,399.478v.072L632.02,409.2l-4.357,5.914s-8.2,7.7-10.353,13.806a40,40,0,0,1-3.143,6.573,116.919,116.919,0,0,0-5.868,11.4,10.927,10.927,0,0,1-1.195,2.175,8.8,8.8,0,0,0-1.636,4.078s-2.386,9-8.691,10.885-2.827-9.746-1.406-10.647a36.864,36.864,0,0,0,4.146-3.969,15.68,15.68,0,0,0,3.143-4.922l1.376-3.434s6.558-15.739,7.692-16.632a3.843,3.843,0,0,0,.829-1q1.362-2.222,2.782-4.406c1.248-1.9,3.222-5.71,6.053-13.293.2-.531.4-1.044.607-1.534a25.358,25.358,0,0,1,6.17-9.355,6.6,6.6,0,0,1,10.964,4.636Z" transform="translate(-393.514 -274.791)" fill="#efb4b6"/>
    <path id="Path_743" data-name="Path 743" d="M686.845,399.474v.072l-7.112,9.652-10.033-5a25.359,25.359,0,0,1,6.17-9.355,6.6,6.6,0,0,1,10.975,4.628Z" transform="translate(-441.226 -274.788)" fill="#9f9eff"/>
    <path id="Path_744" data-name="Path 744" d="M691.83,389.54s7.692,3.294,11.45,3.494" transform="translate(-455.016 -272.519)" opacity="0.1"/>
    <path id="Path_745" data-name="Path 745" d="M812.48,796.393c.343,2.3-9.976,5.431-9.976,5.431l-10.689-.328.026,1.153-8.371-.094-.053-2.307-.038-.124,19.222.4,9.762-4.643A3.483,3.483,0,0,1,812.48,796.393Z" transform="translate(-512.061 -525.712)" opacity="0.1"/>
    <path id="Path_746" data-name="Path 746" d="M613.188,796.438a3.474,3.474,0,0,1-.792.754l-10.964.256-7.346-5.6-.825,1.753c-1.443.034-8.461-3.844-8.461-3.844l.818-2.039a2.837,2.837,0,0,1,.045-.377l8.552,3.769,7.342,5.31Z" transform="translate(-388.325 -520.39)" opacity="0.1"/>
    <path id="Path_747" data-name="Path 747" d="M680,538.624s4.123-8.755,8.39-11.454" transform="translate(-447.644 -358.277)" opacity="0.1"/>
    <path id="Path_748" data-name="Path 748" d="M723.5,453.91s2.416,4.5,9.735,2.774" transform="translate(-474.749 -312.628)" opacity="0.1"/>
    <path id="Path_749" data-name="Path 749" d="M892.065,707.456s-25.49,15.377,21.483,39.054c0,0,10.35-19.222-1.093-34.889a15.43,15.43,0,0,0-20.021-4.387Z" transform="translate(-575.481 -469.248)" fill="#6c63ff"/>
    <path id="Path_750" data-name="Path 750" d="M904.26,710.22s21.815,16.689,21.2,39.378" transform="translate(-587.382 -472.336)" fill="none" stroke="#535461" stroke-miterlimit="10" stroke-width="1"/>
    <path id="Path_751" data-name="Path 751" d="M958.6,672.331s-7.986-27.136,1.508-47.078a42.834,42.834,0,0,0,3.464-26.873,72.047,72.047,0,0,0-3.8-12.611" transform="translate(-619.281 -394.791)" fill="none" stroke="#535461" stroke-miterlimit="10" stroke-width="2"/>
    <path id="Path_752" data-name="Path 752" d="M962.581,542.989c0,3.324-6.03,12.961-6.03,12.961s-6.03-9.637-6.03-12.961a6.03,6.03,0,0,1,12.034,0Z" transform="translate(-616.207 -364.625)" fill="#6c63ff"/>
    <path id="Path_753" data-name="Path 753" d="M988.914,585.23c-1.805,2.789-12.095,7.609-12.095,7.609s.188-11.36,1.994-14.149a6.03,6.03,0,1,1,10.1,6.543Z" transform="translate(-632.594 -388.454)" fill="#6c63ff"/>
    <path id="Path_754" data-name="Path 754" d="M984.151,665.464c-2.966,1.508-14.281.464-14.281.464s5.895-9.713,8.865-11.209a6.03,6.03,0,1,1,5.42,10.745Z" transform="translate(-628.264 -437.233)" fill="#6c63ff"/>
    <path id="Path_755" data-name="Path 755" d="M969.528,729.969c-2.672,1.975-14,2.868-14,2.868s4.168-10.553,6.841-12.547a6.03,6.03,0,0,1,7.161,9.675Z" transform="translate(-619.328 -478.008)" fill="#6c63ff"/>
    <path id="Path_756" data-name="Path 756" d="M940.738,606.358c2.382,2.314,13.489,4.715,13.489,4.715s-2.721-11.032-5.1-13.346a6.03,6.03,0,0,0-8.386,8.631Z" transform="translate(-609.146 -401.347)" fill="#6c63ff"/>
    <path id="Path_757" data-name="Path 757" d="M920.532,677.748c2.966,1.508,14.281.464,14.281.464s-5.895-9.716-8.846-11.213a6.03,6.03,0,1,0-5.42,10.745Z" transform="translate(-595.242 -444.884)" fill="#6c63ff"/>
    <path id="Path_758" data-name="Path 758" d="M915.619,752.563c2.672,1.975,14,2.868,14,2.868s-4.168-10.553-6.841-12.547a6.03,6.03,0,1,0-7.161,9.675Z" transform="translate(-592.741 -491.806)" fill="#6c63ff"/>
    <path id="Path_759" data-name="Path 759" d="M962.581,542.989c0,3.324-6.03,12.961-6.03,12.961s-6.03-9.637-6.03-12.961a6.03,6.03,0,0,1,12.034,0Z" transform="translate(-616.207 -364.625)" opacity="0.25"/>
    <path id="Path_760" data-name="Path 760" d="M988.914,585.23c-1.805,2.789-12.095,7.609-12.095,7.609s.188-11.36,1.994-14.149a6.03,6.03,0,1,1,10.1,6.543Z" transform="translate(-632.594 -388.454)" opacity="0.25"/>
    <path id="Path_761" data-name="Path 761" d="M984.151,665.464c-2.966,1.508-14.281.464-14.281.464s5.895-9.713,8.865-11.209a6.03,6.03,0,1,1,5.42,10.745Z" transform="translate(-628.264 -437.233)" opacity="0.25"/>
    <path id="Path_762" data-name="Path 762" d="M969.528,729.969c-2.672,1.975-14,2.868-14,2.868s4.168-10.553,6.841-12.547a6.03,6.03,0,0,1,7.161,9.675Z" transform="translate(-619.328 -478.008)" opacity="0.25"/>
    <path id="Path_763" data-name="Path 763" d="M940.738,606.358c2.382,2.314,13.489,4.715,13.489,4.715s-2.721-11.032-5.1-13.346a6.03,6.03,0,0,0-8.386,8.631Z" transform="translate(-609.146 -401.347)" opacity="0.25"/>
    <path id="Path_764" data-name="Path 764" d="M920.532,677.748c2.966,1.508,14.281.464,14.281.464s-5.895-9.716-8.846-11.213a6.03,6.03,0,1,0-5.42,10.745Z" transform="translate(-595.242 -444.884)" opacity="0.25"/>
    <path id="Path_765" data-name="Path 765" d="M915.619,752.563c2.672,1.975,14,2.868,14,2.868s-4.168-10.553-6.841-12.547a6.03,6.03,0,1,0-7.161,9.675Z" transform="translate(-592.741 -491.806)" opacity="0.25"/>
    <path id="Path_766" data-name="Path 766" d="M1007.636,673.7s-7.986-27.136,1.508-47.078a42.835,42.835,0,0,0,3.464-26.873,72.045,72.045,0,0,0-3.8-12.611" transform="translate(-649.838 -395.645)" fill="none" stroke="#535461" stroke-miterlimit="10" stroke-width="2"/>
    <path id="Path_767" data-name="Path 767" d="M1011.621,544.359c0,3.324-6.03,12.961-6.03,12.961s-6.03-9.637-6.03-12.961a6.03,6.03,0,0,1,12.034,0Z" transform="translate(-646.764 -365.478)" fill="#6c63ff"/>
    <path id="Path_768" data-name="Path 768" d="M1038,586.6c-1.805,2.789-12.095,7.609-12.095,7.609s.188-11.36,1.994-14.149A6.03,6.03,0,1,1,1038,586.6Z" transform="translate(-663.183 -389.308)" fill="#6c63ff"/>
    <path id="Path_769" data-name="Path 769" d="M1033.191,666.845c-2.966,1.508-14.281.464-14.281.464s5.895-9.713,8.865-11.209a6.03,6.03,0,1,1,5.416,10.745Z" transform="translate(-658.821 -438.089)" fill="#6c63ff"/>
    <path id="Path_770" data-name="Path 770" d="M1018.558,731.339c-2.672,1.975-14,2.868-14,2.868s4.168-10.553,6.841-12.547a6.03,6.03,0,0,1,7.161,9.675Z" transform="translate(-649.879 -478.862)" fill="#6c63ff"/>
    <path id="Path_771" data-name="Path 771" d="M989.768,607.768c2.382,2.314,13.489,4.715,13.489,4.715s-2.721-11.032-5.1-13.346a6.03,6.03,0,0,0-8.386,8.631Z" transform="translate(-639.696 -402.225)" fill="#6c63ff"/>
    <path id="Path_772" data-name="Path 772" d="M970.712,679.7c2.966,1.508,14.281.464,14.281.464s-5.895-9.716-8.861-11.213a6.03,6.03,0,0,0-5.42,10.745Z" transform="translate(-626.939 -446.324)" fill="#6c63ff"/>
    <path id="Path_773" data-name="Path 773" d="M964.659,753.933c2.672,1.975,14,2.868,14,2.868s-4.168-10.553-6.841-12.547a6.03,6.03,0,1,0-7.161,9.675Z" transform="translate(-623.298 -492.66)" fill="#6c63ff"/>
    <rect id="Rectangle_221" data-name="Rectangle 221" width="51.635" height="1.884" transform="translate(171.487 276.61)" fill="#6c63ff"/>
    <rect id="Rectangle_222" data-name="Rectangle 222" width="77.263" height="1.884" transform="translate(240.836 276.61)" fill="#6c63ff"/>
    <rect id="Rectangle_223" data-name="Rectangle 223" width="23.367" height="1.884" transform="translate(336.567 276.61)" fill="#6c63ff"/>
    <path id="Path_774" data-name="Path 774" d="M128.109,79l-.539,1.832v53.195l.539.539,24.679-14.59Z" transform="translate(-103.422 -79.02)" fill="#343434"/>
    <path id="Path_775" data-name="Path 775" d="M88.187,79,63.5,119.957l24.687,14.59Z" transform="translate(-63.5 -79.02)" fill="#8c8c8c"/>
    <path id="Path_776" data-name="Path 776" d="M128.5,214.666l-.305.377V233.97l.305.886,24.694-34.776Z" transform="translate(-103.809 -154.466)" fill="#3c3c3b"/>
    <path id="Path_777" data-name="Path 777" d="M88.187,234.866V214.672L63.5,200.09Z" transform="translate(-63.5 -154.472)" fill="#8c8c8c"/>
    <path id="Path_778" data-name="Path 778" d="M129,183.716l24.679-14.586L129,157.91Z" transform="translate(-104.313 -128.189)" fill="#141414"/>
    <path id="Path_779" data-name="Path 779" d="M63.5,169.126l24.687,14.59V157.91Z" transform="translate(-63.5 -128.189)" fill="#393939"/>
    <path id="Path_780" data-name="Path 780" d="M641.564,277.591C640.645,232.9,608.13,197,568.145,197c-19.557,0-37.313,8.593-50.485,22.614-27.381,2.864-50.4,22.614-60.722,49.916-31.346,9.388-54.439,41.522-54.439,79.736,0,45.6,32.877,82.54,73.434,82.54a66.711,66.711,0,0,0,33.86-9.283,66.285,66.285,0,0,0,63.175.991,66.62,66.62,0,0,0,32.737,8.669c40.558,0,73.434-36.936,73.434-82.54C679.141,318.684,663.986,291.721,641.564,277.591Z" transform="translate(-274.733 -152.546)" fill="#304d71" opacity="0.1"/>
  </g>
</svg>
