<svg xmlns="http://www.w3.org/2000/svg" width="342" height="240.147" viewBox="0 0 342 240.147">
  <g id="invest" transform="translate(-0.242)">
    <ellipse id="Ellipse_2748" data-name="Ellipse 2748" cx="129" cy="10" rx="129" ry="10" transform="translate(0.242 220.147)" fill="#3f3d56"/>
    <path id="Path_1201" data-name="Path 1201" d="M397.537,706.449c-.071-.116-1.746-2.913-2.327-8.722-.533-5.329-.19-14.311,4.468-26.84a54.126,54.126,0,0,0-2.145-43.078l.536-.311a47.541,47.541,0,0,1,4.485,12.706,55.435,55.435,0,0,1-2.3,30.9c-8.81,23.7-2.26,34.913-2.193,35.023Z" transform="translate(-349.154 -483.388)" fill="#3f3d56"/>
    <ellipse id="Ellipse_2749" data-name="Ellipse 2749" cx="4" cy="4.5" rx="4" ry="4.5" transform="translate(41.242 134.147)" fill="#6c63ff"/>
    <circle id="Ellipse_2750" data-name="Ellipse 2750" cx="4" cy="4" r="4" transform="translate(53.242 150.147)" fill="#3f3d56"/>
    <circle id="Ellipse_2751" data-name="Ellipse 2751" cx="4.5" cy="4.5" r="4.5" transform="translate(44.242 159.147)" fill="#6c63ff"/>
    <circle id="Ellipse_2752" data-name="Ellipse 2752" cx="4" cy="4" r="4" transform="translate(55.242 168.147)" fill="#6c63ff"/>
    <ellipse id="Ellipse_2753" data-name="Ellipse 2753" cx="3.5" cy="4.5" rx="3.5" ry="4.5" transform="translate(42.242 180.147)" fill="#3f3d56"/>
    <path id="Path_1202" data-name="Path 1202" d="M409.564,844.337s-4.025-9.907,8.049-17.337Z" transform="translate(-358.75 -621.127)" fill="#3f3d56"/>
    <path id="Path_1203" data-name="Path 1203" d="M359.312,859.126s-1.832-10.535-16.008-10.445Z" transform="translate(-313.447 -636.096)" fill="#3f3d56"/>
    <path id="Path_1204" data-name="Path 1204" d="M613.082,317s.31,8.049-1.548,9.907,9.288,8.359,9.288,8.359l6.5-10.216s-2.477-4.334-1.857-8.049Z" transform="translate(-498.494 -269.015)" fill="#a0616a"/>
    <path id="Path_1205" data-name="Path 1205" d="M305.5,683.5v7.74l9.6.619-.619-8.359Z" transform="translate(-210.88 -471.9)" fill="#a0616a"/>
    <path id="Path_1206" data-name="Path 1206" d="M454.1,683.5v7.74l-9.6.619.619-8.359Z" transform="translate(-306.848 -471.9)" fill="#a0616a"/>
    <path id="Path_1207" data-name="Path 1207" d="M553.771,564.712s-4.953,17.956-1.858,32.2c0,0,0,6.192,1.238,7.43s1.548,1.238.619,1.858-2.786,2.167-1.858,3.1,1.238,2.167.619,2.477a1.418,1.418,0,0,0-.619,2.167c.619,1.238-3.1,34.364-3.1,34.364s-3.715,4.025,0,4.334,9.907,1.857,10.526-.619,5.572-37.46,5.572-37.46.619-.929,1.858-2.477.619-2.167.619-2.477,6.5-29.72,6.5-29.72,9.6,33.435,10.526,34.054,1.238.619,1.238,1.548-.619,1.548,0,2.477a16.1,16.1,0,0,1,.929,1.548s1.548,34.673,4.644,34.673,12.383-.619,11.455-3.405-2.167-2.167-2.167-2.167,2.167-28.482-3.1-36.84v-6.811c0-.619.31-.929,0-1.548s.929-37.46-4.953-39.627S553.771,564.712,553.771,564.712Z" transform="translate(-454.198 -438.866)" fill="#d0cde1"/>
    <path id="Path_1208" data-name="Path 1208" d="M529.875,857.977s-1.548-2.477-3.715-2.477-3.715,2.477-3.715,2.477l-5.572,7.74s-8.049,4.953-4.953,7.74,11.455,1.238,11.455,1.238,6.811-4.953,7.74-5.263a19.655,19.655,0,0,0,3.715-2.167c.31-.31-.619-11.455-1.548-10.681S531.733,859.834,529.875,857.977Z" transform="translate(-429.373 -640.804)" fill="#2f2e41"/>
    <path id="Path_1209" data-name="Path 1209" d="M692.318,857.977s1.548-2.477,3.715-2.477,3.715,2.477,3.715,2.477l5.573,7.74s8.049,4.953,4.953,7.74-11.455,1.238-11.455,1.238-6.811-4.953-7.74-5.263a19.654,19.654,0,0,1-3.715-2.167c-.31-.31.619-11.455,1.548-10.681S690.46,859.834,692.318,857.977Z" transform="translate(-550.951 -640.804)" fill="#2f2e41"/>
    <circle id="Ellipse_2754" data-name="Ellipse 2754" cx="11.145" cy="11.145" r="11.145" transform="translate(108.861 30.184)" fill="#a0616a"/>
    <path id="Path_1210" data-name="Path 1210" d="M581.5,339.3s-2.083.115-3.054-3.038L562,348.277l6.811,18.265s.929,9.907,0,12.693a24.876,24.876,0,0,0-1.548,6.192c0,1.238-6.5,21.98-4.025,22.909s40.246,4.644,41.175-1.548-3.1-47.057-3.1-47.057l6.5-15.789L592.013,333.6S590.482,339.918,581.5,339.3Z" transform="translate(-464.439 -280.478)" fill="#3f3d56"/>
    <path id="Path_1211" data-name="Path 1211" d="M545.037,444.5l-1.238,9.6a49.354,49.354,0,0,0-3.715,23.838l-.31,8.978s-3.1,15.479,3.1,16.1,2.167-17.027,2.167-17.027l3.405-8.359,3.486-18.594,1.777-12.983Z" transform="translate(-448.559 -357.043)" fill="#a0616a"/>
    <path id="Path_1212" data-name="Path 1212" d="M561.6,379.5l-4.489.464s-2.941,21.826-2.012,21.826,11.455,2.477,11.764,1.858S561.6,379.5,561.6,379.5Z" transform="translate(-459.547 -312.166)" fill="#3f3d56"/>
    <path id="Path_1213" data-name="Path 1213" d="M598.04,244.14l-2.009-.731s4.2-4.2,10.045-3.835l-1.644-1.644A7.456,7.456,0,0,1,612.1,240.3a32.629,32.629,0,0,1,5.527,7.056h2.152l-.9,1.8,3.143,1.8-3.226-.323a9.063,9.063,0,0,1-.305,4.651l-.731,2.009s-2.922-5.845-2.922-6.575v1.826s-2.009-1.644-2.009-2.74l-1.1,1.278-.548-2.009-6.758,2.009,1.1-1.644-4.2.548,1.644-2.009s-4.749,2.374-4.931,4.383-2.557,4.566-2.557,4.566l-1.1-1.826S592.743,246.879,598.04,244.14Z" transform="translate(-486.633 -214.235)" fill="#2f2e41"/>
    <ellipse id="Ellipse_2755" data-name="Ellipse 2755" cx="20.665" cy="29.41" rx="20.665" ry="29.41" transform="translate(120.006 129.87)" fill="#3f3d56"/>
    <ellipse id="Ellipse_2756" data-name="Ellipse 2756" cx="20.665" cy="29.41" rx="20.665" ry="29.41" transform="translate(120.006 129.87)" opacity="0.1"/>
    <ellipse id="Ellipse_2757" data-name="Ellipse 2757" cx="20.665" cy="29.41" rx="20.665" ry="29.41" transform="translate(122.792 129.87)" fill="#3f3d56"/>
    <ellipse id="Ellipse_2758" data-name="Ellipse 2758" cx="17.724" cy="25.225" rx="17.724" ry="25.225" transform="translate(125.733 134.056)" opacity="0.1"/>
    <path id="Path_1214" data-name="Path 1214" d="M700.948,662.069v-2.961a6.875,6.875,0,0,1-3.948-1.29l.619-1.964a6.312,6.312,0,0,0,3.716,1.261,2.846,2.846,0,0,0,3.071-2.873c0-1.613-1.006-2.609-2.916-3.489-2.632-1.173-4.258-2.521-4.258-5.072a4.609,4.609,0,0,1,3.9-4.72V638h1.6v2.844a6.279,6.279,0,0,1,3.355,1.026l-.645,1.935a5.7,5.7,0,0,0-3.252-1,2.478,2.478,0,0,0-2.736,2.521c0,1.524.955,2.287,3.2,3.342,2.658,1.231,4,2.756,4,5.365a4.906,4.906,0,0,1-4.078,4.984v3.049Z" transform="translate(-557.645 -490.638)" fill="#6c63ff"/>
    <path id="Path_1215" data-name="Path 1215" d="M685.16,433.5v12.693s.31,15.479-4.953,25.076l-2.786,6.192s-5.573,17.956-8.978,12.383,3.715-14.86,3.715-14.86l4.03-23.565-2.482-15.752Z" transform="translate(-537.292 -349.448)" fill="#a0616a"/>
    <path id="Path_1216" data-name="Path 1216" d="M684.977,364.5l6.037.774s7.275,22.135,5.418,23.064-13.931,1.548-13.931,1.548Z" transform="translate(-547.634 -301.809)" fill="#3f3d56"/>
    <rect id="Rectangle_242" data-name="Rectangle 242" width="141.789" height="158.736" transform="translate(183.006 15.559)" fill="#f2f2f2"/>
    <path id="Path_1217" data-name="Path 1217" d="M864,597.433H860.29v-.619H864Zm-7.43,0H852.86v-.619h3.715Zm-7.43,0H845.43v-.619h3.715Zm-7.43,0H838v-.619h3.715Z" transform="translate(-654.994 -462.203)" fill="#e6e6e6"/>
    <path id="Path_1218" data-name="Path 1218" d="M916.015,502.619H912.3V502h3.715Zm-7.43,0H904.87V502h3.715Zm-7.43,0H897.44V502h3.715Zm-7.43,0H890.01V502h3.715Zm-7.43,0H882.58V502h3.715Zm-7.43,0H875.15V502h3.715Zm-7.43,0H867.72V502h3.715Zm-7.43,0H860.29V502H864Zm-7.43,0H852.86V502h3.715Zm-7.43,0H845.43V502h3.715Zm-7.43,0H838V502h3.715Z" transform="translate(-654.994 -396.742)" fill="#e6e6e6"/>
    <path id="Path_1219" data-name="Path 1219" d="M990.315,443.619H986.6V443h3.715Zm-7.43,0H979.17V443h3.715Zm-7.43,0H971.74V443h3.715Zm-7.43,0H964.31V443h3.715Zm-7.43,0H956.88V443h3.715Zm-7.43,0H949.45V443h3.715Zm-7.43,0H942.02V443h3.715Zm-7.43,0H934.59V443H938.3Zm-7.43,0H927.16V443h3.715Zm-7.43,0H919.73V443h3.715Zm-7.43,0H912.3V443h3.715Zm-7.43,0H904.87V443h3.715Zm-7.43,0H897.44V443h3.715Zm-7.43,0H890.01V443h3.715Zm-7.43,0H882.58V443h3.715Zm-7.43,0H875.15V443h3.715Zm-7.43,0H867.72V443h3.715Zm-7.43,0H860.29V443H864Zm-7.43,0H852.86V443h3.715Zm-7.43,0H845.43V443h3.715Zm-7.43,0H838V443h3.715Z" transform="translate(-654.994 -356.007)" fill="#e6e6e6"/>
    <rect id="Rectangle_243" data-name="Rectangle 243" width="0.619" height="1.857" transform="translate(210.559 0.24)" fill="#e6e6e6"/>
    <path id="Path_1220" data-name="Path 1220" d="M927.619,315.747H927v-3.653h.619Zm0-7.307H927v-3.653h.619Zm0-7.307H927v-3.653h.619Zm0-7.306H927v-3.653h.619Zm0-7.307H927v-3.653h.619Zm0-7.307H927v-3.653h.619Zm0-7.306H927v-3.653h.619Zm0-7.307H927v-3.653h.619Zm0-7.307H927v-3.653h.619Zm0-7.306H927v-3.653h.619Zm0-7.307H927v-3.653h.619Zm0-7.306H927v-3.653h.619Zm0-7.307H927v-3.653h.619Zm0-7.307H927v-3.653h.619Zm0-7.307H927V209.8h.619Zm0-7.306H927V202.5h.619Zm0-7.307H927v-3.653h.619Zm0-7.307H927v-3.653h.619Zm0-7.307H927v-3.653h.619Z" transform="translate(-716.441 -174.825)" fill="#e6e6e6"/>
    <rect id="Rectangle_244" data-name="Rectangle 244" width="1" height="2" transform="translate(210.242 144.147)" fill="#e6e6e6"/>
    <rect id="Rectangle_245" data-name="Rectangle 245" width="0.619" height="1.857" transform="translate(264.426 0.24)" fill="#e6e6e6"/>
    <path id="Path_1221" data-name="Path 1221" d="M1101.619,287.617H1101V283.93h.619Zm0-7.375H1101v-3.687h.619Zm0-7.375H1101v-3.687h.619Zm0-7.374H1101v-3.687h.619Zm0-7.375H1101v-3.687h.619Zm0-7.374H1101v-3.687h.619Zm0-7.375H1101v-3.687h.619Zm0-7.375H1101v-3.687h.619Zm0-7.374H1101v-3.687h.619Zm0-7.375H1101v-3.687h.619Zm0-7.375H1101v-3.687h.619Zm0-7.375H1101V202.81h.619Zm0-7.374H1101v-3.687h.619Zm0-7.375H1101v-3.687h.619Zm0-7.374H1101v-3.687h.619Z" transform="translate(-836.573 -174.901)" fill="#e6e6e6"/>
    <rect id="Rectangle_246" data-name="Rectangle 246" width="1" transform="translate(264.242 117.147)" fill="#e6e6e6"/>
    <path id="Path_1222" data-name="Path 1222" d="M591,391.086l28.172-28.172,12.848,12.848,40.71-40.71,26.315,26.315L746.411,314v77.086Z" transform="translate(-407.994 -216.791)" fill="#6c63ff"/>
    <path id="Path_1223" data-name="Path 1223" d="M993.03,336.6H837V162H993.03Zm-155.411-.619H992.411V162.619H837.619Z" transform="translate(-654.303 -162)" fill="#3f3d56"/>
    <ellipse id="Ellipse_2759" data-name="Ellipse 2759" cx="4" cy="4.5" rx="4" ry="4.5" transform="translate(207.242 130.147)" fill="#3f3d56"/>
    <ellipse id="Ellipse_2760" data-name="Ellipse 2760" cx="4" cy="4.5" rx="4" ry="4.5" transform="translate(260.242 101.147)" fill="#3f3d56"/>
    <circle id="Ellipse_2761" data-name="Ellipse 2761" cx="4" cy="4" r="4" transform="translate(334.242 83.147)" fill="#3f3d56"/>
    <path id="Path_1224" data-name="Path 1224" d="M995.9,242a18.7,18.7,0,0,1-6.005.783l2.334,1.55-109.82,81.315.368.5,109.82-81.315.8,2.685A18.757,18.757,0,0,1,995.9,242Z" transform="translate(-685.652 -217.233)" fill="#3f3d56"/>
  </g>
</svg>
