<svg xmlns="http://www.w3.org/2000/svg" xmlns:xlink="http://www.w3.org/1999/xlink" viewBox="0 0 234.52 261.64"><defs><style>.cls-1{fill:url(#linear-gradient);}.cls-2{fill:url(#linear-gradient-2);}.cls-3{fill:url(#linear-gradient-3);}</style><linearGradient id="linear-gradient" x1="65.58" y1="161.01" x2="168.69" y2="57.9" gradientUnits="userSpaceOnUse"><stop offset="0" stop-color="#f25b2e"/><stop offset="1" stop-color="#f7931e"/></linearGradient><linearGradient id="linear-gradient-2" x1="65.71" y1="203.61" x2="168.81" y2="100.5" xlink:href="#linear-gradient"/><linearGradient id="linear-gradient-3" x1="34.35" y1="213.73" x2="200.17" y2="47.91" xlink:href="#linear-gradient"/></defs><g id="Layer_2" data-name="Layer 2"><g id="Layer_5" data-name="Layer 5"><path class="cls-1" d="M204.51,124.37a21.31,21.31,0,0,0-21.31-21.3c-2,0-3.11-.13-6.15-.09H57.47a66.07,66.07,0,0,1,42.2-35.73,64.16,64.16,0,0,1,11.73-2.11q2.89-.27,5.86-.27t5.86.27a64.16,64.16,0,0,1,11.73,2.11,65.53,65.53,0,0,1,22.35,11.1l-7,7h14.65v-.26l.25.26h27.49a87.6,87.6,0,0,0-69.43-42.3q-2.91-.2-5.86-.2c-2,0-3.93.07-5.86.2A87.6,87.6,0,0,0,42,85.39,87.49,87.49,0,0,0,29.53,125h175C204.51,124.76,204.51,124.56,204.51,124.37Z"/><path class="cls-2" d="M29.53,136.68c.13,2,.32,3.93.58,5.87a21.6,21.6,0,0,0,20.62,15.91c1.65,0,2.46.17,6.74.2H177.05a66.07,66.07,0,0,1-42.2,35.73,65,65,0,0,1-11.73,2.11c-1.93.18-3.88.26-5.86.26s-3.93-.08-5.86-.26a65,65,0,0,1-11.73-2.11,65.71,65.71,0,0,1-22.24-11l7.13-7.13H69.9v.45l-.44-.45H42a87.6,87.6,0,0,0,69.43,42.3c1.93.13,3.89.19,5.86.19s3.92-.06,5.86-.19a87.6,87.6,0,0,0,69.43-42.3A87.49,87.49,0,0,0,205,136.68Z"/><path class="cls-3" d="M228.84,94.85a117.94,117.94,0,0,0-8.76-20.41A117.29,117.29,0,0,0,104.24,14.29L100.41,0Q94.62.75,88.82,2l3.8,14.17c-1.9.41-3.81.87-5.7,1.38s-3.78,1.06-5.63,1.66L77.5,5.07C73.72,6.25,70,7.61,66.44,9.1l3.83,14.29A117.12,117.12,0,0,0,2.64,155.46q.61,2.85,1.38,5.7t1.66,5.63a117.51,117.51,0,0,0,8.76,20.4,116.07,116.07,0,0,0,10.15,15.49,117.42,117.42,0,0,0,105.69,44.67l3.83,14.29q5.79-.75,11.59-2l-3.8-14.18c1.9-.4,3.81-.86,5.7-1.37s3.78-1.06,5.63-1.66L157,256.57q5.67-1.78,11.06-4l-3.83-14.3a117.38,117.38,0,0,0,69.19-91.52,115.89,115.89,0,0,0,1.05-18.49,117.48,117.48,0,0,0-2.61-22c-.41-1.9-.87-3.81-1.38-5.7S229.44,96.7,228.84,94.85ZM217.7,110a102.25,102.25,0,0,1,.18,40.91,102.71,102.71,0,0,1-57.47,73,101,101,0,0,1-11,4.32c-1.85.62-3.72,1.17-5.62,1.68s-3.8,1-5.71,1.36A102.44,102.44,0,0,1,19.86,163c-.62-1.85-1.17-3.72-1.68-5.62s-1-3.8-1.36-5.71a102.24,102.24,0,0,1-.18-40.91,102.71,102.71,0,0,1,57.47-73,99,99,0,0,1,11-4.32q2.77-.93,5.62-1.69t5.71-1.35A102.44,102.44,0,0,1,214.66,98.65c.62,1.85,1.17,3.72,1.68,5.62S217.31,108.07,217.7,110Z"/></g></g></svg>