<svg xmlns="http://www.w3.org/2000/svg" width="289.24" height="289.24" viewBox="0 0 72.31 72.31">
  <defs>
    <style>
      .cls-1 {
        fill: #fff;
        fill-rule: evenodd;
      }
    </style>
  </defs>
  <path class="cls-1" d="M1044.36,2512.73a36.16,36.16,0,1,1,36.14-36.15A36.169,36.169,0,0,1,1044.36,2512.73Zm-29.25-29.33a0.44,0.44,0,0,0,.01.39,30.005,30.005,0,1,0-.67-11.05,0.524,0.524,0,0,0,.37.68q7.32,3.045,14.61,6.14a0.723,0.723,0,0,0,.75-0.04,7.428,7.428,0,0,1,3.86-1.11,0.813,0.813,0,0,0,.7-0.38q3.1-4.4,6.25-8.75a1.583,1.583,0,0,0,.31-0.87,10.566,10.566,0,1,1,10.86,11.21,1.342,1.342,0,0,0-.82.29c-2.63,1.97-5.25,3.94-7.9,5.88a2.421,2.421,0,0,0-1.14,1.85,8.1,8.1,0,0,1-15.89.85,0.731,0.731,0,0,0-.5-0.56c-2.64-1.1-5.27-2.21-7.91-3.32C1017.04,2484.21,1016.07,2483.8,1015.11,2483.4Zm36.76-7.15a7.18,7.18,0,1,0-7.2-7.17A7.183,7.183,0,0,0,1051.87,2476.25Zm-23.22,12.9c0.5,1.83,2.98,3.5,5.37,3.64a6.271,6.271,0,0,0,4.3-11.07c-1.72-1.45-4.62-1.95-6.13-1.04,0.1,0.05.19,0.1,0.28,0.14,1.21,0.51,2.42,1,3.62,1.53a4.361,4.361,0,0,1,2.72,3.81,4.531,4.531,0,0,1-6.28,4.55c-1.15-.46-2.28-0.95-3.42-1.43A0.749,0.749,0,0,0,1028.65,2489.15Zm28.62-20.07a5.425,5.425,0,1,1-5.42-5.44A5.429,5.429,0,0,1,1057.27,2469.08Z" transform="translate(-1008.19 -2440.41)"/>
</svg>
