<svg width="30" height="30" viewBox="0 0 30 30" fill="none" xmlns="http://www.w3.org/2000/svg">
    <rect width="30" height="30" rx="5" fill="#FBAD17"/>
    <path d="M16.0352 11.9805V11.5586C16.0352 11.0664 16.0352 10.7148 16 10.5039C15.9297 10.1875 15.8242 9.94141 15.6484 9.80078C15.4727 9.66016 15.1914 9.55469 14.8047 9.55469C14.5586 9.55469 14.3125 9.625 14.0664 9.76562C13.5039 10.0469 13.1172 10.5742 12.9062 11.2773L10.3047 11.0312C10.3047 10.4688 10.4805 9.87109 10.8672 9.30859C11.2188 8.74609 11.7461 8.28906 12.4492 7.9375C13.1875 7.58594 14.0312 7.375 15.0156 7.375C15.9648 7.375 16.7734 7.58594 17.4414 7.9375C17.9336 8.21875 18.3555 8.64062 18.6367 9.13281C18.8477 9.55469 18.9883 9.90625 18.9883 10.2578V15.4258C18.9883 15.7422 19.0586 16.0586 19.2695 16.3398C19.4102 16.5859 19.5859 16.832 19.832 17.043L20.1133 17.2891L18.1094 19.2578C17.1953 18.4141 16.668 17.8867 16.5273 17.6055C16.1406 18.2383 15.5781 18.6953 14.875 18.9766C14.1719 19.2578 13.4336 19.3633 12.6953 19.2578C11.9219 19.1523 11.3242 18.8359 10.8672 18.3086C10.3398 17.7461 10.0938 17.0078 10.0938 16.0938C10.0938 14.5469 10.8672 13.4219 12.4141 12.7188C13.3984 12.2969 14.5938 12.0508 16.0352 11.9805ZM16.0352 15.0039V13.5977C15.2617 13.6328 14.5938 13.7734 14.1016 14.0195C13.3984 14.3711 13.082 14.8984 13.082 15.6367C13.082 16.0586 13.2227 16.4102 13.5039 16.6914C13.7852 16.9727 14.1367 17.0781 14.5586 17.0781C14.9805 17.0781 15.2969 16.9023 15.5781 16.5508C15.8594 16.1992 16.0352 15.707 16.0352 15.0039ZM20.8164 20.7695C20.957 20.6289 20.9922 20.4883 20.9219 20.3828C20.8516 20.3125 20.7812 20.2773 20.6406 20.3477C18.6719 21.2969 16.7734 21.7891 15.0156 21.7891C13.5742 21.8242 12.168 21.543 10.7617 20.9805C9.95312 20.6992 8.93359 20.1367 7.66797 19.3633L7.52734 19.293C7.42188 19.2227 7.35156 19.2227 7.28125 19.293C7.21094 19.3633 7.21094 19.4688 7.35156 19.5742C7.70312 20.0312 8.19531 20.4883 8.82812 20.9453C9.60156 21.5781 10.4453 22.0703 11.3594 22.4219C12.4492 22.9141 13.5391 23.125 14.6641 23.125C15.7891 23.125 16.8438 22.9492 17.8633 22.5977C18.6016 22.3164 19.3047 21.9648 19.9375 21.543C20.3594 21.2617 20.6406 20.9805 20.8164 20.7695ZM22.2227 20.8398C22.3281 20.5586 22.3984 20.2773 22.4688 19.9609C22.5039 19.6445 22.5039 19.4336 22.4336 19.3281C22.3633 19.2578 22.1523 19.1875 21.8008 19.1523C21.4492 19.1172 21.1328 19.1172 20.8516 19.1523C20.5352 19.1875 20.2188 19.2578 19.9023 19.3984C19.5859 19.5391 19.4453 19.6797 19.5156 19.75C19.5156 19.7852 19.5508 19.7852 19.5859 19.7852L20.1133 19.75C21.0273 19.6797 21.5547 19.7148 21.6953 19.8555C21.7656 19.9961 21.7305 20.3477 21.5898 20.875C21.4844 21.2266 21.3789 21.543 21.2383 21.7891C21.168 21.9297 21.168 22 21.2383 22.0352C21.3086 22.0703 21.3789 22.0352 21.4844 21.9297C21.7656 21.7188 22.0117 21.332 22.2227 20.8398Z" fill="white"/>
</svg>
