<svg width="30" height="30" viewBox="0 0 30 30" fill="none" xmlns="http://www.w3.org/2000/svg">
<rect width="30" height="30" rx="5" fill="#FBAD17"/>
<mask id="mask0" mask-type="alpha" maskUnits="userSpaceOnUse" x="5" y="5" width="20" height="20">
<path fill-rule="evenodd" clip-rule="evenodd" d="M5 5H25V25H5V5Z" fill="white"/>
</mask>
<g mask="url(#mask0)">
<path fill-rule="evenodd" clip-rule="evenodd" d="M18.229 15.1904C18.2582 15.1766 18.3059 15.1489 18.3583 15.1304C19.539 14.7181 19.8884 12.8134 18.9478 11.9549C18.523 11.5672 18.0396 11.3072 17.5132 11.1149C17.3023 11.0364 17.2777 10.9364 17.3315 10.7456C17.4454 10.3287 17.5378 9.90402 17.6533 9.48708C17.7087 9.29322 17.7025 9.17476 17.4624 9.13783C17.2253 9.10091 16.9898 9.03629 16.7589 8.96398C16.5711 8.90397 16.5095 8.97475 16.471 9.15014C16.4033 9.46708 16.311 9.7794 16.2355 10.0948C16.0924 10.6902 16.0954 10.6856 15.5043 10.5302C15.3427 10.4871 15.3088 10.424 15.3504 10.2656C15.472 9.81479 15.5828 9.36246 15.6844 8.90705C15.6998 8.84089 15.6567 8.70243 15.6136 8.68858C15.2734 8.59011 14.9255 8.51319 14.5546 8.42395C14.396 9.03783 14.2467 9.62247 14.0912 10.221C13.8726 10.1687 13.6864 10.1256 13.5016 10.0794C13.0491 9.96557 12.598 9.84402 12.1439 9.74094C12.0577 9.72094 11.8869 9.75325 11.873 9.79786C11.7576 10.1656 11.6683 10.5425 11.5698 10.9256C11.7514 10.9748 11.8869 11.0133 12.0239 11.0502C12.1609 11.0872 12.2994 11.1149 12.4333 11.1579C12.8259 11.2856 12.9429 11.5026 12.8428 11.9057C12.7705 12.2057 12.6966 12.5042 12.6211 12.8042C12.3056 14.0642 11.99 15.3243 11.6714 16.5844C11.5959 16.8798 11.4528 16.9659 11.1603 16.8998C10.9648 16.8551 10.7724 16.8044 10.5784 16.7521C10.4276 16.7105 10.3291 16.7413 10.2721 16.9074C10.1997 17.1121 10.1028 17.3075 10.0166 17.5059C9.77797 18.049 9.77797 18.046 10.3691 18.1906C10.9078 18.3244 11.4451 18.4644 12.0039 18.6075C11.8669 19.1691 11.7453 19.7045 11.6052 20.2338C11.5636 20.3861 11.6036 20.4522 11.7437 20.4861C12.0039 20.5492 12.2625 20.6092 12.5195 20.6799C12.6889 20.7276 12.7643 20.6584 12.8028 20.4999C12.8797 20.1676 12.9675 19.8384 13.0506 19.506C13.2015 18.8999 13.1984 18.9045 13.7926 19.0814C13.9373 19.1245 13.9758 19.1768 13.9342 19.3276C13.8111 19.7768 13.711 20.2322 13.5909 20.683C13.5417 20.8692 13.5894 20.96 13.7818 20.9953C14.0189 21.0415 14.2528 21.1015 14.4853 21.1692C14.6423 21.2154 14.747 21.1984 14.7731 21.0123C14.7824 20.9476 14.8039 20.883 14.8209 20.8184C14.9394 20.3522 15.0564 19.8861 15.1703 19.4414C15.6906 19.4768 16.1786 19.5322 16.6681 19.5368C17.9442 19.5491 18.7508 18.9537 19.1156 17.7383C19.3004 17.1228 19.3635 16.4936 18.9648 15.9366C18.7662 15.6582 18.483 15.4428 18.229 15.1904ZM15.0134 4.99951C20.6181 5.05951 25.073 9.52127 24.9991 15.1523C24.9283 20.6326 20.495 25.0882 14.8225 24.999C9.35781 24.9143 4.90756 20.4987 5.00146 14.8231C5.09228 9.35973 9.48249 5.04567 15.0134 4.99951Z" fill="white"/>
</g>
<path fill-rule="evenodd" clip-rule="evenodd" d="M13.5781 17.5073C13.7721 16.7242 13.9614 15.9688 14.1554 15.1857C14.9481 15.3534 15.7271 15.5041 16.392 15.9688C16.8769 16.3088 17.0109 16.7704 16.8015 17.255C16.626 17.6581 16.2797 17.8027 15.8794 17.8412C15.1005 17.9135 14.357 17.7289 13.5781 17.5073Z" fill="white"/>
<path fill-rule="evenodd" clip-rule="evenodd" d="M14.9835 11.8777C15.6439 12.0208 16.275 12.1408 16.8076 12.5331C17.1786 12.807 17.3033 13.1331 17.2017 13.5285C17.0924 13.9562 16.8461 14.1593 16.375 14.2378C15.7639 14.3393 15.1882 14.1686 14.6125 14.0132C14.5602 13.9978 14.5063 13.9039 14.4955 13.8409C14.4863 13.7732 14.5263 13.6978 14.5448 13.6255C14.6879 13.0531 14.8311 12.4823 14.9835 11.8777Z" fill="white"/>
</svg>
