<svg width="30" height="30" viewBox="0 0 30 30" fill="none" xmlns="http://www.w3.org/2000/svg">
<rect width="30" height="30" rx="5" fill="#3CA9E2"/>
<path d="M19.3047 15.0078C19.2786 13.5755 19.9297 12.4688 21.2578 11.6875C20.5286 10.6458 19.4219 10.0599 17.9375 9.92969C17.5469 9.90365 17.1042 9.95573 16.6094 10.0859C16.3229 10.1641 15.9323 10.2943 15.4375 10.4766C14.9427 10.6589 14.6172 10.75 14.4609 10.75C14.3047 10.75 13.9531 10.6458 13.4062 10.4375C12.5469 10.125 11.9089 9.96875 11.4922 9.96875C10.737 9.99479 10.0078 10.2031 9.30469 10.5938C8.6276 10.9844 8.08073 11.5573 7.66406 12.3125C7.22135 13.1198 7 14.0833 7 15.2031C7 16.2188 7.18229 17.2734 7.54688 18.3672C7.75521 18.9401 8.05469 19.5781 8.44531 20.2812C8.9401 21.1406 9.4349 21.8177 9.92969 22.3125C10.5807 22.9635 11.1927 23.276 11.7656 23.25C12.0521 23.25 12.4688 23.1458 13.0156 22.9375C13.6927 22.6771 14.2526 22.5469 14.6953 22.5469C15.138 22.5469 15.6719 22.6641 16.2969 22.8984C16.8698 23.1328 17.3385 23.25 17.7031 23.25C18.5365 23.224 19.3828 22.625 20.2422 21.4531C20.8932 20.5417 21.375 19.5911 21.6875 18.6016C20.6458 18.1068 19.9427 17.3776 19.5781 16.4141C19.3698 15.9453 19.2786 15.4766 19.3047 15.0078ZM17.0781 8.5625C17.7812 7.72917 18.0938 6.79167 18.0156 5.75C17.5469 5.77604 17.0651 5.91927 16.5703 6.17969C16.0755 6.4401 15.6719 6.7526 15.3594 7.11719C14.6042 7.95052 14.2786 8.88802 14.3828 9.92969C15.3464 10.0078 16.2448 9.5651 17.0781 8.60156V8.5625Z" fill="white"/>
</svg>
